<?xml version="1.0" standalone="no"?>
<!DOCTYPE svg PUBLIC "-//W3C//DTD SVG 1.1//EN" "http://www.w3.org/Graphics/SVG/1.1/DTD/svg11.dtd" >
<svg xmlns="http://www.w3.org/2000/svg" xmlns:xlink="http://www.w3.org/1999/xlink" version="1.1">
<metadata></metadata>
<defs>
<font id="geomanistthin_italic" horiz-adv-x="364" >
<font-face units-per-em="2048" ascent="1536" descent="-512" />
<missing-glyph horiz-adv-x="567" />
<glyph unicode="&#x2e;&#x2e;&#x2e;" horiz-adv-x="1212" d="M137 10q0 20 14.5 34.5t36.5 14.5q17 0 27 -10.5t10 -25.5q0 -20 -15.5 -35t-35.5 -15q-17 0 -27 10.5t-10 26.5zM565 10q0 20 15.5 34.5t35.5 14.5q17 0 27 -10.5t10 -25.5q0 -20 -15.5 -35t-35.5 -15q-17 0 -27 10.5t-10 26.5zM993 10q0 20 14.5 34.5t36.5 14.5 q17 0 27 -10.5t10 -25.5q0 -20 -15.5 -35t-35.5 -15q-17 0 -27 10.5t-10 26.5z" />
<glyph unicode=" "  horiz-adv-x="567" />
<glyph unicode="&#x09;" horiz-adv-x="567" />
<glyph unicode="&#xa0;" horiz-adv-x="567" />
<glyph unicode="!" horiz-adv-x="448" d="M182 10q0 20 14.5 34.5t36.5 14.5q17 0 27 -10.5t10 -25.5q0 -20 -15.5 -35t-35.5 -15q-17 0 -27 10.5t-10 26.5zM264 305l189 1129h20l-188 -1129h-21z" />
<glyph unicode="&#x22;" horiz-adv-x="432" d="M322 1126l51 308h18l-51 -308h-18zM469 1126l51 308h19l-52 -308h-18z" />
<glyph unicode="#" horiz-adv-x="1300" d="M147 434l7 21h290l197 522h-289l6 20h291l164 437h23l-164 -437h403l164 437h23l-164 -437h295l-7 -20h-296l-197 -522h295l-6 -21h-297l-162 -434h-23l162 434h-403l-162 -434h-23l162 434h-289zM467 455h403l197 522h-403z" />
<glyph unicode="$" horiz-adv-x="1001" d="M145 260l21 6q57 -272 344 -272q180 0 304 108t124 289q0 80 -33.5 143t-87 104t-118.5 76.5t-130 70t-118.5 74t-87 99t-33.5 134.5q0 154 113.5 259.5t295.5 108.5l19 109h20l-18 -109q71 -1 127 -23t91 -56.5t55 -68.5t32 -71l-21 -8q-11 36 -30 68t-52.5 65.5 t-90 53.5t-128.5 20q-174 0 -283.5 -101t-109.5 -245q0 -56 21 -103t56 -81t80.5 -63.5t96 -55.5t101 -53t96 -60t80.5 -71.5t56 -93t21 -120.5q0 -187 -124 -302t-320 -118l-27 -149h-20l27 149q-290 8 -349 287z" />
<glyph unicode="%" horiz-adv-x="1435" d="M154 0l1339 1434h27l-1340 -1434h-26zM313 1141q0 131 93.5 225t226.5 94q103 0 167 -68t64 -169q0 -131 -93 -225.5t-226 -94.5q-103 0 -167.5 68.5t-64.5 169.5zM334 1143q0 -96 57.5 -158.5t153.5 -62.5q123 0 212 88.5t89 210.5q0 96 -58.5 158.5t-154.5 62.5 q-124 0 -211.5 -88.5t-87.5 -210.5zM809 211q0 131 93 225t226 94q104 0 168 -68t64 -169q0 -131 -93.5 -225.5t-226.5 -94.5q-103 0 -167 68.5t-64 169.5zM829 213q0 -96 57.5 -158.5t153.5 -62.5q123 0 212 88.5t89 210.5q0 96 -58.5 158.5t-154.5 62.5 q-124 0 -211.5 -88.5t-87.5 -210.5z" />
<glyph unicode="&#x26;" horiz-adv-x="1218" d="M158 317q0 283 354 435q-3 4 -20 25t-23 29t-22 30t-23.5 35t-20.5 35t-19.5 40t-14 41t-10.5 45.5t-3 46.5q0 157 119 269t295 112q141 0 226 -85.5t85 -209.5q0 -65 -22.5 -122t-61 -103.5t-102 -92t-132.5 -82.5t-165 -81l430 -477q77 90 120 193t69 249h20 q-27 -153 -70 -255.5t-125 -200.5l158 -170l-18 -17l-154 170q-215 -203 -473 -203q-176 0 -286.5 95t-110.5 249zM178 322q0 -145 106 -236.5t275 -91.5q132 0 250.5 56t204.5 140l-488 545q-49 -21 -92.5 -44.5t-92 -61.5t-83 -81t-57.5 -102t-23 -124zM377 1079 q0 -31 7.5 -63t16 -56t29.5 -58.5t32 -51.5t41.5 -54t39.5 -47t43 -49q88 39 154 74t129 79.5t103 89.5t64.5 101.5t24.5 118.5q0 120 -79.5 198.5t-215.5 78.5q-165 0 -277 -107t-112 -254z" />
<glyph unicode="'" horiz-adv-x="284" d="M322 1126l51 308h18l-51 -308h-18z" />
<glyph unicode="(" horiz-adv-x="518" d="M172 -111l236 1405q31 183 180 183h24l-4 -21h-24q-129 0 -156 -162l-235 -1405q-27 -161 102 -161h24l-4 -21h-24q-67 0 -101 43.5t-18 138.5z" />
<glyph unicode=")" horiz-adv-x="516" d="M102 -293l4 21h25q129 0 156 161l235 1405q14 87 -12.5 124.5t-89.5 37.5h-25l4 21h25q150 0 119 -183l-236 -1405q-17 -97 -62 -139.5t-118 -42.5h-25z" />
<glyph unicode="*" horiz-adv-x="862" d="M303 948l293 160l-240 160l13 18l237 -160l53 308h21l-53 -308l291 160l8 -18l-293 -160l239 -160l-12 -16l-239 158l-52 -308h-20l51 305l-289 -157z" />
<glyph unicode="+" horiz-adv-x="1126" d="M195 627l4 20h463l81 490h21l-82 -490h461l-4 -20h-461l-82 -488h-21l82 488h-462z" />
<glyph unicode="," horiz-adv-x="354" d="M106 -152q25 20 54.5 58t36.5 71q-8 -4 -25 -4q-15 0 -25 11t-10 26q0 20 14.5 34.5t34.5 14.5q37 0 37 -41q0 -85 -104 -184z" />
<glyph unicode="-" horiz-adv-x="616" d="M176 602l4 21h463l-4 -21h-463z" />
<glyph unicode="." horiz-adv-x="358" d="M137 10q0 20 14.5 34.5t36.5 14.5q17 0 27 -10.5t10 -25.5q0 -20 -15.5 -35t-35.5 -15q-17 0 -27 10.5t-10 26.5z" />
<glyph unicode="/" horiz-adv-x="806" d="M39 -221l922 1757h24l-922 -1757h-24z" />
<glyph unicode="0" horiz-adv-x="1085" d="M204.5 328.5q-3.5 87.5 4.5 179.5t27 209q23 143 49.5 248.5t69.5 203t99 158.5t138.5 97t187.5 36q76 0 133.5 -18.5t97 -51t64.5 -84t36.5 -111t12 -138t-7.5 -159.5t-24 -181q-23 -143 -50 -248.5t-70.5 -203t-100 -159t-139 -97.5t-187.5 -36q-88 0 -152 23.5 t-103 71.5t-60.5 110.5t-25 150zM223.5 389q-0.5 -77 9.5 -135t33 -108.5t60.5 -82.5t93.5 -50.5t129 -18.5t134.5 18.5t109 50.5t86.5 82.5t67.5 108t52 135t40 154.5t32.5 174q18 114 25.5 201.5t5 173.5t-22.5 146.5t-57 107.5t-99 70.5t-147 23.5t-154.5 -23.5 t-121 -70.5t-90 -107.5t-68 -146.5t-49 -173.5t-37.5 -201.5q-16 -97 -24 -174t-8.5 -154z" />
<glyph unicode="1" horiz-adv-x="563" d="M340 0l235 1409l-208 -90l-11 18l224 97h20l-240 -1434h-20z" />
<glyph unicode="2" horiz-adv-x="968" d="M94 0l4 23q12 62 52 123.5t96 115.5t125.5 109.5t143 109.5t146.5 110.5t137.5 118.5t114 127t78.5 142.5t29 159.5q0 59 -17.5 111t-52.5 95.5t-95.5 69t-139.5 25.5q-148 0 -246 -82t-139 -197l-21 6q18 53 51 102t82.5 93t120.5 71t154 27t147.5 -28t102 -75 t56.5 -102.5t19 -115.5q0 -107 -47 -207t-123 -180t-169 -155.5t-189 -145.5t-178.5 -136.5t-142 -143t-74.5 -151.5h766l-4 -20h-787z" />
<glyph unicode="3" horiz-adv-x="1038" d="M127 250l20 8q57 -264 355 -264q122 0 228.5 58.5t171.5 164t65 232.5q0 155 -98.5 241t-254.5 86h-102l4 21l569 616h-720l4 21h749l-4 -21l-569 -616h73q162 0 265.5 -90.5t103.5 -255.5q0 -138 -68 -249t-178.5 -170t-238.5 -59q-90 0 -159.5 23t-112 64t-67 87.5 t-36.5 102.5z" />
<glyph unicode="4" horiz-adv-x="1077" d="M139 397l4 21l869 1016h20l-170 -1016h211l-4 -21h-211l-65 -397h-21l66 397h-699zM170 418h672l164 977z" />
<glyph unicode="5" horiz-adv-x="1026" d="M129 248l18 8q60 -262 342 -262q136 0 245 69.5t166.5 183t57.5 245.5q0 161 -96 263.5t-250 102.5q-172 0 -319 -119l-14 6l147 689h637l-4 -21h-617l-139 -645q135 111 311 111q164 0 264.5 -110.5t100.5 -276.5q0 -136 -61 -254.5t-174.5 -191.5t-254.5 -73 q-87 0 -154 24t-107.5 66t-63.5 87t-35 98z" />
<glyph unicode="6" horiz-adv-x="1064" d="M193 410q0 159 22.5 307.5t72.5 284.5t122.5 237t180.5 161t238 60q167 0 283 -112l-16 -17q-105 109 -271 109q-165 0 -295.5 -108.5t-206 -291t-96.5 -415.5q28 48 69 93t97 87.5t131.5 68t157.5 25.5q87 0 156 -30.5t110.5 -82t63.5 -116.5t22 -138q0 -128 -39 -234.5 t-107.5 -177t-160.5 -109t-197 -38.5q-76 0 -135.5 25t-96.5 65.5t-61.5 98.5t-34 118.5t-9.5 129.5zM215 462.5q-1 -57.5 4 -118t18.5 -111t38 -95.5t59 -76.5t85.5 -49.5t115 -18q97 0 183 36t151.5 102.5t104 169t38.5 226.5q0 70 -20 132t-59 111.5t-103.5 78.5 t-147.5 29q-143 0 -261 -81t-198 -214q-7 -64 -8 -121.5z" />
<glyph unicode="7" horiz-adv-x="923" d="M297 0l786 1413h-778l4 21h801l-4 -21l-784 -1413h-25z" />
<glyph unicode="8" horiz-adv-x="1069" d="M162 324q0 86 28 160.5t71.5 124.5t99.5 87t109.5 56t104.5 24q-93 20 -162 100.5t-69 192.5q0 118 61 208.5t158 136.5t211 46q139 0 232.5 -78.5t93.5 -214.5q0 -78 -32.5 -148t-84 -118.5t-111.5 -81t-120 -43.5q49 -5 97 -28t90.5 -63t68.5 -104.5t26 -142.5 q0 -199 -147.5 -332t-354.5 -133q-164 0 -267 99.5t-103 251.5zM182 324q0 -138 92.5 -234t260.5 -96q106 0 197.5 38t152.5 100.5t95 142t34 163.5q0 152 -99 239t-253 87q-94 0 -180 -30.5t-153 -85.5t-107 -139.5t-40 -184.5zM365 1071q0 -122 83.5 -203.5t217.5 -81.5 q163 0 287 114t124 261q0 120 -78.5 199.5t-222.5 79.5q-183 0 -297 -108t-114 -261z" />
<glyph unicode="9" horiz-adv-x="1064" d="M193 86l16 16q104 -108 270 -108q165 0 295.5 108.5t206 291t96.5 415.5q-28 -48 -68.5 -93t-97 -87.5t-131.5 -68t-157 -25.5q-87 0 -156 30t-111 82t-64 116.5t-22 137.5q0 128 39 234.5t107.5 177t160.5 109t197 38.5q76 0 135.5 -24.5t97 -65.5t62 -98.5t34 -118 t9.5 -129.5q0 -159 -22.5 -307.5t-73 -285t-123 -237.5t-180.5 -161t-238 -60q-165 0 -282 113zM293 905q0 -70 20 -131.5t59 -111t103.5 -78.5t147.5 -29q143 0 260.5 81t197.5 214q8 75 8 141.5t-8 135.5t-30.5 123.5t-57.5 98.5t-92 67.5t-131 23.5q-97 0 -183 -36.5 t-151.5 -103t-104 -169t-38.5 -226.5z" />
<glyph unicode=":" horiz-adv-x="354" d="M137 10q0 20 14.5 34.5t36.5 14.5q17 0 27 -10.5t10 -25.5q0 -20 -15.5 -35t-35.5 -15q-17 0 -27 10.5t-10 26.5zM285 887q0 20 14.5 34.5t34.5 14.5q17 0 27 -10.5t10 -26.5q0 -20 -15 -34.5t-37 -14.5q-15 0 -24.5 11t-9.5 26z" />
<glyph unicode=";" horiz-adv-x="354" d="M106 -152q25 20 54.5 58t36.5 71q-8 -4 -25 -4q-15 0 -25 11t-10 26q0 20 14.5 34.5t34.5 14.5q37 0 37 -41q0 -85 -104 -184zM283 887q0 20 15.5 34.5t35.5 14.5q17 0 27 -10.5t10 -26.5q0 -20 -15.5 -34.5t-36.5 -14.5q-17 0 -26.5 10.5t-9.5 26.5z" />
<glyph unicode="&#x3c;" horiz-adv-x="972" d="M190 639l5 20l866 373l-4 -22l-844 -363l723 -360l-2 -21z" />
<glyph unicode="=" horiz-adv-x="1124" d="M170 473l4 21h944l-4 -21h-944zM219 766l4 20h944l-4 -20h-944z" />
<glyph unicode="&#x3e;" horiz-adv-x="972" d="M129 266l4 23l840 360l-719 363l4 20l741 -373l-4 -20z" />
<glyph unicode="?" horiz-adv-x="919" d="M319 1229q127 231 381 231q142 0 226 -87.5t84 -219.5q0 -67 -16 -126.5t-44 -105.5t-64 -87t-76.5 -75t-82 -66.5t-81 -65.5t-71.5 -67t-55 -75.5t-31 -87.5l-16 -92h-20l16 92q11 61 45.5 115.5t81 96.5t100.5 83.5t105.5 87t93.5 96.5t68 121.5t26 153.5 q0 126 -79.5 207.5t-209.5 81.5q-243 0 -364 -221zM371 10q0 20 14.5 34.5t34.5 14.5q17 0 27 -10.5t10 -25.5q0 -21 -14.5 -35.5t-36.5 -14.5q-15 0 -25 11t-10 26z" />
<glyph unicode="@" horiz-adv-x="1789" d="M182 416q0 150 46 294t132 265t201 213t261.5 144t305.5 52q154 0 282.5 -55.5t211.5 -149.5t128.5 -215t45.5 -255q0 -137 -32 -249.5t-86 -184t-122 -110t-141 -38.5q-79 0 -120.5 47.5t-26.5 134.5l12 68q-28 -61 -77.5 -115.5t-131.5 -94.5t-176 -40 q-130 0 -215.5 95t-85.5 243q0 98 37.5 186.5t99 149.5t140 97t159.5 36q75 0 134.5 -26.5t93.5 -68.5t51.5 -89t17.5 -93l43 265h21l-103 -613q-12 -77 21.5 -119.5t107.5 -42.5q51 0 101.5 22.5t96.5 69t81.5 111.5t56.5 157t21 198q0 129 -44 247t-124 210t-205 147 t-275 55q-192 0 -365.5 -79.5t-294.5 -210t-192 -302t-71 -352.5q0 -143 46.5 -270t128 -219.5t198.5 -146.5t253 -54q102 0 210 25t182 61l8 -19q-69 -34 -179 -61t-225 -27q-139 0 -259.5 55.5t-204 150.5t-131.5 225t-48 276zM614 469q0 -141 81 -231.5t204 -90.5 q76 0 150.5 33.5t133.5 92.5t95.5 148.5t36.5 192.5q0 136 -78 217.5t-209 81.5q-77 0 -152 -33.5t-133 -91t-93.5 -141.5t-35.5 -178z" />
<glyph unicode="A" horiz-adv-x="1218" d="M37 0l801 1434h20l322 -1434h-25l-129 584h-637l-326 -584h-26zM401 604h619l-176 799z" />
<glyph unicode="B" horiz-adv-x="1048" d="M190 0l240 1434h328q148 0 233.5 -82t85.5 -209q0 -76 -23.5 -140t-59.5 -106.5t-83.5 -74t-91 -48t-86.5 -22.5q49 -5 95.5 -25.5t88 -56.5t66.5 -95.5t25 -132.5q0 -198 -134 -320t-356 -122h-328zM215 20h307q208 0 336.5 115.5t128.5 304.5q0 145 -96 223t-248 78 h-307zM338 762h307q169 0 289.5 104t120.5 273q0 124 -80.5 199t-220.5 75h-308z" />
<glyph unicode="C" horiz-adv-x="1386" d="M205 604q0 175 70 334.5t185 273t268.5 181t315.5 67.5q86 0 162 -18.5t128.5 -47.5t85 -54.5t53.5 -49.5l-15 -14q-16 17 -36 34.5t-58.5 42t-82 43t-107 31.5t-132.5 13q-155 0 -303 -64t-261.5 -173t-183 -266t-69.5 -331q0 -176 74.5 -316.5t205.5 -218t294 -77.5 q87 0 169.5 18t144 48t97.5 52.5t66 45.5l12 -15q-229 -170 -491 -170q-172 0 -307.5 82t-210 225.5t-74.5 323.5z" />
<glyph unicode="D" horiz-adv-x="1259" d="M190 0l240 1434h221q294 0 469.5 -165t175.5 -435q0 -188 -66.5 -345t-183.5 -264t-279 -166t-351 -59h-226zM215 20h205q183 0 340.5 57t271 160.5t178 256t64.5 335.5q0 267 -169.5 425.5t-457.5 158.5h-201z" />
<glyph unicode="E" horiz-adv-x="954" d="M190 0l240 1434h614l-4 -21h-594l-110 -668h524l-4 -20h-524l-117 -705h619l-5 -20h-639z" />
<glyph unicode="F" horiz-adv-x="937" d="M190 0l240 1434h614l-4 -21h-594l-112 -674h522l-2 -20h-522l-121 -719h-21z" />
<glyph unicode="G" horiz-adv-x="1480" d="M205 604q0 177 69 337t183.5 273t268.5 179.5t318 66.5q87 0 164.5 -18.5t130 -47.5t85 -54.5t53.5 -49.5l-15 -14q-16 17 -36 34.5t-59 42t-83 43t-108 31.5t-134 13q-155 0 -303 -64t-261.5 -173t-183 -266t-69.5 -331q0 -176 74.5 -316.5t205.5 -218t294 -77.5 q98 0 192.5 24.5t166.5 63.5t113.5 67.5t74.5 57.5l71 430h-383l4 20h404l-78 -462q-269 -222 -567 -222q-169 0 -305 82t-211.5 226t-75.5 323z" />
<glyph unicode="H" horiz-adv-x="1380" d="M190 0l240 1434h21l-115 -686h958l115 686h21l-240 -1434h-21l121 727h-958l-121 -727h-21z" />
<glyph unicode="I" horiz-adv-x="401" d="M190 0l240 1434h21l-240 -1434h-21z" />
<glyph unicode="J" horiz-adv-x="636" d="M53 10l8 21q66 -23 140 -23q225 0 274 277l193 1149h20l-192 -1149q-24 -140 -93.5 -218.5t-205.5 -78.5q-85 0 -144 22z" />
<glyph unicode="K" horiz-adv-x="1036" d="M190 0l240 1434h21l-113 -680l821 680h33l-832 -689l627 -745h-29l-622 741l-125 -741h-21z" />
<glyph unicode="L" horiz-adv-x="905" d="M190 0l240 1434h21l-236 -1414h619l-5 -20h-639z" />
<glyph unicode="M" horiz-adv-x="1699" d="M190 0l240 1434h19l428 -1262l849 1262h23l-240 -1434h-20l231 1389l-835 -1246h-21l-422 1246l-231 -1389h-21z" />
<glyph unicode="N" horiz-adv-x="1417" d="M190 0l240 1434h19l763 -1393l234 1393h20l-239 -1434h-19l-762 1395l-235 -1395h-21z" />
<glyph unicode="O" horiz-adv-x="1617" d="M205 604q0 176 69 335.5t183.5 273t269.5 180.5t322 67q131 0 244.5 -47.5t192.5 -131t124 -200.5t45 -252q0 -176 -69 -335.5t-183.5 -273t-269.5 -180.5t-322 -67q-131 0 -244.5 47.5t-192.5 131t-124 200.5t-45 252zM225 606q0 -173 73.5 -313t207.5 -219.5t303 -79.5 q161 0 312 65t263.5 175.5t180 266t67.5 326.5q0 174 -73.5 313.5t-206.5 219.5t-301 80q-161 0 -312.5 -65.5t-264.5 -176t-181 -266t-68 -326.5z" />
<glyph unicode="P" horiz-adv-x="956" d="M190 0l240 1434h299q158 0 250 -83.5t92 -228.5q0 -136 -63.5 -237.5t-167.5 -152t-234 -50.5h-280l-115 -682h-21zM328 702h278q194 0 319.5 115.5t125.5 302.5q0 137 -86.5 215t-239.5 78h-279z" />
<glyph unicode="Q" horiz-adv-x="1628" d="M205 604q0 176 69 335.5t183.5 273t269.5 180.5t322 67q131 0 244.5 -47.5t192.5 -131t124 -200.5t45 -252q0 -202 -88 -377.5t-240 -295.5l135 -166l-16 -13l-135 166q-220 -170 -500 -170q-131 0 -244.5 47.5t-192.5 131t-124 200.5t-45 252zM225 606q0 -173 73.5 -313 t207.5 -219.5t303 -79.5q267 0 489 166l-151 190l14 12l154 -190q147 117 232 288t85 367q0 174 -73.5 313.5t-206.5 219.5t-301 80q-161 0 -312.5 -65.5t-264.5 -176t-181 -266t-68 -326.5z" />
<glyph unicode="R" horiz-adv-x="1026" d="M190 0l240 1434h281q164 0 256 -87.5t92 -222.5q0 -76 -22.5 -140.5t-57.5 -108.5t-83.5 -78t-96 -53.5t-99.5 -30.5l265 -713h-25l-260 709q-57 -11 -123 -11h-229l-117 -698h-21zM332 719h229q212 0 344.5 111.5t132.5 289.5q0 130 -87 211.5t-244 81.5h-261z" />
<glyph unicode="S" horiz-adv-x="1001" d="M145 260l21 6q57 -272 344 -272q180 0 304 108t124 289q0 80 -33.5 143t-87 104t-118.5 76.5t-130 70t-118.5 74t-87 99t-33.5 134.5q0 157 116.5 262.5t303.5 105.5q73 0 131.5 -21t94.5 -56t56.5 -69.5t32.5 -72.5l-21 -8q-11 36 -30 68t-52.5 65.5t-90 53.5t-128.5 20 q-174 0 -283.5 -101t-109.5 -245q0 -56 21 -103t56 -81t80.5 -63.5t96 -55.5t101 -53t96 -60t80.5 -71.5t56 -93t21 -120.5q0 -189 -126 -304.5t-324 -115.5q-300 0 -363 287z" />
<glyph unicode="T" horiz-adv-x="1007" d="M283 1413l4 21h913l-4 -21h-446l-236 -1413h-20l235 1413h-446z" />
<glyph unicode="U" horiz-adv-x="1351" d="M260 489l158 945h20l-157 -945q-10 -61 -11 -115q0 -149 78 -247q105 -133 326 -133t372 133t189 362l158 945h20l-158 -945q-40 -239 -193.5 -377.5t-389.5 -138.5q-228 0 -340 140q-82 103 -83 258q0 56 11 118z" />
<glyph unicode="V" horiz-adv-x="1200" d="M266 1434h21l317 -1403l785 1403h24l-803 -1434h-20z" />
<glyph unicode="W" horiz-adv-x="1839" d="M266 1434h21l192 -1389l666 1389h20l207 -1389l653 1389h25l-676 -1434h-18l-205 1393l-670 -1393h-18z" />
<glyph unicode="X" horiz-adv-x="1148" d="M37 0l651 762l-346 672h23l337 -652l558 652h26l-573 -674l393 -760h-23l-385 743l-632 -743h-29z" />
<glyph unicode="Y" horiz-adv-x="964" d="M266 1434h21l315 -715l553 715h25l-570 -740l-116 -694h-21l117 694z" />
<glyph unicode="Z" horiz-adv-x="1196" d="M80 0l4 20l1223 1393h-959l4 21h987l-4 -21l-1222 -1393h995l-4 -20h-1024z" />
<glyph unicode="[" horiz-adv-x="518" d="M141 -293l297 1770h174l-4 -21h-153l-289 -1728h153l-4 -21h-174z" />
<glyph unicode="\" horiz-adv-x="806" d="M336 1536h22l332 -1757h-22z" />
<glyph unicode="]" horiz-adv-x="503" d="M104 -293l5 21h153l289 1728h-154l4 21h174l-296 -1770h-175z" />
<glyph unicode="^" horiz-adv-x="987" d="M215 651l510 783h18l246 -783h-20l-238 760l-493 -760h-23z" />
<glyph unicode="_" horiz-adv-x="1224" d="M76 -84l4 21h1042l-4 -21h-1042z" />
<glyph unicode="`" horiz-adv-x="1015" d="M668 1448h26l94 -250h-20z" />
<glyph unicode="a" horiz-adv-x="995" d="M133 274q0 107 59 197.5t163 143.5t229 53q121 0 211.5 -63t109.5 -163l45 269q8 48 8 89q0 108 -56 174q-78 90 -234 89q-182 0 -367 -115l-10 19q190 116 381 116q164 0 246 -95q60 -70 61 -186q0 -42 -8 -91l-119 -711h-21l33 201q-64 -106 -168 -167t-229 -61 q-158 0 -246 86.5t-88 214.5zM154 279q0 -118 82 -201.5t233 -83.5q114 0 212.5 56t154 143t55.5 180q0 122 -82.5 198t-228.5 76q-120 0 -219 -53t-153 -137t-54 -178z" />
<glyph unicode="b" horiz-adv-x="1232" d="M172 0l248 1481h20l-129 -768q17 48 48.5 97t79.5 98.5t106 88t134 62.5t157 24q184 0 294.5 -127.5t110.5 -328.5q0 -181 -77 -331t-212.5 -236.5t-300.5 -86.5q-82 0 -150 26.5t-111.5 67.5t-74.5 95.5t-44.5 106.5t-16.5 104l-61 -373h-21zM270 426q0 -188 102 -310 t281 -122q112 0 215.5 47t181.5 129t124.5 200t46.5 251q0 197 -106.5 319.5t-283.5 122.5q-105 0 -205.5 -46.5t-179.5 -127.5t-127.5 -202.5t-48.5 -260.5z" />
<glyph unicode="c" horiz-adv-x="1105" d="M170 444q0 128 50 246t133.5 204t199 137.5t240.5 51.5q81 0 150 -20.5t114 -54.5t69 -58.5t41 -50.5l-16 -14q-9 16 -25 35t-48 45.5t-70 47.5t-95.5 35.5t-121.5 14.5q-116 0 -226 -49t-192.5 -131t-132.5 -196t-50 -238q0 -195 118 -325t302 -130q80 0 155.5 21 t129 53t85.5 57t52 47l15 -14q-26 -26 -58.5 -51t-88.5 -58.5t-133 -54.5t-159 -21q-197 0 -317.5 135t-120.5 336z" />
<glyph unicode="d" horiz-adv-x="1232" d="M168 430q0 137 47 259t126.5 208t188.5 136t230 50q101 0 180 -37.5t124 -96.5t68 -123.5t25 -127.5l131 783h21l-248 -1481h-21l60 360q-16 -47 -45 -96.5t-76.5 -102.5t-104.5 -94t-135.5 -67.5t-163.5 -26.5q-189 0 -298 127t-109 330zM188 434q0 -198 107.5 -319 t282.5 -121q116 0 222 55t180 145t117.5 207t43.5 238q0 200 -106 312t-277 112q-113 0 -217.5 -48t-182 -131t-124 -200.5t-46.5 -249.5z" />
<glyph unicode="e" horiz-adv-x="1175" d="M170 438q0 143 53.5 267t140 205t193.5 127t215 46q144 0 247 -69q103 -70 145 -186q27 -74 27 -158q0 -48 -9 -99l-6 -34h-975q-9 -58 -9 -111q0 -170 88 -284q116 -148 334 -148q269 0 449 219l16 -12q-175 -228 -467 -228q-201 0 -321.5 122t-120.5 343zM205 557h954 q9 56 9 106q0 60 -12 113q-24 98 -80.5 159.5t-135.5 94.5t-172 33t-186 -37t-170 -102t-133 -161t-74 -206z" />
<glyph unicode="f" horiz-adv-x="524" d="M190 0l175 1036h-127l2 21h129l14 88q26 160 103.5 240.5t197.5 80.5q29 0 49 -4l-2 -20q-20 4 -51 4q-226 0 -279 -307l-14 -82h272l-2 -21h-272l-174 -1036h-21z" />
<glyph unicode="g" horiz-adv-x="1222" d="M166 430q0 181 78 331t214 236t300 86q84 0 152.5 -27t112.5 -70t74.5 -98.5t43 -109.5t12.5 -106l61 385h21l-156 -934q-85 -514 -567 -514q-94 0 -186.5 31t-157.5 79l12 17q68 -48 157.5 -77.5t178.5 -29.5q103 0 188.5 26t158 82t122.5 152t72 228l39 227 q-23 -62 -67.5 -124t-109 -119t-155.5 -92.5t-191 -35.5q-185 0 -296 127.5t-111 329.5zM186 436q0 -197 106 -319.5t283 -122.5q108 0 210 48.5t179.5 131.5t125 203.5t47.5 255.5q0 189 -101 309.5t-280 120.5q-112 0 -216 -47t-182 -129t-125 -200t-47 -251z" />
<glyph unicode="h" horiz-adv-x="1099" d="M172 0l248 1481h20l-112 -678q16 49 50 96.5t84 89.5t122 68t153 26q107 0 185 -42q79 -43 117 -129q25 -57 25 -127q0 -37 -7 -78l-119 -707h-20l118 707q7 43 7 81q1 114 -65 183q-88 92 -243 92q-161 0 -280.5 -105t-149.5 -288l-112 -670h-21z" />
<glyph unicode="i" d="M172 0l176 1057h21l-176 -1057h-21zM367 1348q0 20 15 33.5t34 13.5q16 0 25.5 -10.5t9.5 -24.5q0 -19 -14.5 -33t-35.5 -14q-15 0 -24.5 10.5t-9.5 24.5z" />
<glyph unicode="j" d="M-152 -387l5 20q27 -2 43 -2q108 0 173 72t91 231l188 1123h21l-189 -1123q-29 -171 -99.5 -247t-189.5 -76zM367 1348q0 20 15 33.5t34 13.5q16 0 25.5 -10.5t9.5 -24.5q0 -19 -15 -33t-35 -14q-15 0 -24.5 10.5t-9.5 24.5z" />
<glyph unicode="k" horiz-adv-x="845" d="M172 0l248 1481h20l-149 -891l651 467h33l-658 -473l510 -584h-28l-508 582l-98 -582h-21z" />
<glyph unicode="l" d="M172 0l248 1481h20l-247 -1481h-21z" />
<glyph unicode="m" horiz-adv-x="1777" d="M172 0l176 1057h21l-41 -252q14 47 45.5 93.5t80 89t119.5 69t152 26.5q137 1 223 -75q83 -73 82 -196v-9q36 122 141 201t261 79q162 -1 248 -99q63 -73 63 -189q0 -41 -8 -88l-119 -707h-21l119 707q8 44 8 83q0 40 -8 74q-15 68 -55 111t-99 65.5t-133 22.5 q-152 0 -263 -89.5t-140 -266.5l-119 -707h-20l119 707q8 47 8 88q0 111 -58 177q-80 92 -233 91q-159 0 -272.5 -104t-143.5 -289l-112 -670h-21z" />
<glyph unicode="n" horiz-adv-x="1099" d="M172 0l176 1057h21l-41 -254q16 49 50.5 96.5t84.5 89.5t122.5 68t153.5 26q79 0 143.5 -24.5t109 -71t62.5 -118.5q10 -39 10 -84q0 -37 -7 -78l-119 -707h-20l118 707q7 43 7 81q1 114 -65 183q-88 92 -243 92q-161 0 -280.5 -105t-149.5 -288l-112 -670h-21z" />
<glyph unicode="o" horiz-adv-x="1234" d="M170 440q0 175 84 323t229 234t316 86q201 0 322.5 -132.5t121.5 -336.5q0 -130 -50 -248.5t-134.5 -204.5t-201.5 -137t-245 -51q-199 0 -320.5 134t-121.5 333zM190 446q0 -195 115 -323.5t309 -128.5q123 0 235.5 50t193.5 133t129.5 197t48.5 236q0 201 -115.5 327 t-310.5 126q-164 0 -304 -85t-220.5 -227t-80.5 -305z" />
<glyph unicode="p" horiz-adv-x="1232" d="M109 -383l241 1440h21l-60 -357q21 60 63 122t106 123t157.5 99.5t198.5 38.5q184 0 295.5 -127t111.5 -329q0 -183 -80 -333.5t-216.5 -235.5t-297.5 -85q-94 0 -170.5 34t-123.5 90.5t-73 123.5t-30 139l-123 -743h-20zM268 420q0 -200 107 -313t278 -113q113 0 217 48 t181.5 131t123.5 200.5t46 249.5q0 197 -108 318.5t-282 121.5q-155 0 -286 -92.5t-204 -240t-73 -310.5z" />
<glyph unicode="q" horiz-adv-x="1232" d="M166 430q0 181 78 331t214 236t300 86q84 0 152.5 -27t112.5 -70t74.5 -98.5t43 -109.5t12.5 -106l61 385h21l-238 -1440h-20l119 727q-23 -62 -67.5 -124t-109 -119t-155.5 -92.5t-191 -35.5q-185 0 -296 127.5t-111 329.5zM186 436q0 -197 106 -319.5t283 -122.5 q108 0 210 48.5t179.5 131.5t125 203.5t47.5 255.5q0 189 -101 309.5t-280 120.5q-112 0 -216 -47t-182 -129t-125 -200t-47 -251z" />
<glyph unicode="r" horiz-adv-x="581" d="M172 0l176 1057h21l-43 -266q16 47 47 94.5t78.5 93.5t117.5 75t150 29l-4 -20q-150 0 -266.5 -114.5t-147.5 -295.5l-108 -653h-21z" />
<glyph unicode="s" horiz-adv-x="813" d="M135 221l21 6q12 -102 74.5 -167.5t189.5 -65.5q136 0 233 84.5t97 218.5q0 51 -20.5 92.5t-54.5 68.5t-77.5 52.5t-88.5 44.5t-88.5 44t-77.5 51t-54.5 66t-20.5 89q0 127 94 202.5t228 75.5q219 0 254 -202l-21 -9q-33 191 -235 191q-123 0 -210 -71t-87 -187 q0 -53 26.5 -93.5t68.5 -67.5t93 -51t102.5 -50t93.5 -56.5t68.5 -78.5t26.5 -109q0 -140 -97.5 -233t-252.5 -93q-253 0 -285 248z" />
<glyph unicode="t" horiz-adv-x="514" d="M205 1036l4 21h141l37 221h21l-37 -221h270l-4 -21h-268l-121 -717q-12 -74 -12 -129q0 -72 22 -112q38 -70 154 -70q41 0 65 4l-2 -20q-42 -4 -65 -4q-124 0 -169 76q-27 46 -27 128q0 53 11 121l121 723h-141z" />
<glyph unicode="u" horiz-adv-x="1081" d="M221 350l119 707h20l-118 -707q-7 -42 -7 -80q0 -114 66 -184q88 -92 242 -92q157 0 278.5 105.5t151.5 287.5l112 670h21l-178 -1057h-21l43 254q-16 -49 -50.5 -96.5t-84.5 -90t-122.5 -68.5t-153.5 -26q-78 0 -142 24.5t-109 70.5q-46 48 -64 120q-10 40 -10 85 q0 37 7 77z" />
<glyph unicode="v" horiz-adv-x="929" d="M193 1057h20l256 -1028l596 1028h25l-615 -1057h-20z" />
<glyph unicode="w" horiz-adv-x="1646" d="M193 1057h20l219 -1026l555 1026h25l211 -1026l559 1026h24l-577 -1057h-21l-213 1030l-557 -1030h-20z" />
<glyph unicode="x" horiz-adv-x="925" d="M39 0l502 555l-285 502h25l276 -486l438 486h27l-455 -504l318 -553h-27l-307 537l-483 -537h-29z" />
<glyph unicode="y" horiz-adv-x="964" d="M190 1057h25l274 -1032l611 1032h26l-841 -1424h-25l213 365z" />
<glyph unicode="z" horiz-adv-x="933" d="M74 0l4 23l907 1013h-709l3 21h737l-2 -21l-905 -1013h747l-4 -23h-778z" />
<glyph unicode="{" horiz-adv-x="536" d="M158 582l2 20q150 0 188 217l80 475q31 183 180 183h25l-4 -21h-25q-128 0 -155 -162l-80 -475q-33 -198 -154 -229q110 -31 78 -225l-80 -476q-27 -161 102 -161h25l-4 -21h-25q-149 0 -118 182l79 476q38 217 -114 217z" />
<glyph unicode="|" horiz-adv-x="442" d="M154 -348l309 1851h20l-309 -1851h-20z" />
<glyph unicode="}" horiz-adv-x="536" d="M102 -293l4 21h25q129 0 156 161l80 476q33 198 151 229q-108 31 -76 225l80 475q27 162 -102 162h-25l4 21h25q150 0 119 -183l-80 -475q-38 -217 115 -217l-5 -20q-151 0 -186 -217l-80 -476q-31 -182 -180 -182h-25z" />
<glyph unicode="~" horiz-adv-x="1075" d="M205 528q13 81 76.5 140t162.5 59q48 0 90.5 -19t75.5 -46.5t65.5 -55t75 -46.5t89.5 -19q86 0 145 52t72 126h20q-13 -80 -77.5 -139.5t-163.5 -59.5q-48 0 -91 19.5t-76.5 47t-66 54.5t-74 46.5t-86.5 19.5q-86 0 -145 -52.5t-72 -126.5h-20z" />
<glyph unicode="&#xa1;" horiz-adv-x="448" d="M160 -313l188 1128h21l-189 -1128h-20zM362 1098q0 20 15.5 34.5t36.5 14.5q17 0 27 -10.5t10 -26.5q0 -20 -15 -34.5t-37 -14.5q-15 0 -26 11t-11 26z" />
<glyph unicode="&#xa2;" horiz-adv-x="1124" d="M197 608q0 125 49.5 241.5t132 203.5t197 140t237.5 54l31 189h20l-30 -189q232 -6 364 -184l-18 -14q-9 16 -25 35t-48 45.5t-70.5 47.5t-96.5 35.5t-123 14.5q-155 0 -293 -82.5t-222.5 -225t-84.5 -307.5q0 -198 114.5 -326t307.5 -128q80 0 155 21t128 53t85 57 t52 47l14 -14q-25 -25 -57 -50t-87 -58t-129 -54.5t-153 -22.5l-22 -137h-21l23 137q-192 0 -311 135.5t-119 335.5z" />
<glyph unicode="&#xa3;" horiz-adv-x="1091" d="M92 0l4 20h158l117 701h-133l4 20h131l57 334q30 175 142.5 280t283.5 105q67 0 123 -21t91.5 -55t57.5 -70t29 -71l-16 -8q-8 36 -28.5 70t-54 65.5t-86.5 50.5t-118 19q-164 0 -270.5 -100t-134.5 -271l-56 -328h379l-4 -20h-377l-117 -701h705l-4 -20h-883z" />
<glyph unicode="&#xa5;" horiz-adv-x="964" d="M205 426l4 20h338l43 246h-340l2 21h330l-316 721h23l313 -715l551 715h29l-557 -721h325l-2 -21h-338l-43 -246h340l-4 -20h-338l-71 -426h-21l72 426h-340z" />
<glyph unicode="&#xa7;" horiz-adv-x="897" d="M59 -217l21 6q46 -182 282 -182q159 0 263 94.5t104 228.5q0 152 -162 258l-196 127q-40 26 -71 51.5t-61 59.5t-46.5 76t-16.5 88q0 117 80.5 202.5t206.5 112.5q-137 104 -137 250q0 144 110 245t281 101q76 0 133 -18t89.5 -48.5t50.5 -61.5t26 -68l-21 -7 q-46 183 -282 183q-159 0 -263 -95t-104 -229q0 -154 162 -258l197 -127q86 -56 139 -121.5t53 -154.5q0 -117 -79.5 -201t-205.5 -111q138 -104 138 -252q0 -145 -111.5 -245.5t-280.5 -100.5q-76 0 -133 18t-89.5 49t-50 62t-26.5 68zM199 594q0 -82 51 -145.5t141 -120.5 l199 -127q118 14 202.5 97t84.5 196q0 79 -50.5 143.5t-142.5 124.5l-197 127q-120 -14 -204 -98t-84 -197z" />
<glyph unicode="&#xa8;" horiz-adv-x="1015" d="M524 1321q0 20 15.5 34.5t35.5 14.5q37 0 37 -37q0 -21 -14 -35t-37 -14q-17 0 -27 10.5t-10 26.5zM846 1321q0 20 15.5 34.5t35.5 14.5q37 0 37 -37q0 -21 -14 -35t-37 -14q-17 0 -27 10.5t-10 26.5z" />
<glyph unicode="&#xa9;" horiz-adv-x="1658" d="M215 606q0 175 71 334.5t188.5 272.5t274.5 180t324 67q178 0 317.5 -82t216 -226t76.5 -325q0 -175 -71 -334.5t-188.5 -272.5t-274.5 -180t-324 -67q-177 0 -316.5 82t-216.5 226t-77 325zM236 608q0 -267 165.5 -440.5t427.5 -173.5q163 0 315.5 65t266.5 175.5 t183 265.5t69 325q0 175 -74.5 315.5t-210 220t-307.5 79.5q-163 0 -316 -65.5t-267 -175.5t-183 -265.5t-69 -325.5zM569 643q0 124 56.5 230t160 170.5t230.5 64.5q170 0 270 -129l-10 -18q-11 16 -27.5 33.5t-47.5 40.5t-80.5 37.5t-108.5 14.5q-181 0 -301.5 -130 t-120.5 -312q0 -138 78.5 -226.5t216.5 -88.5q57 0 111 15t92.5 38t61.5 40.5t38 33.5l8 -19q-18 -18 -42 -36t-64 -41t-95 -37.5t-114 -14.5q-146 0 -229 94.5t-83 239.5z" />
<glyph unicode="&#xaa;" horiz-adv-x="829" d="M258 846q0 114 98 205.5t240 91.5q96 0 162 -50.5t80 -121.5l36 213q21 121 -34.5 188.5t-171.5 67.5q-138 0 -281 -80l-8 18q150 82 291 82q128 0 187 -74.5t38 -199.5l-92 -553h-17l21 149q-15 -25 -37.5 -50t-58.5 -54t-89.5 -46.5t-113.5 -17.5q-116 0 -183 66.5 t-67 165.5zM279 848q0 -88 61.5 -150.5t171.5 -62.5q126 0 220.5 85.5t94.5 192.5q0 89 -64 149t-169 60q-68 0 -128 -24.5t-100.5 -64t-63.5 -88t-23 -97.5z" />
<glyph unicode="&#xab;" horiz-adv-x="727" d="M182 592l320 366h26l-321 -366l199 -365h-23zM449 592l319 366h27l-322 -366l199 -365h-23z" />
<glyph unicode="&#xad;" horiz-adv-x="616" d="M176 602l4 21h463l-4 -21h-463z" />
<glyph unicode="&#xae;" horiz-adv-x="925" d="M238 1051q0 118 60 222.5t169.5 170t241.5 65.5q156 0 247 -99t91 -245q0 -118 -60.5 -222.5t-170 -170t-241.5 -65.5q-156 0 -246.5 99t-90.5 245zM258 1051q0 -139 86 -231.5t234 -92.5q125 0 228.5 61t161.5 161.5t58 215.5q0 139 -86 231.5t-233 92.5q-94 0 -178 -36 t-143 -96t-93.5 -140t-34.5 -166zM500 889l73 442h115q49 0 79 -29.5t30 -74.5q0 -46 -30 -85t-75 -57l68 -196h-23l-65 192q-11 -2 -23 -2h-98l-31 -190h-20zM555 1100h98q46 0 83.5 37t37.5 86q0 37 -21.5 62.5t-64.5 25.5h-98z" />
<glyph unicode="&#xaf;" horiz-adv-x="937" d="M481 1350l4 20h426l-4 -20h-426z" />
<glyph unicode="&#xb0;" horiz-adv-x="673" d="M279 1161q0 121 87 210t214 89q99 0 157 -63t58 -158q0 -121 -86 -210t-213 -89q-99 0 -158 63t-59 158zM299 1163q0 -88 53.5 -145t143.5 -57q116 0 197 81.5t81 194.5q0 89 -53 146t-143 57q-116 0 -197.5 -82t-81.5 -195z" />
<glyph unicode="&#xb2;" horiz-adv-x="655" d="M227 627l4 20q11 57 45 109.5t78.5 93.5t96 80.5t101 77.5t90 77t65 86t24.5 97q0 66 -41.5 114t-120.5 48q-131 0 -209 -130l-18 9q35 64 95.5 102.5t133.5 38.5q85 0 133 -53.5t48 -124.5q0 -54 -25 -104.5t-65.5 -91t-90.5 -80t-102 -78.5t-97 -79t-77 -89.5 t-41 -102.5h408l-5 -20h-430z" />
<glyph unicode="&#xb3;" horiz-adv-x="657" d="M225 758l21 8q15 -54 62 -94.5t130 -40.5q108 0 182 67.5t74 175.5q0 80 -51.5 128.5t-144.5 48.5h-60l4 20l314 342h-381l2 21h409l-2 -21l-315 -342h33q94 0 153.5 -49t59.5 -143q0 -121 -80 -195t-201 -74q-82 0 -134.5 40.5t-74.5 107.5z" />
<glyph unicode="&#xb4;" horiz-adv-x="1015" d="M625 1198l178 250h28l-184 -250h-22z" />
<glyph unicode="&#xb6;" horiz-adv-x="888" d="M272 1014q0 109 63 206.5t164 155.5t210 58h57l-256 -1526h-21l132 784h-25q-142 0 -233 94t-91 228zM662 -92l256 1526h20l-256 -1526h-20z" />
<glyph unicode="&#xb7;" horiz-adv-x="407" d="M266 639q0 20 15.5 34.5t35.5 14.5q17 0 27 -10.5t10 -26.5q0 -20 -14.5 -34.5t-36.5 -14.5q-15 0 -26 11t-11 26z" />
<glyph unicode="&#xb8;" horiz-adv-x="937" d="M276 -436l7 18q28 -4 53 -4q82 0 134 38.5t52 107.5q0 46 -40 74t-111 28h-23l55 192h19l-49 -174q77 0 122.5 -32.5t45.5 -85.5q0 -83 -58.5 -124.5t-148.5 -41.5z" />
<glyph unicode="&#xb9;" horiz-adv-x="444" d="M354 1372l142 62h20l-135 -807h-21l132 784l-132 -57z" />
<glyph unicode="&#xba;" horiz-adv-x="927" d="M221 969q0 207 142 349t342 142q155 0 250.5 -99.5t95.5 -256.5q0 -207 -142 -349.5t-342 -142.5q-155 0 -250.5 100t-95.5 257zM242 971q0 -151 90.5 -244.5t236.5 -93.5q188 0 324.5 134.5t136.5 334.5q0 151 -89.5 244.5t-235.5 93.5q-123 0 -228.5 -59.5t-170 -168.5 t-64.5 -241z" />
<glyph unicode="&#xbb;" horiz-adv-x="727" d="M121 227l323 367l-196 364h22l199 -366l-322 -365h-26zM387 227l324 367l-197 364h23l198 -366l-321 -365h-27z" />
<glyph unicode="&#xbc;" horiz-adv-x="1511" d="M336 -84l1102 1602h24l-1102 -1602h-24zM449 1372l141 62h20l-135 -807h-20l131 784l-131 -57zM901 180l2 21l514 606h23l-103 -606h107l-2 -21h-107l-30 -180h-21l31 180h-414zM930 201h387l96 571z" />
<glyph unicode="&#xbd;" horiz-adv-x="1527" d="M283 -84l1101 1602h25l-1102 -1602h-24zM449 1372l141 62h20l-135 -807h-20l131 784l-131 -57zM956 0l5 20q15 77 72.5 147t127.5 123t138.5 105t114.5 115t46 131q0 66 -41.5 114t-120.5 48q-131 0 -208 -129l-19 8q35 64 95.5 102.5t133.5 38.5q85 0 133 -53.5 t48 -124.5q0 -54 -25 -104.5t-65.5 -91t-90.5 -80t-102 -78.5t-97 -79t-77 -89.5t-41 -102.5h408l-5 -20h-430z" />
<glyph unicode="&#xbe;" horiz-adv-x="1648" d="M279 758l20 8q15 -54 62 -94.5t131 -40.5q108 0 182 67.5t74 175.5q0 80 -52 128.5t-145 48.5h-59l4 20l313 342h-381l2 21h410l-2 -21l-316 -342h33q94 0 153.5 -49t59.5 -143q0 -121 -80 -195t-201 -74q-82 0 -134 40.5t-74 107.5zM471 -84l1102 1602h24l-1101 -1602 h-25zM987 180l2 21l514 606h23l-103 -606h107l-2 -21h-107l-30 -180h-21l31 180h-414zM1016 201h387l96 571z" />
<glyph unicode="&#xbf;" horiz-adv-x="919" d="M96 -33q0 85 26 158t68.5 126t94 99t105.5 87.5t100.5 82.5t81 93t44.5 110l17 92h20l-16 -92q-11 -61 -45.5 -115.5t-81 -96.5t-100.5 -83.5t-105.5 -87t-93.5 -96.5t-68 -121.5t-26 -153.5q0 -126 79.5 -207t209.5 -81q243 0 364 221l16 -11q-127 -231 -380 -231 q-142 0 -226 87.5t-84 219.5zM649 1098q0 20 14.5 34.5t36.5 14.5q15 0 25 -11t10 -26q0 -20 -14.5 -34.5t-34.5 -14.5q-17 0 -27 10.5t-10 26.5z" />
<glyph unicode="&#xc0;" horiz-adv-x="1216" d="M37 0l801 1434h20l322 -1434h-25l-129 584h-637l-326 -584h-26zM401 604h619l-176 799zM764 1788h27l94 -250h-21z" />
<glyph unicode="&#xc1;" horiz-adv-x="1216" d="M37 0l801 1434h20l322 -1434h-25l-129 584h-637l-326 -584h-26zM401 604h619l-176 799zM836 1538l178 250h28l-184 -250h-22z" />
<glyph unicode="&#xc2;" horiz-adv-x="1216" d="M37 0l801 1434h20l322 -1434h-25l-129 584h-637l-326 -584h-26zM401 604h619l-176 799zM657 1534l238 242h18l156 -242h-25l-141 223l-219 -223h-27z" />
<glyph unicode="&#xc3;" horiz-adv-x="1216" d="M37 0l801 1434h20l322 -1434h-25l-129 584h-637l-326 -584h-26zM401 604h619l-176 799zM610 1593q8 61 47.5 98.5t98.5 37.5q33 0 70 -18.5t65.5 -40t65 -40t67.5 -18.5q52 0 83.5 32t39.5 82h20q-9 -60 -47.5 -97.5t-97.5 -37.5q-31 0 -68 18.5t-66 40t-66 40t-68 18.5 q-51 0 -83 -32.5t-40 -82.5h-21z" />
<glyph unicode="&#xc4;" horiz-adv-x="1218" d="M37 0l801 1434h20l322 -1434h-25l-129 584h-637l-326 -584h-26zM401 604h619l-176 799zM680 1647q0 20 15.5 34.5t35.5 14.5q37 0 37 -37q0 -21 -14 -35t-37 -14q-17 0 -27 10.5t-10 26.5zM1001 1647q0 20 15.5 34.5t36.5 14.5q37 0 37 -37q0 -21 -14.5 -35t-37.5 -14 q-17 0 -27 10.5t-10 26.5z" />
<glyph unicode="&#xc5;" horiz-adv-x="1218" d="M37 0l801 1434h20l322 -1434h-25l-129 584h-637l-326 -584h-26zM401 604h619l-176 799zM743 1632q0 70 46 118t116 48q56 0 88.5 -33.5t32.5 -87.5q0 -70 -47 -118t-117 -48q-55 0 -87 34t-32 87zM762 1634q0 -47 27 -75.5t75 -28.5q61 0 102.5 42.5t41.5 102.5 q0 47 -27.5 76t-75.5 29q-62 0 -102.5 -42.5t-40.5 -103.5z" />
<glyph unicode="&#xc6;" horiz-adv-x="1546" d="M18 0l945 1434h673l-4 -21h-594l-110 -668h524l-4 -20h-524l-117 -705h618l-4 -20h-639l99 584h-451l-385 -584h-27zM444 604h439l135 809h-45z" />
<glyph unicode="&#xc7;" horiz-adv-x="1386" d="M205 604q0 175 70 334.5t185 273t268.5 181t315.5 67.5q86 0 162 -18.5t128.5 -47.5t85 -54.5t53.5 -49.5l-15 -14q-16 17 -36 34.5t-58.5 42t-82 43t-107 31.5t-132.5 13q-155 0 -303 -64t-261.5 -173t-183 -266t-69.5 -331q0 -176 74.5 -316.5t205.5 -218t294 -77.5 q87 0 169.5 18t144 48t97.5 52.5t66 45.5l12 -15q-229 -170 -491 -170q-8 0 -24.5 1t-24.5 1l-37 -131q77 0 122.5 -32.5t45.5 -85.5q0 -83 -58.5 -124.5t-148.5 -41.5l-58 4l7 18q28 -4 53 -4q82 0 134 38.5t52 107.5q0 46 -40 74t-111 28h-23l43 151q-234 23 -379 197 t-145 430z" />
<glyph unicode="&#xc8;" horiz-adv-x="954" d="M190 0l240 1434h614l-4 -21h-594l-110 -668h524l-4 -20h-524l-117 -705h619l-5 -20h-639zM692 1788h27l94 -250h-20z" />
<glyph unicode="&#xc9;" horiz-adv-x="954" d="M190 0l240 1434h614l-4 -21h-594l-110 -668h524l-4 -20h-524l-117 -705h619l-5 -20h-639zM739 1538l179 250h28l-184 -250h-23z" />
<glyph unicode="&#xca;" horiz-adv-x="954" d="M190 0l240 1434h614l-4 -21h-594l-110 -668h524l-4 -20h-524l-117 -705h619l-5 -20h-639zM561 1534l238 242h18l156 -242h-25l-141 223l-219 -223h-27z" />
<glyph unicode="&#xcb;" horiz-adv-x="954" d="M190 0l240 1434h614l-4 -21h-594l-110 -668h524l-4 -20h-524l-117 -705h619l-5 -20h-639zM588 1647q0 20 15.5 34.5t35.5 14.5q37 0 37 -37q0 -21 -14 -35t-37 -14q-17 0 -27 10.5t-10 26.5zM909 1647q0 20 15.5 34.5t36.5 14.5q36 0 36 -37q0 -21 -14 -35t-37 -14 q-17 0 -27 10.5t-10 26.5z" />
<glyph unicode="&#xcc;" horiz-adv-x="401" d="M190 0l240 1434h21l-240 -1434h-21zM360 1788h27l94 -250h-20z" />
<glyph unicode="&#xcd;" horiz-adv-x="401" d="M190 0l240 1434h21l-240 -1434h-21zM428 1538l178 250h29l-184 -250h-23z" />
<glyph unicode="&#xce;" horiz-adv-x="401" d="M190 0l240 1434h21l-240 -1434h-21zM256 1534l238 242h18l156 -242h-25l-141 223l-219 -223h-27z" />
<glyph unicode="&#xcf;" horiz-adv-x="401" d="M190 0l240 1434h21l-240 -1434h-21zM276 1647q0 20 15.5 34.5t36.5 14.5q37 0 37 -37q0 -21 -14.5 -35t-37.5 -14q-17 0 -27 10.5t-10 26.5zM598 1647q0 20 15.5 34.5t35.5 14.5q37 0 37 -37q0 -21 -14 -35t-37 -14q-17 0 -27 10.5t-10 26.5z" />
<glyph unicode="&#xd0;" horiz-adv-x="1259" d="M186 719l4 20h125l115 695h221q296 0 470.5 -162.5t174.5 -437.5q0 -188 -66.5 -345t-183.5 -264t-279 -166t-351 -59h-226l121 719h-125zM215 20h205q147 0 278 36t236 106t182 167.5t118.5 225.5t41.5 274q0 267 -169.5 425.5t-457.5 158.5h-200l-113 -674h383l-4 -20 h-383z" />
<glyph unicode="&#xd1;" horiz-adv-x="1417" d="M190 0l240 1434h19l763 -1393l234 1393h20l-239 -1434h-19l-762 1395l-235 -1395h-21zM721 1593q8 61 47 98.5t98 37.5q33 0 70.5 -18.5t65.5 -40t65 -40t68 -18.5q51 0 82.5 32t39.5 82h21q-9 -60 -47.5 -97.5t-97.5 -37.5q-39 0 -87 29.5t-95.5 58.5t-86.5 29 q-51 0 -83 -32.5t-40 -82.5h-20z" />
<glyph unicode="&#xd2;" horiz-adv-x="1617" d="M205 604q0 176 69 335.5t183.5 273t269.5 180.5t322 67q131 0 244.5 -47.5t192.5 -131t124 -200.5t45 -252q0 -176 -69 -335.5t-183.5 -273t-269.5 -180.5t-322 -67q-131 0 -244.5 47.5t-192.5 131t-124 200.5t-45 252zM225 606q0 -173 73.5 -313t207.5 -219.5t303 -79.5 q161 0 312 65t263.5 175.5t180 266t67.5 326.5q0 174 -73.5 313.5t-206.5 219.5t-301 80q-161 0 -312.5 -65.5t-264.5 -176t-181 -266t-68 -326.5zM948 1788h27l94 -250h-20z" />
<glyph unicode="&#xd3;" horiz-adv-x="1617" d="M205 604q0 176 69 335.5t183.5 273t269.5 180.5t322 67q131 0 244.5 -47.5t192.5 -131t124 -200.5t45 -252q0 -176 -69 -335.5t-183.5 -273t-269.5 -180.5t-322 -67q-131 0 -244.5 47.5t-192.5 131t-124 200.5t-45 252zM225 606q0 -173 73.5 -313t207.5 -219.5t303 -79.5 q161 0 312 65t263.5 175.5t180 266t67.5 326.5q0 174 -73.5 313.5t-206.5 219.5t-301 80q-161 0 -312.5 -65.5t-264.5 -176t-181 -266t-68 -326.5zM1022 1538l178 250h29l-185 -250h-22z" />
<glyph unicode="&#xd4;" horiz-adv-x="1617" d="M205 604q0 176 69 335.5t183.5 273t269.5 180.5t322 67q131 0 244.5 -47.5t192.5 -131t124 -200.5t45 -252q0 -176 -69 -335.5t-183.5 -273t-269.5 -180.5t-322 -67q-131 0 -244.5 47.5t-192.5 131t-124 200.5t-45 252zM225 606q0 -173 73.5 -313t207.5 -219.5t303 -79.5 q161 0 312 65t263.5 175.5t180 266t67.5 326.5q0 174 -73.5 313.5t-206.5 219.5t-301 80q-161 0 -312.5 -65.5t-264.5 -176t-181 -266t-68 -326.5zM862 1534l238 242h18l156 -242h-25l-141 223l-219 -223h-27z" />
<glyph unicode="&#xd5;" horiz-adv-x="1617" d="M205 604q0 176 69 335.5t183.5 273t269.5 180.5t322 67q131 0 244.5 -47.5t192.5 -131t124 -200.5t45 -252q0 -176 -69 -335.5t-183.5 -273t-269.5 -180.5t-322 -67q-131 0 -244.5 47.5t-192.5 131t-124 200.5t-45 252zM225 606q0 -173 73.5 -313t207.5 -219.5t303 -79.5 q161 0 312 65t263.5 175.5t180 266t67.5 326.5q0 174 -73.5 313.5t-206.5 219.5t-301 80q-161 0 -312.5 -65.5t-264.5 -176t-181 -266t-68 -326.5zM823 1593q8 61 47.5 98.5t98.5 37.5q33 0 70 -18.5t65.5 -40t65 -40t67.5 -18.5q52 0 83.5 32t39.5 82h20 q-9 -60 -47.5 -97.5t-97.5 -37.5q-31 0 -68 18.5t-66 40t-66 40t-68 18.5q-51 0 -83 -32.5t-40 -82.5h-21z" />
<glyph unicode="&#xd6;" horiz-adv-x="1617" d="M205 604q0 176 69 335.5t183.5 273t269.5 180.5t322 67q131 0 244.5 -47.5t192.5 -131t124 -200.5t45 -252q0 -176 -69 -335.5t-183.5 -273t-269.5 -180.5t-322 -67q-131 0 -244.5 47.5t-192.5 131t-124 200.5t-45 252zM225 606q0 -173 73.5 -313t207.5 -219.5t303 -79.5 q161 0 312 65t263.5 175.5t180 266t67.5 326.5q0 174 -73.5 313.5t-206.5 219.5t-301 80q-161 0 -312.5 -65.5t-264.5 -176t-181 -266t-68 -326.5zM889 1647q0 20 15.5 34.5t35.5 14.5q37 0 37 -37q0 -21 -14 -35t-37 -14q-17 0 -27 10.5t-10 26.5zM1210 1647 q0 20 15.5 34.5t36.5 14.5q36 0 36 -37q0 -21 -14 -35t-37 -14q-17 0 -27 10.5t-10 26.5z" />
<glyph unicode="&#xd7;" horiz-adv-x="1095" d="M166 190l475 441l-326 436l17 12l323 -436l471 436l13 -14l-471 -436l325 -439l-14 -10l-326 434l-473 -436z" />
<glyph unicode="&#xd8;" horiz-adv-x="1617" d="M205 604q0 176 69 335.5t183.5 273t269.5 180.5t322 67q251 0 417 -160l144 150l14 -14l-143 -150q84 -85 129 -202.5t45 -254.5q0 -176 -69 -335.5t-183.5 -273t-269.5 -180.5t-322 -67q-254 0 -422 162l-143 -151l-17 12l146 154q-170 181 -170 454zM225 606 q0 -266 166 -440l1059 1116q-161 158 -399 158q-161 0 -312.5 -65.5t-264.5 -176t-181 -266t-68 -326.5zM406 150q159 -156 403 -156q161 0 312 65t263.5 175.5t180 266t67.5 326.5q0 131 -44 244.5t-124 196.5z" />
<glyph unicode="&#xd9;" horiz-adv-x="1351" d="M260 489l158 945h20l-157 -945q-38 -229 67 -362t326 -133t372 133t189 362l158 945h20l-158 -945q-40 -239 -193.5 -377.5t-389.5 -138.5q-229 0 -340.5 140t-71.5 376zM838 1788h26l94 -250h-20z" />
<glyph unicode="&#xda;" horiz-adv-x="1351" d="M260 489l158 945h20l-157 -945q-38 -229 67 -362t326 -133t372 133t189 362l158 945h20l-158 -945q-40 -239 -193.5 -377.5t-389.5 -138.5q-229 0 -340.5 140t-71.5 376zM885 1538l178 250h29l-185 -250h-22z" />
<glyph unicode="&#xdb;" horiz-adv-x="1351" d="M260 489l158 945h20l-157 -945q-38 -229 67 -362t326 -133t372 133t189 362l158 945h20l-158 -945q-40 -239 -193.5 -377.5t-389.5 -138.5q-229 0 -340.5 140t-71.5 376zM725 1534l238 242h18l156 -242h-25l-141 223l-219 -223h-27z" />
<glyph unicode="&#xdc;" horiz-adv-x="1351" d="M260 489l158 945h20l-157 -945q-38 -229 67 -362t326 -133t372 133t189 362l158 945h20l-158 -945q-40 -239 -193.5 -377.5t-389.5 -138.5q-229 0 -340.5 140t-71.5 376zM754 1647q0 20 15.5 34.5t35.5 14.5q37 0 37 -37q0 -21 -14 -35t-37 -14q-17 0 -27 10.5t-10 26.5z M1075 1647q0 20 15.5 34.5t35.5 14.5q37 0 37 -37q0 -21 -14 -35t-37 -14q-17 0 -27 10.5t-10 26.5z" />
<glyph unicode="&#xdd;" horiz-adv-x="964" d="M266 1434h21l315 -715l553 715h25l-570 -740l-116 -694h-21l117 694zM711 1538l178 250h29l-185 -250h-22z" />
<glyph unicode="&#xde;" horiz-adv-x="956" d="M190 0l240 1434h21l-52 -312h279q157 0 248.5 -81.5t91.5 -229.5q0 -204 -133 -322t-334 -118h-279l-61 -371h-21zM276 391h279q194 0 318 115.5t124 302.5q0 137 -85 215t-238 78h-279z" />
<glyph unicode="&#xdf;" horiz-adv-x="1062" d="M172 0l193 1145q53 321 364 321q126 0 196 -68.5t70 -164.5q0 -65 -22 -119t-53.5 -87.5t-73 -59.5t-75.5 -38t-66 -18q159 -29 257.5 -125.5t98.5 -250.5q0 -111 -38.5 -203t-100 -152t-142.5 -102t-163 -60t-164 -18l4 20q74 0 150.5 16t155 54.5t139.5 95t99.5 146.5 t38.5 200q0 92 -39.5 164.5t-104.5 115.5t-140.5 65t-153.5 22l4 21q47 0 96 10.5t98 35t87 59t62 87.5t24 117q0 86 -62 151.5t-182 65.5q-294 0 -344 -301l-192 -1145h-21z" />
<glyph unicode="&#xe0;" horiz-adv-x="995" d="M133 274q0 107 59 197.5t163 143.5t229 53q121 0 211.5 -63t109.5 -163l45 269q30 173 -48.5 262.5t-233.5 89.5q-182 0 -367 -115l-10 19q190 116 381 116q164 0 246.5 -95t52.5 -277l-119 -711h-21l33 201q-64 -106 -168 -167t-229 -61q-158 0 -246 86.5t-88 214.5z M154 279q0 -118 82 -201.5t233 -83.5q114 0 212.5 56t154 143t55.5 180q0 122 -82.5 198t-228.5 76q-120 0 -219 -53t-153 -137t-54 -178zM616 1448h27l94 -250h-20z" />
<glyph unicode="&#xe1;" horiz-adv-x="995" d="M133 274q0 107 59 197.5t163 143.5t229 53q121 0 211.5 -63t109.5 -163l45 269q30 173 -48.5 262.5t-233.5 89.5q-182 0 -367 -115l-10 19q190 116 381 116q164 0 246.5 -95t52.5 -277l-119 -711h-21l33 201q-64 -106 -168 -167t-229 -61q-158 0 -246 86.5t-88 214.5z M154 279q0 -118 82 -201.5t233 -83.5q114 0 212.5 56t154 143t55.5 180q0 122 -82.5 198t-228.5 76q-120 0 -219 -53t-153 -137t-54 -178zM633 1198l178 250h29l-185 -250h-22z" />
<glyph unicode="&#xe2;" horiz-adv-x="995" d="M133 274q0 107 59 197.5t163 143.5t229 53q121 0 211.5 -63t109.5 -163l45 269q30 173 -48.5 262.5t-233.5 89.5q-182 0 -367 -115l-10 19q190 116 381 116q164 0 246.5 -95t52.5 -277l-119 -711h-21l33 201q-64 -106 -168 -167t-229 -61q-158 0 -246 86.5t-88 214.5z M154 279q0 -118 82 -201.5t233 -83.5q114 0 212.5 56t154 143t55.5 180q0 122 -82.5 198t-228.5 76q-120 0 -219 -53t-153 -137t-54 -178zM487 1214l238 242h18l156 -242h-25l-141 224l-219 -224h-27z" />
<glyph unicode="&#xe3;" horiz-adv-x="995" d="M133 274q0 107 59 197.5t163 143.5t229 53q121 0 211.5 -63t109.5 -163l45 269q30 173 -48.5 262.5t-233.5 89.5q-182 0 -367 -115l-10 19q190 116 381 116q164 0 246.5 -95t52.5 -277l-119 -711h-21l33 201q-64 -106 -168 -167t-229 -61q-158 0 -246 86.5t-88 214.5z M154 279q0 -118 82 -201.5t233 -83.5q114 0 212.5 56t154 143t55.5 180q0 122 -82.5 198t-228.5 76q-120 0 -219 -53t-153 -137t-54 -178zM442 1272q8 61 47.5 98t98.5 37q33 0 70 -18.5t65.5 -40t65 -40t67.5 -18.5q51 0 83 32.5t40 82.5h20q-9 -60 -47.5 -97.5 t-97.5 -37.5q-39 0 -86.5 29l-95 58t-86.5 29q-52 0 -83.5 -32t-39.5 -82h-21z" />
<glyph unicode="&#xe4;" horiz-adv-x="995" d="M133 274q0 107 59 197.5t163 143.5t229 53q121 0 211.5 -63t109.5 -163l45 269q30 173 -48.5 262.5t-233.5 89.5q-182 0 -367 -115l-10 19q190 116 381 116q164 0 246.5 -95t52.5 -277l-119 -711h-21l33 201q-64 -106 -168 -167t-229 -61q-158 0 -246 86.5t-88 214.5z M154 279q0 -118 82 -201.5t233 -83.5q114 0 212.5 56t154 143t55.5 180q0 122 -82.5 198t-228.5 76q-120 0 -219 -53t-153 -137t-54 -178zM510 1321q0 20 15.5 34.5t35.5 14.5q37 0 37 -37q0 -21 -14 -35t-37 -14q-17 0 -27 10.5t-10 26.5zM831 1321q0 20 15.5 34.5 t36.5 14.5q37 0 37 -37q0 -21 -14.5 -35t-37.5 -14q-17 0 -27 10.5t-10 26.5z" />
<glyph unicode="&#xe5;" horiz-adv-x="995" d="M133 274q0 107 59 197.5t163 143.5t229 53q121 0 211.5 -63t109.5 -163l45 269q30 173 -48.5 262.5t-233.5 89.5q-182 0 -367 -115l-10 19q190 116 381 116q164 0 246.5 -95t52.5 -277l-119 -711h-21l33 201q-64 -106 -168 -167t-229 -61q-158 0 -246 86.5t-88 214.5z M154 279q0 -118 82 -201.5t233 -83.5q114 0 212.5 56t154 143t55.5 180q0 122 -82.5 198t-228.5 76q-120 0 -219 -53t-153 -137t-54 -178zM567 1309q0 70 46 118t116 48q56 0 88.5 -33.5t32.5 -87.5q0 -70 -47 -118t-117 -48q-55 0 -87 34t-32 87zM586 1311q0 -47 27 -76 t75 -29q61 0 102 42.5t41 103.5q0 47 -27 75.5t-75 28.5q-62 0 -102.5 -42t-40.5 -103z" />
<glyph unicode="&#xe6;" horiz-adv-x="1916" d="M133 274q0 107 59 197.5t163 143.5t229 53q123 0 214.5 -61t106.5 -163l45 267q30 174 -47.5 263t-234.5 89q-177 0 -369 -115l-8 19q190 116 381 116q165 0 249.5 -100.5t49.5 -271.5q76 174 226 273t316 99q144 0 247 -69t145 -185.5t18 -257.5l-6 -34h-975l-4 -27 q-18 -117 8 -215.5t84.5 -163.5t142.5 -101t183 -36q267 0 446 217l19 -10q-175 -228 -467 -228q-182 0 -305 103t-136 289l-6 -35q-26 -147 -148.5 -252t-291.5 -105q-158 0 -246 86.5t-88 214.5zM154 279q0 -118 82 -201.5t233 -83.5q114 0 212.5 56.5t154 145.5t55.5 185 q0 120 -82.5 193t-228.5 73q-120 0 -219 -53t-153 -137t-54 -178zM944 557h957q20 121 -3.5 219t-80.5 159.5t-136 94.5t-172 33q-90 0 -181 -35.5t-169 -99.5t-136 -160.5t-79 -210.5z" />
<glyph unicode="&#xe7;" horiz-adv-x="1105" d="M170 444q0 168 84.5 315.5t229 235.5t311.5 88q82 0 151 -20.5t114 -54.5t68 -58.5t41 -50.5l-18 -14q-10 17 -25 35.5t-46.5 45.5t-69.5 47.5t-96 35t-123 14.5q-116 0 -226 -49t-192.5 -131t-132.5 -196t-50 -238q0 -195 118 -325t302 -130q80 0 155.5 21t129 53 t85.5 57t52 47l15 -14q-26 -26 -58.5 -51t-88.5 -58.5t-133 -54.5t-159 -21h-26l-37 -129q77 0 122.5 -33t45.5 -87q0 -79 -61.5 -121.5t-149.5 -42.5l-58 4l7 18q32 -4 55 -4q79 0 133.5 39t54.5 104q0 47 -40 76t-109 29h-23l41 149q-179 15 -286 147t-107 322z" />
<glyph unicode="&#xe8;" horiz-adv-x="1175" d="M170 438q0 143 53.5 267t140 205t193.5 127t215 46q144 0 247 -69t145 -185.5t18 -257.5l-6 -34h-975q-36 -246 79.5 -394.5t333.5 -148.5q269 0 449 219l16 -12q-175 -228 -467 -228q-201 0 -321.5 122t-120.5 343zM205 557h954q20 121 -3.5 219t-80 159.5t-135.5 94.5 t-172 33t-186 -37t-170 -102t-133 -161t-74 -206zM715 1448h26l95 -250h-21z" />
<glyph unicode="&#xe9;" horiz-adv-x="1175" d="M170 438q0 143 53.5 267t140 205t193.5 127t215 46q144 0 247 -69t145 -185.5t18 -257.5l-6 -34h-975q-36 -246 79.5 -394.5t333.5 -148.5q269 0 449 219l16 -12q-175 -228 -467 -228q-201 0 -321.5 122t-120.5 343zM205 557h954q20 121 -3.5 219t-80 159.5t-135.5 94.5 t-172 33t-186 -37t-170 -102t-133 -161t-74 -206zM729 1198l178 250h29l-184 -250h-23z" />
<glyph unicode="&#xea;" horiz-adv-x="1175" d="M170 438q0 143 53.5 267t140 205t193.5 127t215 46q144 0 247 -69t145 -185.5t18 -257.5l-6 -34h-975q-36 -246 79.5 -394.5t333.5 -148.5q269 0 449 219l16 -12q-175 -228 -467 -228q-201 0 -321.5 122t-120.5 343zM205 557h954q20 121 -3.5 219t-80 159.5t-135.5 94.5 t-172 33t-186 -37t-170 -102t-133 -161t-74 -206zM602 1214l238 242h18l156 -242h-25l-141 224l-219 -224h-27z" />
<glyph unicode="&#xeb;" horiz-adv-x="1175" d="M170 438q0 143 53.5 267t140 205t193.5 127t215 46q144 0 247 -69t145 -185.5t18 -257.5l-6 -34h-975q-36 -246 79.5 -394.5t333.5 -148.5q269 0 449 219l16 -12q-175 -228 -467 -228q-201 0 -321.5 122t-120.5 343zM205 557h954q20 121 -3.5 219t-80 159.5t-135.5 94.5 t-172 33t-186 -37t-170 -102t-133 -161t-74 -206zM610 1321q0 20 15.5 34.5t36.5 14.5q36 0 36 -37q0 -21 -14 -35t-37 -14q-17 0 -27 10.5t-10 26.5zM932 1321q0 20 15.5 34.5t35.5 14.5q37 0 37 -37q0 -21 -14 -35t-37 -14q-17 0 -27 10.5t-10 26.5z" />
<glyph unicode="&#xec;" d="M172 0l176 1057h21l-176 -1057h-21zM291 1448h26l95 -250h-21z" />
<glyph unicode="&#xed;" d="M172 0l176 1057h21l-176 -1057h-21zM354 1198l178 250h29l-184 -250h-23z" />
<glyph unicode="&#xee;" d="M172 0l176 1057h21l-176 -1057h-21zM178 1214l238 242h18l156 -242h-25l-141 224l-219 -224h-27z" />
<glyph unicode="&#xef;" d="M172 0l176 1057h21l-176 -1057h-21zM201 1321q0 20 15.5 34.5t35.5 14.5q37 0 37 -37q0 -21 -14 -35t-37 -14q-17 0 -27 10.5t-10 26.5zM522 1321q0 20 15.5 34.5t35.5 14.5q37 0 37 -37q0 -21 -14 -35t-37 -14q-17 0 -27 10.5t-10 26.5z" />
<glyph unicode="&#xf0;" horiz-adv-x="1196" d="M166 420q0 120 45.5 231t124.5 194t193.5 133t244.5 50q86 0 157.5 -27t115.5 -67t76 -91t46 -92.5t19 -78.5q-10 182 -99.5 341t-232.5 271l-352 -139l-4 18l340 133q-116 86 -260 156l14 14q139 -65 268 -161l234 94l4 -17l-223 -90q153 -121 240 -288.5t87 -366.5 q0 -187 -75 -337t-217.5 -238.5t-327.5 -88.5q-189 0 -303.5 127.5t-114.5 319.5zM186 424q0 -120 47 -217t139 -155t214 -58q133 0 247 51t188 134.5t115.5 187t41.5 211.5q0 119 -48 216t-141.5 155.5t-216.5 58.5q-166 0 -302 -82t-210 -215.5t-74 -286.5z" />
<glyph unicode="&#xf1;" horiz-adv-x="1099" d="M172 0l176 1057h21l-41 -254q16 49 50.5 96.5t84.5 89.5t122.5 68t153.5 26q79 0 143.5 -24.5t109 -71t62.5 -118.5t3 -162l-119 -707h-20l118 707q29 172 -58.5 264t-242.5 92q-161 0 -280.5 -105t-149.5 -288l-112 -670h-21zM496 1272q8 61 47 98t98 37q33 0 70 -18.5 t65.5 -40t65 -40t67.5 -18.5q51 0 83 32.5t40 82.5h21q-9 -60 -48 -97.5t-98 -37.5q-39 0 -86.5 29l-95 58t-86.5 29q-52 0 -83.5 -32t-39.5 -82h-20z" />
<glyph unicode="&#xf2;" horiz-adv-x="1234" d="M170 440q0 175 84 323t229 234t316 86q201 0 322.5 -132.5t121.5 -336.5q0 -130 -50 -248.5t-134.5 -204.5t-201.5 -137t-245 -51q-199 0 -320.5 134t-121.5 333zM190 446q0 -195 115 -323.5t309 -128.5q123 0 235.5 50t193.5 133t129.5 197t48.5 236q0 201 -115.5 327 t-310.5 126q-164 0 -304 -85t-220.5 -227t-80.5 -305zM733 1448h27l94 -250h-20z" />
<glyph unicode="&#xf3;" horiz-adv-x="1234" d="M170 440q0 175 84 323t229 234t316 86q201 0 322.5 -132.5t121.5 -336.5q0 -130 -50 -248.5t-134.5 -204.5t-201.5 -137t-245 -51q-199 0 -320.5 134t-121.5 333zM190 446q0 -195 115 -323.5t309 -128.5q123 0 235.5 50t193.5 133t129.5 197t48.5 236q0 201 -115.5 327 t-310.5 126q-164 0 -304 -85t-220.5 -227t-80.5 -305zM723 1198l178 250h29l-185 -250h-22z" />
<glyph unicode="&#xf4;" horiz-adv-x="1234" d="M170 440q0 175 84 323t229 234t316 86q201 0 322.5 -132.5t121.5 -336.5q0 -130 -50 -248.5t-134.5 -204.5t-201.5 -137t-245 -51q-199 0 -320.5 134t-121.5 333zM190 446q0 -195 115 -323.5t309 -128.5q123 0 235.5 50t193.5 133t129.5 197t48.5 236q0 201 -115.5 327 t-310.5 126q-164 0 -304 -85t-220.5 -227t-80.5 -305zM621 1214l237 242h19l155 -242h-24l-142 224l-219 -224h-26z" />
<glyph unicode="&#xf5;" horiz-adv-x="1234" d="M170 440q0 175 84 323t229 234t316 86q201 0 322.5 -132.5t121.5 -336.5q0 -130 -50 -248.5t-134.5 -204.5t-201.5 -137t-245 -51q-199 0 -320.5 134t-121.5 333zM190 446q0 -195 115 -323.5t309 -128.5q123 0 235.5 50t193.5 133t129.5 197t48.5 236q0 201 -115.5 327 t-310.5 126q-164 0 -304 -85t-220.5 -227t-80.5 -305zM571 1272q8 61 47.5 98t98.5 37q33 0 70 -18.5t65.5 -40t65 -40t67.5 -18.5q51 0 83 32.5t40 82.5h20q-9 -60 -47.5 -97.5t-97.5 -37.5q-39 0 -86.5 29l-95 58t-86.5 29q-52 0 -83.5 -32t-39.5 -82h-21z" />
<glyph unicode="&#xf6;" horiz-adv-x="1234" d="M170 440q0 175 84 323t229 234t316 86q201 0 322.5 -132.5t121.5 -336.5q0 -130 -50 -248.5t-134.5 -204.5t-201.5 -137t-245 -51q-199 0 -320.5 134t-121.5 333zM190 446q0 -195 115 -323.5t309 -128.5q123 0 235.5 50t193.5 133t129.5 197t48.5 236q0 201 -115.5 327 t-310.5 126q-164 0 -304 -85t-220.5 -227t-80.5 -305zM635 1321q0 20 15.5 34.5t35.5 14.5q37 0 37 -37q0 -21 -14 -35t-37 -14q-17 0 -27 10.5t-10 26.5zM956 1321q0 20 15.5 34.5t36.5 14.5q36 0 36 -37q0 -21 -14 -35t-37 -14q-17 0 -27 10.5t-10 26.5z" />
<glyph unicode="&#xf7;" horiz-adv-x="1124" d="M195 627l4 20h944l-4 -20h-944zM565 313q0 24 18 42t42 18q20 0 31.5 -12t11.5 -31q0 -24 -18 -42t-42 -18q-20 0 -31.5 12t-11.5 31zM670 944q0 25 18 42.5t43 17.5q19 0 31 -12t12 -31q0 -25 -18 -42.5t-43 -17.5q-19 0 -31 12t-12 31z" />
<glyph unicode="&#xf8;" horiz-adv-x="1234" d="M170 440q0 175 84 323t229 234t316 86q188 0 309 -118l98 102l15 -12l-101 -105q123 -132 123 -336q0 -130 -50 -248.5t-134.5 -204.5t-201.5 -137t-245 -51q-185 0 -307 119l-100 -106l-15 14l101 106q-121 130 -121 334zM190 446q0 -198 115 -325l789 827 q-118 115 -299 115q-164 0 -304 -85t-220.5 -227t-80.5 -305zM319 106q112 -112 295 -112q123 0 235.5 50t193.5 133t129.5 197t48.5 236q0 202 -115 326z" />
<glyph unicode="&#xf9;" horiz-adv-x="1081" d="M221 350l119 707h20l-118 -707q-29 -171 59 -263.5t242 -92.5q157 0 278.5 105.5t151.5 287.5l112 670h21l-178 -1057h-21l43 254q-16 -49 -50.5 -96.5t-84.5 -90t-122.5 -68.5t-153.5 -26q-78 0 -142 24.5t-109 71t-63.5 119t-3.5 162.5zM668 1448h26l94 -250h-20z" />
<glyph unicode="&#xfa;" horiz-adv-x="1081" d="M221 350l119 707h20l-118 -707q-29 -171 59 -263.5t242 -92.5q157 0 278.5 105.5t151.5 287.5l112 670h21l-178 -1057h-21l43 254q-16 -49 -50.5 -96.5t-84.5 -90t-122.5 -68.5t-153.5 -26q-78 0 -142 24.5t-109 71t-63.5 119t-3.5 162.5zM705 1198l178 250h28l-184 -250 h-22z" />
<glyph unicode="&#xfb;" horiz-adv-x="1081" d="M221 350l119 707h20l-118 -707q-29 -171 59 -263.5t242 -92.5q157 0 278.5 105.5t151.5 287.5l112 670h21l-178 -1057h-21l43 254q-16 -49 -50.5 -96.5t-84.5 -90t-122.5 -68.5t-153.5 -26q-78 0 -142 24.5t-109 71t-63.5 119t-3.5 162.5zM539 1214l237 242h19l155 -242 h-24l-142 224l-219 -224h-26z" />
<glyph unicode="&#xfc;" horiz-adv-x="1081" d="M221 350l119 707h20l-118 -707q-29 -171 59 -263.5t242 -92.5q157 0 278.5 105.5t151.5 287.5l112 670h21l-178 -1057h-21l43 254q-16 -49 -50.5 -96.5t-84.5 -90t-122.5 -68.5t-153.5 -26q-78 0 -142 24.5t-109 71t-63.5 119t-3.5 162.5zM563 1321q0 20 15.5 34.5 t35.5 14.5q37 0 37 -37q0 -21 -14 -35t-37 -14q-17 0 -27 10.5t-10 26.5zM885 1321q0 20 15.5 34.5t35.5 14.5q37 0 37 -37q0 -21 -14 -35t-37 -14q-17 0 -27 10.5t-10 26.5z" />
<glyph unicode="&#xfd;" horiz-adv-x="964" d="M190 1057h25l274 -1032l611 1032h26l-841 -1424h-25l213 365zM649 1198l178 250h29l-184 -250h-23z" />
<glyph unicode="&#xfe;" horiz-adv-x="1234" d="M109 -383l311 1864h20l-129 -781q21 60 63 122t106 123t157.5 99.5t198.5 38.5q184 0 295.5 -127t111.5 -329q0 -183 -80 -333.5t-216.5 -235.5t-297.5 -85q-94 0 -170.5 34t-123.5 90.5t-73 123.5t-30 139l-123 -743h-20zM268 420q0 -200 107 -313t278 -113 q113 0 217 48t181.5 131t123.5 200.5t46 249.5q0 197 -108 318.5t-282 121.5q-155 0 -286 -92.5t-204 -240t-73 -310.5z" />
<glyph unicode="&#xff;" horiz-adv-x="964" d="M190 1057h25l274 -1032l611 1032h26l-841 -1424h-25l213 365zM508 1321q0 20 15.5 34.5t35.5 14.5q37 0 37 -37q0 -21 -14 -35t-37 -14q-17 0 -27 10.5t-10 26.5zM829 1321q0 20 15.5 34.5t36.5 14.5q37 0 37 -37q0 -21 -14.5 -35t-37.5 -14q-17 0 -27 10.5t-10 26.5z " />
<glyph unicode="&#x100;" horiz-adv-x="1218" d="M37 0l801 1434h20l322 -1434h-25l-129 584h-637l-326 -584h-26zM401 604h619l-176 799zM666 1597l4 21h426l-4 -21h-426z" />
<glyph unicode="&#x101;" horiz-adv-x="995" d="M133 274q0 107 59 197.5t163 143.5t229 53q121 0 211.5 -63t109.5 -163l45 269q30 173 -48.5 262.5t-233.5 89.5q-182 0 -367 -115l-10 19q190 116 381 116q164 0 246.5 -95t52.5 -277l-119 -711h-21l33 201q-64 -106 -168 -167t-229 -61q-158 0 -246 86.5t-88 214.5z M154 279q0 -118 82 -201.5t233 -83.5q114 0 212.5 56t154 143t55.5 180q0 122 -82.5 198t-228.5 76q-120 0 -219 -53t-153 -137t-54 -178zM508 1350l4 20h426l-4 -20h-426z" />
<glyph unicode="&#x102;" horiz-adv-x="1216" d="M37 0l801 1434h20l322 -1434h-25l-129 584h-637l-326 -584h-26zM401 604h619l-176 799zM711 1761h18q-13 -79 21.5 -127.5t123.5 -48.5q88 0 138 49.5t65 126.5h19q-14 -88 -72 -141t-154 -53t-134.5 52.5t-24.5 141.5z" />
<glyph unicode="&#x103;" horiz-adv-x="995" d="M133 274q0 107 59 197.5t163 143.5t229 53q121 0 211.5 -63t109.5 -163l45 269q30 173 -48.5 262.5t-233.5 89.5q-182 0 -367 -115l-10 19q190 116 381 116q164 0 246.5 -95t52.5 -277l-119 -711h-21l33 201q-64 -106 -168 -167t-229 -61q-158 0 -246 86.5t-88 214.5z M154 279q0 -118 82 -201.5t233 -83.5q114 0 212.5 56t154 143t55.5 180q0 122 -82.5 198t-228.5 76q-120 0 -219 -53t-153 -137t-54 -178zM539 1434h18q-13 -79 21.5 -128t123.5 -49q87 0 137.5 50t65.5 127h19q-14 -89 -72 -142t-154 -53t-134.5 53t-24.5 142z" />
<glyph unicode="&#x104;" horiz-adv-x="1218" d="M37 0l801 1434h20l322 -1434q-74 -26 -135.5 -87t-61.5 -142q0 -45 27 -76t62 -43t73 -12l-4 -21q-69 0 -123.5 38.5t-54.5 111.5q0 86 60.5 149t127.5 90l-125 576h-637l-326 -584h-26zM401 604h619l-176 799z" />
<glyph unicode="&#x105;" horiz-adv-x="995" d="M133 274q0 107 59 197.5t163 143.5t229 53q121 0 211.5 -63t109.5 -163l45 269q30 173 -48.5 262.5t-233.5 89.5q-182 0 -367 -115l-10 19q190 116 381 116q164 0 246.5 -95t52.5 -277l-119 -711q-74 -26 -135.5 -87t-61.5 -142q0 -45 27 -76t62 -43t73 -12l-4 -21 q-69 0 -123.5 38.5t-54.5 111.5q0 47 20.5 89.5t53 72t64 49t61.5 30.5l30 191q-64 -106 -168 -167t-229 -61q-158 0 -246 86.5t-88 214.5zM154 279q0 -118 82 -201.5t233 -83.5q114 0 212.5 56t154 143t55.5 180q0 122 -82.5 198t-228.5 76q-120 0 -219 -53t-153 -137 t-54 -178z" />
<glyph unicode="&#x106;" horiz-adv-x="1386" d="M205 604q0 175 70 334.5t185 273t268.5 181t315.5 67.5q86 0 162 -18.5t128.5 -47.5t85 -54.5t53.5 -49.5l-15 -14q-16 17 -36 34.5t-58.5 42t-82 43t-107 31.5t-132.5 13q-155 0 -303 -64t-261.5 -173t-183 -266t-69.5 -331q0 -176 74.5 -316.5t205.5 -218t294 -77.5 q87 0 169.5 18t144 48t97.5 52.5t66 45.5l12 -15q-229 -170 -491 -170q-172 0 -307.5 82t-210 225.5t-74.5 323.5zM977 1538l178 250h29l-185 -250h-22z" />
<glyph unicode="&#x107;" horiz-adv-x="1105" d="M170 444q0 128 50 246t133.5 204t199 137.5t240.5 51.5q81 0 150 -20.5t114 -54.5t69 -58.5t41 -50.5l-16 -14q-9 16 -25 35t-48 45.5t-70 47.5t-95.5 35.5t-121.5 14.5q-116 0 -226 -49t-192.5 -131t-132.5 -196t-50 -238q0 -195 118 -325t302 -130q80 0 155.5 21 t129 53t85.5 57t52 47l15 -14q-26 -26 -58.5 -51t-88.5 -58.5t-133 -54.5t-159 -21q-197 0 -317.5 135t-120.5 336zM786 1198l179 250h28l-184 -250h-23z" />
<glyph unicode="&#x108;" horiz-adv-x="1386" d="M205 604q0 175 70 334.5t185 273t268.5 181t315.5 67.5q86 0 162 -18.5t128.5 -47.5t85 -54.5t53.5 -49.5l-15 -14q-16 17 -36 34.5t-58.5 42t-82 43t-107 31.5t-132.5 13q-155 0 -303 -64t-261.5 -173t-183 -266t-69.5 -331q0 -176 74.5 -316.5t205.5 -218t294 -77.5 q87 0 169.5 18t144 48t97.5 52.5t66 45.5l12 -15q-229 -170 -491 -170q-172 0 -307.5 82t-210 225.5t-74.5 323.5zM866 1534l238 242h18l156 -242h-25l-141 223l-219 -223h-27z" />
<glyph unicode="&#x109;" horiz-adv-x="1105" d="M170 444q0 128 50 246t133.5 204t199 137.5t240.5 51.5q81 0 150 -20.5t114 -54.5t69 -58.5t41 -50.5l-16 -14q-9 16 -25 35t-48 45.5t-70 47.5t-95.5 35.5t-121.5 14.5q-116 0 -226 -49t-192.5 -131t-132.5 -196t-50 -238q0 -195 118 -325t302 -130q80 0 155.5 21 t129 53t85.5 57t52 47l15 -14q-26 -26 -58.5 -51t-88.5 -58.5t-133 -54.5t-159 -21q-197 0 -317.5 135t-120.5 336zM618 1214l238 242h18l156 -242h-24l-142 224l-219 -224h-27z" />
<glyph unicode="&#x10a;" horiz-adv-x="1386" d="M205 604q0 175 70 334.5t185 273t268.5 181t315.5 67.5q86 0 162 -18.5t128.5 -47.5t85 -54.5t53.5 -49.5l-15 -14q-16 17 -36 34.5t-58.5 42t-82 43t-107 31.5t-132.5 13q-155 0 -303 -64t-261.5 -173t-183 -266t-69.5 -331q0 -176 74.5 -316.5t205.5 -218t294 -77.5 q87 0 169.5 18t144 48t97.5 52.5t66 45.5l12 -15q-229 -170 -491 -170q-172 0 -307.5 82t-210 225.5t-74.5 323.5zM1040 1661q0 20 15.5 33.5t34.5 13.5q16 0 25 -10t9 -25q0 -19 -14 -33t-35 -14q-15 0 -25 10.5t-10 24.5z" />
<glyph unicode="&#x10b;" horiz-adv-x="1107" d="M170 444q0 128 50 246t133.5 204t199 137.5t240.5 51.5q81 0 150 -20.5t114 -54.5t69 -58.5t41 -50.5l-16 -14q-9 16 -25 35t-48 45.5t-70 47.5t-95.5 35.5t-121.5 14.5q-116 0 -226 -49t-192.5 -131t-132.5 -196t-50 -238q0 -195 118 -325t302 -130q80 0 155.5 21 t129 53t85.5 57t52 47l15 -14q-26 -26 -58.5 -51t-88.5 -58.5t-133 -54.5t-159 -21q-197 0 -317.5 135t-120.5 336zM795 1348q0 20 15 33.5t34 13.5q16 0 25.5 -10.5t9.5 -24.5q0 -19 -14.5 -33t-35.5 -14q-15 0 -24.5 10.5t-9.5 24.5z" />
<glyph unicode="&#x10c;" horiz-adv-x="1386" d="M205 604q0 175 70 334.5t185 273t268.5 181t315.5 67.5q86 0 162 -18.5t128.5 -47.5t85 -54.5t53.5 -49.5l-15 -14q-16 17 -36 34.5t-58.5 42t-82 43t-107 31.5t-132.5 13q-155 0 -303 -64t-261.5 -173t-183 -266t-69.5 -331q0 -176 74.5 -316.5t205.5 -218t294 -77.5 q87 0 169.5 18t144 48t97.5 52.5t66 45.5l12 -15q-229 -170 -491 -170q-172 0 -307.5 82t-210 225.5t-74.5 323.5zM891 1776h24l142 -224l219 224h24l-235 -242h-21z" />
<glyph unicode="&#x10d;" horiz-adv-x="1105" d="M170 444q0 128 50 246t133.5 204t199 137.5t240.5 51.5q81 0 150 -20.5t114 -54.5t69 -58.5t41 -50.5l-16 -14q-9 16 -25 35t-48 45.5t-70 47.5t-95.5 35.5t-121.5 14.5q-116 0 -226 -49t-192.5 -131t-132.5 -196t-50 -238q0 -195 118 -325t302 -130q80 0 155.5 21 t129 53t85.5 57t52 47l15 -14q-26 -26 -58.5 -51t-88.5 -58.5t-133 -54.5t-159 -21q-197 0 -317.5 135t-120.5 336zM639 1456h25l141 -223l219 223h25l-236 -242h-20z" />
<glyph unicode="&#x10e;" horiz-adv-x="1259" d="M190 0l240 1434h221q294 0 469.5 -165t175.5 -435q0 -188 -66.5 -345t-183.5 -264t-279 -166t-351 -59h-226zM215 20h205q183 0 340.5 57t271 160.5t178 256t64.5 335.5q0 267 -169.5 425.5t-457.5 158.5h-201zM629 1776h24l142 -224l219 224h24l-235 -242h-21z" />
<glyph unicode="&#x10f;" horiz-adv-x="1232" d="M168 430q0 137 47 259t126.5 208t188.5 136t230 50q101 0 180 -37.5t124 -96.5t68 -123.5t25 -127.5l131 783h21l-248 -1481h-21l60 360q-16 -47 -45 -96.5t-76.5 -102.5t-104.5 -94t-135.5 -67.5t-163.5 -26.5q-189 0 -298 127t-109 330zM188 434q0 -198 107.5 -319 t282.5 -121q116 0 222 55t180 145t117.5 207t43.5 238q0 200 -106 312t-277 112q-113 0 -217.5 -48t-182 -131t-124 -200.5t-46.5 -249.5zM1372 1186l70 295h20l-73 -295h-17z" />
<glyph unicode="&#x110;" horiz-adv-x="1259" d="M186 719l4 20h125l115 695h221q296 0 470.5 -162.5t174.5 -437.5q0 -188 -66.5 -345t-183.5 -264t-279 -166t-351 -59h-226l121 719h-125zM215 20h205q147 0 278 36t236 106t182 167.5t118.5 225.5t41.5 274q0 267 -169.5 425.5t-457.5 158.5h-200l-113 -674h383l-4 -20 h-383z" />
<glyph unicode="&#x111;" horiz-adv-x="1232" d="M168 430q0 137 47 259t126.5 208t188.5 136t230 50q101 0 180 -37.5t124 -96.5t68 -123.5t25 -127.5l94 564h-270l4 20h268l35 199h21l-35 -199h156l-5 -20h-153l-211 -1262h-21l60 360q-16 -47 -45 -96.5t-76.5 -102.5t-104.5 -94t-135.5 -67.5t-163.5 -26.5 q-189 0 -298 127t-109 330zM188 434q0 -198 107.5 -319t282.5 -121q116 0 222 55t180 145t117.5 207t43.5 238q0 200 -106 312t-277 112q-113 0 -217.5 -48t-182 -131t-124 -200.5t-46.5 -249.5z" />
<glyph unicode="&#x112;" horiz-adv-x="954" d="M190 0l240 1434h614l-4 -21h-594l-110 -668h524l-4 -20h-524l-117 -705h619l-5 -20h-639zM571 1597l4 21h426l-4 -21h-426z" />
<glyph unicode="&#x113;" horiz-adv-x="1175" d="M170 438q0 143 53.5 267t140 205t193.5 127t215 46q144 0 247 -69t145 -185.5t18 -257.5l-6 -34h-975q-36 -246 79.5 -394.5t333.5 -148.5q269 0 449 219l16 -12q-175 -228 -467 -228q-201 0 -321.5 122t-120.5 343zM205 557h954q20 121 -3.5 219t-80 159.5t-135.5 94.5 t-172 33t-186 -37t-170 -102t-133 -161t-74 -206zM610 1350l4 20h426l-4 -20h-426z" />
<glyph unicode="&#x114;" horiz-adv-x="954" d="M190 0l240 1434h614l-4 -21h-594l-110 -668h524l-4 -20h-524l-117 -705h619l-5 -20h-639zM616 1761h19q-13 -79 21.5 -127.5t123.5 -48.5q88 0 138 49.5t65 126.5h18q-14 -89 -71.5 -141.5t-153.5 -52.5t-135 52.5t-25 141.5z" />
<glyph unicode="&#x115;" horiz-adv-x="1175" d="M170 438q0 143 53.5 267t140 205t193.5 127t215 46q144 0 247 -69t145 -185.5t18 -257.5l-6 -34h-975q-36 -246 79.5 -394.5t333.5 -148.5q269 0 449 219l16 -12q-175 -228 -467 -228q-201 0 -321.5 122t-120.5 343zM205 557h954q20 121 -3.5 219t-80 159.5t-135.5 94.5 t-172 33t-186 -37t-170 -102t-133 -161t-74 -206zM649 1434h19q-13 -79 21.5 -128t123.5 -49q87 0 137.5 50t65.5 127h18q-14 -89 -71.5 -142t-153.5 -53t-135 53t-25 142z" />
<glyph unicode="&#x116;" horiz-adv-x="954" d="M190 0l240 1434h614l-4 -21h-594l-110 -668h524l-4 -20h-524l-117 -705h619l-5 -20h-639zM758 1661q0 20 15 33.5t34 13.5q16 0 25.5 -10.5t9.5 -24.5q0 -19 -14 -33t-35 -14q-15 0 -25 10.5t-10 24.5z" />
<glyph unicode="&#x117;" horiz-adv-x="1175" d="M170 438q0 143 53.5 267t140 205t193.5 127t215 46q144 0 247 -69t145 -185.5t18 -257.5l-6 -34h-975q-36 -246 79.5 -394.5t333.5 -148.5q269 0 449 219l16 -12q-175 -228 -467 -228q-201 0 -321.5 122t-120.5 343zM205 557h954q20 121 -3.5 219t-80 159.5t-135.5 94.5 t-172 33t-186 -37t-170 -102t-133 -161t-74 -206zM772 1348q0 20 15 33.5t34 13.5q16 0 25.5 -10.5t9.5 -24.5q0 -19 -14 -33t-35 -14q-15 0 -25 10.5t-10 24.5z" />
<glyph unicode="&#x118;" horiz-adv-x="954" d="M190 0l240 1434h614l-4 -21h-594l-110 -668h524l-4 -20h-524l-117 -705h619l-5 -20q-80 -26 -150.5 -87t-70.5 -142q0 -45 27 -76t62 -43t73 -12l-4 -21q-69 0 -123.5 38.5t-54.5 111.5q0 46 20.5 87t53 69t61.5 46t57 29h-590z" />
<glyph unicode="&#x119;" horiz-adv-x="1175" d="M170 438q0 143 53.5 267t140 205t193.5 127t215 46q144 0 247 -69t145 -185.5t18 -257.5l-6 -34h-975q-36 -246 79.5 -394.5t333.5 -148.5q269 0 449 219l16 -12q-122 -159 -303 -207q-70 -31 -123 -90t-53 -133q0 -45 27 -76t62 -43t73 -12l-4 -21q-69 0 -123.5 38.5 t-54.5 111.5q0 70 41.5 125.5t95.5 87.5q-74 -9 -105 -9q-201 0 -321.5 122t-120.5 343zM205 557h954q20 121 -3.5 219t-80 159.5t-135.5 94.5t-172 33t-186 -37t-170 -102t-133 -161t-74 -206z" />
<glyph unicode="&#x11a;" horiz-adv-x="954" d="M190 0l240 1434h614l-4 -21h-594l-110 -668h524l-4 -20h-524l-117 -705h619l-5 -20h-639zM602 1776h25l141 -224l219 224h25l-236 -242h-20z" />
<glyph unicode="&#x11b;" horiz-adv-x="1175" d="M170 438q0 143 53.5 267t140 205t193.5 127t215 46q144 0 247 -69t145 -185.5t18 -257.5l-6 -34h-975q-36 -246 79.5 -394.5t333.5 -148.5q269 0 449 219l16 -12q-175 -228 -467 -228q-201 0 -321.5 122t-120.5 343zM205 557h954q20 121 -3.5 219t-80 159.5t-135.5 94.5 t-172 33t-186 -37t-170 -102t-133 -161t-74 -206zM637 1456h25l141 -223l219 223h25l-236 -242h-20z" />
<glyph unicode="&#x11c;" horiz-adv-x="1480" d="M205 604q0 177 69 337t183.5 273t268.5 179.5t318 66.5q87 0 164.5 -18.5t130 -47.5t85 -54.5t53.5 -49.5l-15 -14q-16 17 -36 34.5t-59 42t-83 43t-108 31.5t-134 13q-155 0 -303 -64t-261.5 -173t-183 -266t-69.5 -331q0 -176 74.5 -316.5t205.5 -218t294 -77.5 q98 0 192.5 24.5t166.5 63.5t113.5 67.5t74.5 57.5l71 430h-383l4 20h404l-78 -462q-269 -222 -567 -222q-169 0 -305 82t-211.5 226t-75.5 323zM862 1534l238 242h18l156 -242h-25l-141 223l-219 -223h-27z" />
<glyph unicode="&#x11d;" horiz-adv-x="1222" d="M166 430q0 181 78 331t214 236t300 86q84 0 152.5 -27t112.5 -70t74.5 -98.5t43 -109.5t12.5 -106l61 385h21l-156 -934q-85 -514 -567 -514q-94 0 -186.5 31t-157.5 79l12 17q68 -48 157.5 -77.5t178.5 -29.5q103 0 188.5 26t158 82t122.5 152t72 228l39 227 q-23 -62 -67.5 -124t-109 -119t-155.5 -92.5t-191 -35.5q-185 0 -296 127.5t-111 329.5zM186 436q0 -197 106 -319.5t283 -122.5q108 0 210 48.5t179.5 131.5t125 203.5t47.5 255.5q0 189 -101 309.5t-280 120.5q-112 0 -216 -47t-182 -129t-125 -200t-47 -251zM606 1214 l238 242h18l156 -242h-25l-141 224l-219 -224h-27z" />
<glyph unicode="&#x11e;" horiz-adv-x="1480" d="M205 604q0 177 69 337t183.5 273t268.5 179.5t318 66.5q87 0 164.5 -18.5t130 -47.5t85 -54.5t53.5 -49.5l-15 -14q-16 17 -36 34.5t-59 42t-83 43t-108 31.5t-134 13q-155 0 -303 -64t-261.5 -173t-183 -266t-69.5 -331q0 -176 74.5 -316.5t205.5 -218t294 -77.5 q98 0 192.5 24.5t166.5 63.5t113.5 67.5t74.5 57.5l71 430h-383l4 20h404l-78 -462q-269 -222 -567 -222q-169 0 -305 82t-211.5 226t-75.5 323zM885 1761h18q-13 -79 22 -127.5t124 -48.5q87 0 137 49.5t65 126.5h19q-14 -88 -72 -141t-154 -53t-134.5 52.5t-24.5 141.5z " />
<glyph unicode="&#x11f;" horiz-adv-x="1222" d="M166 430q0 181 78 331t214 236t300 86q84 0 152.5 -27t112.5 -70t74.5 -98.5t43 -109.5t12.5 -106l61 385h21l-156 -934q-85 -514 -567 -514q-94 0 -186.5 31t-157.5 79l12 17q68 -48 157.5 -77.5t178.5 -29.5q103 0 188.5 26t158 82t122.5 152t72 228l39 227 q-23 -62 -67.5 -124t-109 -119t-155.5 -92.5t-191 -35.5q-185 0 -296 127.5t-111 329.5zM186 436q0 -197 106 -319.5t283 -122.5q108 0 210 48.5t179.5 131.5t125 203.5t47.5 255.5q0 189 -101 309.5t-280 120.5q-112 0 -216 -47t-182 -129t-125 -200t-47 -251zM657 1434h19 q-13 -79 21.5 -128t123.5 -49q87 0 137.5 50t65.5 127h18q-14 -89 -71.5 -142t-153.5 -53t-135 53t-25 142z" />
<glyph unicode="&#x120;" horiz-adv-x="1480" d="M205 604q0 177 69 337t183.5 273t268.5 179.5t318 66.5q87 0 164.5 -18.5t130 -47.5t85 -54.5t53.5 -49.5l-15 -14q-16 17 -36 34.5t-59 42t-83 43t-108 31.5t-134 13q-155 0 -303 -64t-261.5 -173t-183 -266t-69.5 -331q0 -176 74.5 -316.5t205.5 -218t294 -77.5 q98 0 192.5 24.5t166.5 63.5t113.5 67.5t74.5 57.5l71 430h-383l4 20h404l-78 -462q-269 -222 -567 -222q-169 0 -305 82t-211.5 226t-75.5 323zM1036 1661q0 20 15 33.5t34 13.5q16 0 25.5 -10.5t9.5 -24.5q0 -19 -14 -33t-35 -14q-15 0 -25 10.5t-10 24.5z" />
<glyph unicode="&#x121;" horiz-adv-x="1222" d="M166 430q0 181 78 331t214 236t300 86q84 0 152.5 -27t112.5 -70t74.5 -98.5t43 -109.5t12.5 -106l61 385h21l-156 -934q-85 -514 -567 -514q-94 0 -186.5 31t-157.5 79l12 17q68 -48 157.5 -77.5t178.5 -29.5q103 0 188.5 26t158 82t122.5 152t72 228l39 227 q-23 -62 -67.5 -124t-109 -119t-155.5 -92.5t-191 -35.5q-185 0 -296 127.5t-111 329.5zM186 436q0 -197 106 -319.5t283 -122.5q108 0 210 48.5t179.5 131.5t125 203.5t47.5 255.5q0 189 -101 309.5t-280 120.5q-112 0 -216 -47t-182 -129t-125 -200t-47 -251zM793 1348 q0 20 15 33.5t34 13.5q16 0 25.5 -10.5t9.5 -24.5q0 -19 -14.5 -33t-35.5 -14q-15 0 -24.5 10.5t-9.5 24.5z" />
<glyph unicode="&#x122;" horiz-adv-x="1480" d="M205 604q0 177 69 337t183.5 273t268.5 179.5t318 66.5q87 0 164.5 -18.5t130 -47.5t85 -54.5t53.5 -49.5l-15 -14q-16 17 -36 34.5t-59 42t-83 43t-108 31.5t-134 13q-155 0 -303 -64t-261.5 -173t-183 -266t-69.5 -331q0 -176 74.5 -316.5t205.5 -218t294 -77.5 q98 0 192.5 24.5t166.5 63.5t113.5 67.5t74.5 57.5l71 430h-383l4 20h404l-78 -462q-269 -222 -567 -222q-169 0 -305 82t-211.5 226t-75.5 323zM719 -279q24 19 49.5 53t32.5 66q-8 -4 -25 -4t-26 10.5t-9 26.5q0 20 15 34.5t35 14.5q36 0 36 -41q0 -89 -96 -172z" />
<glyph unicode="&#x123;" horiz-adv-x="1222" d="M166 430q0 181 78 331t214 236t300 86q84 0 152.5 -27t112.5 -70t74.5 -98.5t43 -109.5t12.5 -106l61 385h21l-156 -934q-85 -514 -567 -514q-94 0 -186.5 31t-157.5 79l12 17q68 -48 157.5 -77.5t178.5 -29.5q103 0 188.5 26t158 82t122.5 152t72 228l39 227 q-23 -62 -67.5 -124t-109 -119t-155.5 -92.5t-191 -35.5q-185 0 -296 127.5t-111 329.5zM186 436q0 -197 106 -319.5t283 -122.5q108 0 210 48.5t179.5 131.5t125 203.5t47.5 255.5q0 189 -101 309.5t-280 120.5q-112 0 -216 -47t-182 -129t-125 -200t-47 -251zM758 1292 q0 89 96 172l12 -12q-24 -19 -49.5 -53t-32.5 -66q8 4 25 4t26 -10.5t9 -26.5q0 -20 -14.5 -34.5t-34.5 -14.5q-37 0 -37 41z" />
<glyph unicode="&#x124;" horiz-adv-x="1380" d="M190 0l240 1434h21l-115 -686h958l115 686h21l-240 -1434h-21l121 727h-958l-121 -727h-21zM750 1534l237 242h19l155 -242h-24l-142 223l-219 -223h-26z" />
<glyph unicode="&#x125;" horiz-adv-x="1099" d="M172 0l248 1481h20l-112 -678q16 49 50 96.5t84 89.5t122 68t153 26q107 0 185.5 -42t116.5 -128.5t18 -205.5l-119 -707h-20l118 707q29 172 -58.5 264t-242.5 92q-161 0 -280.5 -105t-149.5 -288l-112 -670h-21zM600 1509l238 242h18l156 -242h-25l-141 224l-219 -224 h-27z" />
<glyph unicode="&#x126;" horiz-adv-x="1380" d="M190 0l181 1081h-133l4 21h133l55 332h21l-56 -332h959l55 332h21l-56 -332h135l-4 -21h-135l-180 -1081h-21l121 727h-958l-121 -727h-21zM336 748h958l56 333h-959z" />
<glyph unicode="&#x127;" horiz-adv-x="1128" d="M201 0l209 1249h-158l4 21h158l35 211h20l-35 -211h260l-4 -21h-260l-74 -446q16 49 50.5 96.5t85 89.5t123 68t153.5 26q106 0 184 -42t115.5 -128.5t17.5 -205.5l-118 -707h-21l119 707q29 171 -59 263.5t-242 92.5q-161 0 -280.5 -105t-149.5 -288l-113 -670h-20z" />
<glyph unicode="&#x128;" horiz-adv-x="401" d="M190 0l240 1434h21l-240 -1434h-21zM205 1593q8 61 47 98.5t98 37.5q33 0 70 -18.5t65.5 -40t65 -40t67.5 -18.5q52 0 83.5 32t39.5 82h21q-9 -60 -48 -97.5t-98 -37.5q-31 0 -68 18.5t-66 40t-66 40t-68 18.5q-51 0 -83 -32.5t-40 -82.5h-20z" />
<glyph unicode="&#x129;" d="M139 1272q8 61 47.5 98t98.5 37q33 0 70 -18.5t65.5 -40t65 -40t67.5 -18.5q51 0 83 32.5t40 82.5h20q-9 -60 -47.5 -97.5t-97.5 -37.5q-39 0 -86.5 29l-95 58t-86.5 29q-52 0 -83.5 -32t-39.5 -82h-21zM172 0l176 1057h21l-176 -1057h-21z" />
<glyph unicode="&#x12a;" horiz-adv-x="401" d="M190 0l240 1434h21l-240 -1434h-21zM260 1597l4 21h426l-4 -21h-426z" />
<glyph unicode="&#x12b;" d="M172 0l176 1057h21l-176 -1057h-21zM201 1350l4 20h426l-4 -20h-426z" />
<glyph unicode="&#x12c;" horiz-adv-x="401" d="M190 0l240 1434h21l-240 -1434h-21zM305 1761h19q-13 -79 21.5 -127.5t123.5 -48.5q88 0 138 49.5t65 126.5h18q-14 -89 -71.5 -141.5t-153.5 -52.5t-135 52.5t-25 141.5z" />
<glyph unicode="&#x12d;" d="M172 0l176 1057h21l-176 -1057h-21zM231 1434h19q-13 -79 21.5 -128t123.5 -49q87 0 137.5 50t65.5 127h18q-14 -89 -71.5 -142t-153.5 -53t-135 53t-25 142z" />
<glyph unicode="&#x12e;" horiz-adv-x="401" d="M-2 -231q0 49 20.5 91.5t54 72t62 47t58.5 30.5l237 1424h21l-240 -1436q-74 -26 -133.5 -86t-59.5 -141q0 -45 27 -76t62 -43t73 -12l-4 -21q-69 0 -123.5 38.5t-54.5 111.5z" />
<glyph unicode="&#x12f;" d="M-23 -231q0 87 60 148.5t137 92.5l176 1047h21l-178 -1057q-74 -26 -134.5 -87t-60.5 -142q0 -45 27 -76t62 -43t73 -12l-4 -21q-69 0 -124 38.5t-55 111.5zM369 1348q0 20 14 33.5t33 13.5q16 0 25.5 -10.5t9.5 -24.5q0 -19 -14.5 -33t-35.5 -14q-13 0 -22.5 10.5 t-9.5 24.5z" />
<glyph unicode="&#x130;" horiz-adv-x="401" d="M190 0l240 1434h21l-240 -1434h-21zM438 1661q0 20 15 33.5t34 13.5q16 0 25.5 -10.5t9.5 -24.5q0 -19 -14 -33t-35 -14q-15 0 -25 10.5t-10 24.5z" />
<glyph unicode="&#x131;" d="M172 0l176 1057h21l-176 -1057h-21z" />
<glyph unicode="&#x132;" horiz-adv-x="1036" d="M190 0l240 1434h21l-240 -1434h-21zM453 10l8 21q66 -23 139 -23q225 0 274 277l193 1149h20l-192 -1149q-24 -140 -93.5 -218.5t-205.5 -78.5q-84 0 -143 22z" />
<glyph unicode="&#x133;" horiz-adv-x="729" d="M172 0l176 1057h21l-176 -1057h-21zM213 -387l4 20q27 -2 43 -2q108 0 173 72t91 231l189 1123h20l-188 -1123q-29 -171 -99.5 -247t-189.5 -76zM367 1348q0 20 15 33.5t34 13.5q16 0 25.5 -10.5t9.5 -24.5q0 -19 -14.5 -33t-35.5 -14q-15 0 -24.5 10.5t-9.5 24.5z M731 1348q0 20 15 33.5t34 13.5q16 0 25.5 -10.5t9.5 -24.5q0 -19 -14.5 -33t-34.5 -14q-15 0 -25 10.5t-10 24.5z" />
<glyph unicode="&#x134;" horiz-adv-x="636" d="M53 10l8 21q66 -23 140 -23q225 0 274 277l193 1149h20l-192 -1149q-24 -140 -93.5 -218.5t-205.5 -78.5q-85 0 -144 22zM487 1534l238 242h18l156 -242h-25l-141 223l-219 -223h-27z" />
<glyph unicode="&#x135;" d="M-152 -387l5 20q27 -2 43 -2q216 0 264 303l188 1123h21l-189 -1123q-28 -173 -99 -248t-190 -75zM178 1214l238 242h18l156 -242h-25l-141 224l-219 -224h-27z" />
<glyph unicode="&#x136;" horiz-adv-x="1036" d="M190 0l240 1434h21l-113 -680l821 680h33l-832 -689l627 -745h-29l-622 741l-125 -741h-21zM496 -279q24 19 49.5 53t32.5 66q-8 -4 -25 -4t-26 10.5t-9 26.5q0 20 14.5 34.5t34.5 14.5q37 0 37 -41q0 -89 -96 -172z" />
<glyph unicode="&#x137;" horiz-adv-x="845" d="M172 0l248 1481h20l-149 -891l651 467h33l-658 -473l510 -584h-28l-508 582l-98 -582h-21zM397 -279q24 19 49.5 53t32.5 66q-8 -4 -24 -4q-17 0 -26 10.5t-9 26.5q0 20 14.5 34.5t34.5 14.5q37 0 37 -41q0 -89 -96 -172z" />
<glyph unicode="&#x138;" horiz-adv-x="845" d="M172 0l178 1057h21l-80 -467l653 467h33l-662 -475l512 -582h-28l-508 582l-98 -582h-21z" />
<glyph unicode="&#x139;" horiz-adv-x="905" d="M190 0l240 1434h21l-236 -1414h619l-5 -20h-639zM438 1538l178 250h29l-184 -250h-23z" />
<glyph unicode="&#x13a;" d="M172 0l248 1481h20l-247 -1481h-21zM408 1536l178 250h28l-184 -250h-22z" />
<glyph unicode="&#x13b;" horiz-adv-x="905" d="M190 0l240 1434h21l-236 -1414h619l-5 -20h-639zM442 -279q24 19 49.5 53t32.5 66q-8 -4 -24 -4q-17 0 -26 10.5t-9 26.5q0 20 14.5 34.5t34.5 14.5q37 0 37 -41q0 -89 -96 -172z" />
<glyph unicode="&#x13c;" d="M96 -279q24 19 49.5 53t32.5 66q-8 -4 -24 -4q-17 0 -26 10.5t-9 26.5q0 20 14.5 34.5t34.5 14.5q37 0 37 -41q0 -89 -96 -172zM172 0l248 1481h20l-247 -1481h-21z" />
<glyph unicode="&#x13d;" horiz-adv-x="905" d="M190 0l240 1434h21l-236 -1414h619l-5 -20h-639zM778 1139l70 295h20l-73 -295h-17z" />
<glyph unicode="&#x13e;" d="M172 0l248 1481h20l-247 -1481h-21zM506 1186l69 295h21l-74 -295h-16z" />
<glyph unicode="&#x13f;" horiz-adv-x="905" d="M190 0l240 1434h21l-236 -1414h619l-5 -20h-639zM645 737q0 20 15.5 34.5t35.5 14.5q17 0 27 -10.5t10 -25.5q0 -20 -14.5 -35t-36.5 -15q-15 0 -26 11t-11 26z" />
<glyph unicode="&#x140;" horiz-adv-x="481" d="M172 0l248 1481h20l-247 -1481h-21zM403 737q0 20 15.5 34.5t36.5 14.5q17 0 27 -10.5t10 -25.5q0 -20 -15 -35t-37 -15q-15 0 -26 11t-11 26z" />
<glyph unicode="&#x141;" horiz-adv-x="905" d="M166 616l4 23l489 283l-4 -23zM190 0l240 1434h21l-236 -1414h619l-5 -20h-639z" />
<glyph unicode="&#x142;" horiz-adv-x="466" d="M182 696l4 25l176 110l109 650h18l-106 -637l180 112l-4 -24l-180 -113l-137 -819h-19l135 807z" />
<glyph unicode="&#x143;" horiz-adv-x="1417" d="M190 0l240 1434h19l763 -1393l234 1393h20l-239 -1434h-19l-762 1395l-235 -1395h-21zM934 1538l178 250h29l-185 -250h-22z" />
<glyph unicode="&#x144;" horiz-adv-x="1099" d="M172 0l176 1057h21l-41 -254q16 49 50.5 96.5t84.5 89.5t122.5 68t153.5 26q79 0 143.5 -24.5t109 -71t62.5 -118.5t3 -162l-119 -707h-20l118 707q29 172 -58.5 264t-242.5 92q-161 0 -280.5 -105t-149.5 -288l-112 -670h-21zM709 1198l178 250h28l-184 -250h-22z" />
<glyph unicode="&#x145;" horiz-adv-x="1417" d="M190 0l240 1434h19l763 -1393l234 1393h20l-239 -1434h-19l-762 1395l-235 -1395h-21zM618 -279q24 19 49.5 53t32.5 66q-8 -4 -24 -4q-17 0 -26 10.5t-9 26.5q0 20 14.5 34.5t34.5 14.5q37 0 37 -41q0 -89 -96 -172z" />
<glyph unicode="&#x146;" horiz-adv-x="1099" d="M172 0l176 1057h21l-41 -254q16 49 50.5 96.5t84.5 89.5t122.5 68t153.5 26q79 0 143.5 -24.5t109 -71t62.5 -118.5t3 -162l-119 -707h-20l118 707q29 172 -58.5 264t-242.5 92q-161 0 -280.5 -105t-149.5 -288l-112 -670h-21zM457 -279q24 19 49.5 53t32.5 66 q-8 -4 -25 -4t-26 10.5t-9 26.5q0 20 14.5 34.5t34.5 14.5q37 0 37 -41q0 -89 -96 -172z" />
<glyph unicode="&#x147;" horiz-adv-x="1417" d="M190 0l240 1434h19l763 -1393l234 1393h20l-239 -1434h-19l-762 1395l-235 -1395h-21zM811 1776h25l141 -224l219 224h25l-236 -242h-20z" />
<glyph unicode="&#x148;" horiz-adv-x="1099" d="M172 0l176 1057h21l-41 -254q16 49 50.5 96.5t84.5 89.5t122.5 68t153.5 26q79 0 143.5 -24.5t109 -71t62.5 -118.5t3 -162l-119 -707h-20l118 707q29 172 -58.5 264t-242.5 92q-161 0 -280.5 -105t-149.5 -288l-112 -670h-21zM590 1456h24l142 -223l219 223h24 l-235 -242h-21z" />
<glyph unicode="&#x149;" horiz-adv-x="1019" d="M100 0l176 1057h21l-41 -254q16 49 50.5 96.5t85 89.5t123 68t153.5 26q106 0 184 -42t115.5 -128.5t17.5 -205.5l-119 -707h-20l119 707q29 172 -58.5 264t-242.5 92q-161 0 -281 -105t-150 -288l-112 -670h-21zM236 1235q23 19 48.5 53t32.5 66q-8 -4 -24 -4 q-17 0 -26 10t-9 26q0 20 14.5 35t34.5 15q37 0 37 -41q0 -89 -96 -172z" />
<glyph unicode="&#x14a;" horiz-adv-x="1417" d="M190 0l240 1434h19l763 -1395l234 1395h20l-239 -1434l-15 -90q-51 -297 -299 -297q-83 0 -143 20l8 23q60 -21 140 -21q114 0 183 76t89 199l16 92l-760 1393l-235 -1395h-21z" />
<glyph unicode="&#x14b;" horiz-adv-x="1099" d="M172 0l176 1057h21l-41 -254q16 49 50.5 96.5t84.5 89.5t122.5 68t153.5 26q79 0 143.5 -24.5t109 -71t62.5 -118.5t3 -162l-129 -773q-29 -170 -100.5 -246.5t-190.5 -76.5l-43 2l4 20q27 -2 43 -2q108 0 173.5 72t92.5 231l129 773q29 171 -59 263.5t-242 92.5 q-161 0 -280.5 -105t-149.5 -288l-112 -670h-21z" />
<glyph unicode="&#x14c;" horiz-adv-x="1617" d="M205 604q0 176 69 335.5t183.5 273t269.5 180.5t322 67q131 0 244.5 -47.5t192.5 -131t124 -200.5t45 -252q0 -176 -69 -335.5t-183.5 -273t-269.5 -180.5t-322 -67q-131 0 -244.5 47.5t-192.5 131t-124 200.5t-45 252zM225 606q0 -173 73.5 -313t207.5 -219.5t303 -79.5 q161 0 312 65t263.5 175.5t180 266t67.5 326.5q0 174 -73.5 313.5t-206.5 219.5t-301 80q-161 0 -312.5 -65.5t-264.5 -176t-181 -266t-68 -326.5zM868 1597l4 21h426l-4 -21h-426z" />
<glyph unicode="&#x14d;" horiz-adv-x="1234" d="M170 440q0 175 84 323t229 234t316 86q201 0 322.5 -132.5t121.5 -336.5q0 -130 -50 -248.5t-134.5 -204.5t-201.5 -137t-245 -51q-199 0 -320.5 134t-121.5 333zM190 446q0 -195 115 -323.5t309 -128.5q123 0 235.5 50t193.5 133t129.5 197t48.5 236q0 201 -115.5 327 t-310.5 126q-164 0 -304 -85t-220.5 -227t-80.5 -305zM639 1350l4 20h426l-4 -20h-426z" />
<glyph unicode="&#x14e;" horiz-adv-x="1617" d="M205 604q0 176 69 335.5t183.5 273t269.5 180.5t322 67q131 0 244.5 -47.5t192.5 -131t124 -200.5t45 -252q0 -176 -69 -335.5t-183.5 -273t-269.5 -180.5t-322 -67q-131 0 -244.5 47.5t-192.5 131t-124 200.5t-45 252zM225 606q0 -173 73.5 -313t207.5 -219.5t303 -79.5 q161 0 312 65t263.5 175.5t180 266t67.5 326.5q0 174 -73.5 313.5t-206.5 219.5t-301 80q-161 0 -312.5 -65.5t-264.5 -176t-181 -266t-68 -326.5zM928 1761h18q-13 -79 22 -127.5t124 -48.5q87 0 137 49.5t65 126.5h19q-14 -88 -72 -141t-154 -53t-134.5 52.5t-24.5 141.5z " />
<glyph unicode="&#x14f;" horiz-adv-x="1234" d="M170 440q0 175 84 323t229 234t316 86q201 0 322.5 -132.5t121.5 -336.5q0 -130 -50 -248.5t-134.5 -204.5t-201.5 -137t-245 -51q-199 0 -320.5 134t-121.5 333zM190 446q0 -195 115 -323.5t309 -128.5q123 0 235.5 50t193.5 133t129.5 197t48.5 236q0 201 -115.5 327 t-310.5 126q-164 0 -304 -85t-220.5 -227t-80.5 -305zM664 1434h18q-13 -79 21.5 -128t123.5 -49q87 0 137.5 50t65.5 127h19q-14 -89 -72 -142t-154 -53t-134.5 53t-24.5 142z" />
<glyph unicode="&#x150;" horiz-adv-x="1617" d="M205 604q0 176 69 335.5t183.5 273t269.5 180.5t322 67q131 0 244.5 -47.5t192.5 -131t124 -200.5t45 -252q0 -176 -69 -335.5t-183.5 -273t-269.5 -180.5t-322 -67q-131 0 -244.5 47.5t-192.5 131t-124 200.5t-45 252zM225 606q0 -173 73.5 -313t207.5 -219.5t303 -79.5 q161 0 312 65t263.5 175.5t180 266t67.5 326.5q0 174 -73.5 313.5t-206.5 219.5t-301 80q-161 0 -312.5 -65.5t-264.5 -176t-181 -266t-68 -326.5zM930 1538l176 250h27l-183 -250h-20zM1133 1538l176 250h26l-182 -250h-20z" />
<glyph unicode="&#x151;" horiz-adv-x="1234" d="M170 440q0 175 84 323t229 234t316 86q201 0 322.5 -132.5t121.5 -336.5q0 -130 -50 -248.5t-134.5 -204.5t-201.5 -137t-245 -51q-199 0 -320.5 134t-121.5 333zM190 446q0 -195 115 -323.5t309 -128.5q123 0 235.5 50t193.5 133t129.5 197t48.5 236q0 201 -115.5 327 t-310.5 126q-164 0 -304 -85t-220.5 -227t-80.5 -305zM696 1198l176 250h27l-182 -250h-21zM899 1198l176 250h27l-182 -250h-21z" />
<glyph unicode="&#x152;" horiz-adv-x="2183" d="M205 604q0 176 69 335.5t183.5 273t269.5 180.5t322 67q90 0 186 -26h1038l-2 -21h-979q167 -70 265 -226t98 -358q0 -30 -4 -84h438l-4 -20h-436q-30 -245 -185.5 -435.5t-380.5 -269.5h979l-4 -20h-1042q-111 -27 -205 -27q-131 0 -244.5 47.5t-192.5 131t-124 200.5 t-45 252zM225 606q0 -173 73.5 -313t207.5 -219.5t303 -79.5q161 0 312 65t263.5 175.5t180 266t67.5 326.5q0 174 -73.5 313.5t-206.5 219.5t-301 80q-161 0 -312.5 -65.5t-264.5 -176t-181 -266t-68 -326.5z" />
<glyph unicode="&#x153;" horiz-adv-x="2213" d="M170 440q0 175 84 323t229 234t316 86q192 0 311.5 -121.5t130.5 -312.5q43 132 134 232t204 151t231 51q144 0 247 -69t145 -185.5t18 -257.5l-6 -34h-975q-36 -246 80 -394.5t334 -148.5q268 0 448 219l17 -12q-175 -228 -467 -228q-194 0 -314 114.5t-127 322.5 q-64 -192 -229 -314.5t-369 -122.5q-199 0 -320.5 134t-121.5 333zM190 446q0 -195 115 -323.5t309 -128.5q123 0 236 50t194.5 133t130 197t48.5 236q0 201 -116.5 327t-311.5 126q-164 0 -304 -85t-220.5 -227t-80.5 -305zM1243 557h955q20 121 -3.5 219t-80.5 159.5 t-136 94.5t-172 33t-186 -37t-170 -102t-133 -161t-74 -206z" />
<glyph unicode="&#x154;" horiz-adv-x="1026" d="M190 0l240 1434h281q164 0 256 -87.5t92 -222.5q0 -76 -22.5 -140.5t-57.5 -108.5t-83.5 -78t-96 -53.5t-99.5 -30.5l265 -713h-25l-260 709q-57 -11 -123 -11h-229l-117 -698h-21zM332 719h229q212 0 344.5 111.5t132.5 289.5q0 130 -87 211.5t-244 81.5h-261zM731 1538 l178 250h29l-184 -250h-23z" />
<glyph unicode="&#x155;" horiz-adv-x="581" d="M172 0l176 1057h21l-43 -266q16 47 47 94.5t78.5 93.5t117.5 75t150 29l-4 -20q-150 0 -266.5 -114.5t-147.5 -295.5l-108 -653h-21zM498 1198l178 250h29l-185 -250h-22z" />
<glyph unicode="&#x156;" horiz-adv-x="1026" d="M190 0l240 1434h281q164 0 256 -87.5t92 -222.5q0 -76 -22.5 -140.5t-57.5 -108.5t-83.5 -78t-96 -53.5t-99.5 -30.5l265 -713h-25l-260 709q-57 -11 -123 -11h-229l-117 -698h-21zM332 719h229q212 0 344.5 111.5t132.5 289.5q0 130 -87 211.5t-244 81.5h-261zM444 -279 q24 19 49.5 53t32.5 66q-8 -4 -24 -4q-17 0 -26 10.5t-9 26.5q0 20 14.5 34.5t34.5 14.5q37 0 37 -41q0 -89 -96 -172z" />
<glyph unicode="&#x157;" horiz-adv-x="581" d="M100 -279q24 19 49.5 53t32.5 66q-8 -4 -24 -4q-17 0 -26 10.5t-9 26.5q0 20 14.5 34.5t34.5 14.5q37 0 37 -41q0 -89 -96 -172zM172 0l176 1057h21l-43 -266q16 47 47 94.5t78.5 93.5t117.5 75t150 29l-4 -20q-150 0 -266.5 -114.5t-147.5 -295.5l-108 -653h-21z" />
<glyph unicode="&#x158;" horiz-adv-x="1026" d="M190 0l240 1434h281q164 0 256 -87.5t92 -222.5q0 -76 -22.5 -140.5t-57.5 -108.5t-83.5 -78t-96 -53.5t-99.5 -30.5l265 -713h-25l-260 709q-57 -11 -123 -11h-229l-117 -698h-21zM332 719h229q212 0 344.5 111.5t132.5 289.5q0 130 -87 211.5t-244 81.5h-261zM584 1776 h24l142 -224l219 224h24l-235 -242h-21z" />
<glyph unicode="&#x159;" horiz-adv-x="581" d="M172 0l176 1057h21l-43 -266q16 47 47 94.5t78.5 93.5t117.5 75t150 29l-4 -20q-150 0 -266.5 -114.5t-147.5 -295.5l-108 -653h-21zM379 1456h24l142 -223l219 223h24l-235 -242h-21z" />
<glyph unicode="&#x15a;" horiz-adv-x="1001" d="M145 260l21 6q57 -272 344 -272q180 0 304 108t124 289q0 80 -33.5 143t-87 104t-118.5 76.5t-130 70t-118.5 74t-87 99t-33.5 134.5q0 157 116.5 262.5t303.5 105.5q73 0 131.5 -21t94.5 -56t56.5 -69.5t32.5 -72.5l-21 -8q-11 36 -30 68t-52.5 65.5t-90 53.5t-128.5 20 q-174 0 -283.5 -101t-109.5 -245q0 -56 21 -103t56 -81t80.5 -63.5t96 -55.5t101 -53t96 -60t80.5 -71.5t56 -93t21 -120.5q0 -189 -126 -304.5t-324 -115.5q-300 0 -363 287zM725 1538l178 250h29l-184 -250h-23z" />
<glyph unicode="&#x15b;" horiz-adv-x="813" d="M135 221l21 6q12 -102 74.5 -167.5t189.5 -65.5q136 0 233 84.5t97 218.5q0 51 -20.5 92.5t-54.5 68.5t-77.5 52.5t-88.5 44.5t-88.5 44t-77.5 51t-54.5 66t-20.5 89q0 127 94 202.5t228 75.5q219 0 254 -202l-21 -9q-33 191 -235 191q-123 0 -210 -71t-87 -187 q0 -53 26.5 -93.5t68.5 -67.5t93 -51t102.5 -50t93.5 -56.5t68.5 -78.5t26.5 -109q0 -140 -97.5 -233t-252.5 -93q-253 0 -285 248zM569 1198l179 250h28l-184 -250h-23z" />
<glyph unicode="&#x15c;" horiz-adv-x="1001" d="M145 260l21 6q57 -272 344 -272q180 0 304 108t124 289q0 80 -33.5 143t-87 104t-118.5 76.5t-130 70t-118.5 74t-87 99t-33.5 134.5q0 157 116.5 262.5t303.5 105.5q73 0 131.5 -21t94.5 -56t56.5 -69.5t32.5 -72.5l-21 -8q-11 36 -30 68t-52.5 65.5t-90 53.5t-128.5 20 q-174 0 -283.5 -101t-109.5 -245q0 -56 21 -103t56 -81t80.5 -63.5t96 -55.5t101 -53t96 -60t80.5 -71.5t56 -93t21 -120.5q0 -189 -126 -304.5t-324 -115.5q-300 0 -363 287zM563 1534l238 242h18l156 -242h-25l-141 223l-219 -223h-27z" />
<glyph unicode="&#x15d;" horiz-adv-x="813" d="M135 221l21 6q12 -102 74.5 -167.5t189.5 -65.5q136 0 233 84.5t97 218.5q0 51 -20.5 92.5t-54.5 68.5t-77.5 52.5t-88.5 44.5t-88.5 44t-77.5 51t-54.5 66t-20.5 89q0 127 94 202.5t228 75.5q219 0 254 -202l-21 -9q-33 191 -235 191q-123 0 -210 -71t-87 -187 q0 -53 26.5 -93.5t68.5 -67.5t93 -51t102.5 -50t93.5 -56.5t68.5 -78.5t26.5 -109q0 -140 -97.5 -233t-252.5 -93q-253 0 -285 248zM416 1214l237 242h19l155 -242h-24l-141 224l-220 -224h-26z" />
<glyph unicode="&#x15e;" horiz-adv-x="1001" d="M145 260l21 6q57 -272 344 -272q180 0 304 108t124 289q0 80 -33.5 143t-87 104t-118.5 76.5t-130 70t-118.5 74t-87 99t-33.5 134.5q0 157 116.5 262.5t303.5 105.5q73 0 131.5 -21t94.5 -56t56.5 -69.5t32.5 -72.5l-21 -8q-11 36 -30 68t-52.5 65.5t-90 53.5t-128.5 20 q-174 0 -283.5 -101t-109.5 -245q0 -56 21 -103t56 -81t80.5 -63.5t96 -55.5t101 -53t96 -60t80.5 -71.5t56 -93t21 -120.5q0 -189 -126 -304.5t-324 -115.5h-14l-35 -129q77 0 122.5 -32.5t45.5 -85.5q0 -83 -58.5 -124.5t-148.5 -41.5l-58 4l7 18q28 -4 53 -4 q82 0 134 38.5t52 107.5q0 46 -40 74t-111 28h-23l43 149q-273 13 -332 285z" />
<glyph unicode="&#x15f;" horiz-adv-x="813" d="M135 221l21 6q12 -102 74.5 -167.5t189.5 -65.5q136 0 233 84.5t97 218.5q0 51 -20.5 92.5t-54.5 68.5t-77.5 52.5t-88.5 44.5t-88.5 44t-77.5 51t-54.5 66t-20.5 89q0 127 94 202.5t228 75.5q219 0 254 -202l-21 -9q-33 191 -235 191q-123 0 -210 -71t-87 -187 q0 -53 26.5 -93.5t68.5 -67.5t93 -51t102.5 -50t93.5 -56.5t68.5 -78.5t26.5 -109q0 -140 -97.5 -233t-252.5 -93h-17l-36 -129q77 0 122.5 -32.5t45.5 -85.5q0 -83 -58.5 -124.5t-148.5 -41.5l-58 4l6 18q28 -4 54 -4q82 0 134 38.5t52 107.5q0 46 -40 74t-111 28h-23 l43 149q-222 15 -250 246z" />
<glyph unicode="&#x160;" horiz-adv-x="1001" d="M145 260l21 6q57 -272 344 -272q180 0 304 108t124 289q0 80 -33.5 143t-87 104t-118.5 76.5t-130 70t-118.5 74t-87 99t-33.5 134.5q0 157 116.5 262.5t303.5 105.5q73 0 131.5 -21t94.5 -56t56.5 -69.5t32.5 -72.5l-21 -8q-11 36 -30 68t-52.5 65.5t-90 53.5t-128.5 20 q-174 0 -283.5 -101t-109.5 -245q0 -56 21 -103t56 -81t80.5 -63.5t96 -55.5t101 -53t96 -60t80.5 -71.5t56 -93t21 -120.5q0 -189 -126 -304.5t-324 -115.5q-300 0 -363 287zM604 1776h25l141 -224l219 224h25l-236 -242h-20z" />
<glyph unicode="&#x161;" horiz-adv-x="813" d="M135 221l21 6q12 -102 74.5 -167.5t189.5 -65.5q136 0 233 84.5t97 218.5q0 51 -20.5 92.5t-54.5 68.5t-77.5 52.5t-88.5 44.5t-88.5 44t-77.5 51t-54.5 66t-20.5 89q0 127 94 202.5t228 75.5q219 0 254 -202l-21 -9q-33 191 -235 191q-123 0 -210 -71t-87 -187 q0 -53 26.5 -93.5t68.5 -67.5t93 -51t102.5 -50t93.5 -56.5t68.5 -78.5t26.5 -109q0 -140 -97.5 -233t-252.5 -93q-253 0 -285 248zM461 1456h24l142 -223l219 223h24l-235 -242h-21z" />
<glyph unicode="&#x162;" horiz-adv-x="1007" d="M283 1413l4 21h913l-4 -21h-446l-236 -1413h-20l235 1413h-446zM420 -279q24 19 49.5 53t32.5 66q-8 -4 -25 -4t-26 10.5t-9 26.5q0 20 15 34.5t35 14.5q36 0 36 -41q0 -89 -96 -172z" />
<glyph unicode="&#x163;" horiz-adv-x="514" d="M205 1036l4 21h141l37 221h21l-37 -221h270l-4 -21h-268l-121 -717q-29 -172 9.5 -241.5t154.5 -69.5q41 0 65 4l-2 -20q-42 -4 -65 -4q-124 0 -169 76t-16 249l121 723h-141zM252 -279q24 19 49.5 53t32.5 66q-8 -4 -25 -4t-26 10.5t-9 26.5q0 20 15 34.5t35 14.5 q36 0 36 -41q0 -89 -96 -172z" />
<glyph unicode="&#x164;" horiz-adv-x="1007" d="M283 1413l4 21h913l-4 -21h-446l-236 -1413h-20l235 1413h-446zM598 1776h25l141 -224l219 224h25l-236 -242h-20z" />
<glyph unicode="&#x165;" horiz-adv-x="514" d="M205 1036l4 21h141l37 221h21l-37 -221h270l-4 -21h-268l-121 -717q-29 -172 9.5 -241.5t154.5 -69.5q41 0 65 4l-2 -20q-42 -4 -65 -4q-124 0 -169 76t-16 249l121 723h-141zM582 1186l69 295h21l-74 -295h-16z" />
<glyph unicode="&#x166;" horiz-adv-x="1007" d="M283 1413l4 21h913l-4 -21h-446l-101 -602h303l-4 -20h-303l-131 -791h-20l131 791h-297l4 20h297l100 602h-446z" />
<glyph unicode="&#x167;" horiz-adv-x="514" d="M145 686l5 21h141l55 329h-141l2 21h141l37 221h21l-37 -221h270l-2 -21h-270l-56 -329h279l-4 -21h-279l-61 -367q-29 -172 10.5 -241.5t155.5 -69.5q41 0 65 4l-4 -20q-32 -4 -63 -4q-126 0 -170 76t-15 249l62 373h-142z" />
<glyph unicode="&#x168;" horiz-adv-x="1351" d="M260 489l158 945h20l-157 -945q-38 -229 67 -362t326 -133t372 133t189 362l158 945h20l-158 -945q-40 -239 -193.5 -377.5t-389.5 -138.5q-229 0 -340.5 140t-71.5 376zM696 1593q8 61 47.5 98.5t98.5 37.5q33 0 70 -18.5t65.5 -40t65 -40t67.5 -18.5q52 0 83.5 32 t39.5 82h20q-9 -60 -47.5 -97.5t-97.5 -37.5q-31 0 -68 18.5t-66 40t-66 40t-68 18.5q-51 0 -83 -32.5t-40 -82.5h-21z" />
<glyph unicode="&#x169;" horiz-adv-x="1081" d="M221 350l119 707h20l-118 -707q-29 -171 59 -263.5t242 -92.5q157 0 278.5 105.5t151.5 287.5l112 670h21l-178 -1057h-21l43 254q-16 -49 -50.5 -96.5t-84.5 -90t-122.5 -68.5t-153.5 -26q-78 0 -142 24.5t-109 71t-63.5 119t-3.5 162.5zM508 1272q8 61 47 98t98 37 q33 0 70.5 -18.5t65.5 -40t65 -40t68 -18.5q51 0 82.5 32.5t39.5 82.5h21q-9 -60 -47.5 -97.5t-97.5 -37.5q-31 0 -68.5 18t-66 40t-66 40t-68.5 18q-52 0 -83.5 -32t-39.5 -82h-20z" />
<glyph unicode="&#x16a;" horiz-adv-x="1351" d="M260 489l158 945h20l-157 -945q-38 -229 67 -362t326 -133t372 133t189 362l158 945h20l-158 -945q-40 -239 -193.5 -377.5t-389.5 -138.5q-229 0 -340.5 140t-71.5 376zM735 1597l4 21h426l-4 -21h-426z" />
<glyph unicode="&#x16b;" horiz-adv-x="1081" d="M221 350l119 707h20l-118 -707q-29 -171 59 -263.5t242 -92.5q157 0 278.5 105.5t151.5 287.5l112 670h21l-178 -1057h-21l43 254q-16 -49 -50.5 -96.5t-84.5 -90t-122.5 -68.5t-153.5 -26q-78 0 -142 24.5t-109 71t-63.5 119t-3.5 162.5zM565 1350l4 20h426l-4 -20h-426 z" />
<glyph unicode="&#x16c;" horiz-adv-x="1351" d="M260 489l158 945h20l-157 -945q-38 -229 67 -362t326 -133t372 133t189 362l158 945h20l-158 -945q-40 -239 -193.5 -377.5t-389.5 -138.5q-229 0 -340.5 140t-71.5 376zM778 1761h19q-13 -79 21.5 -127.5t123.5 -48.5q88 0 138 49.5t65 126.5h18q-14 -89 -71.5 -141.5 t-153.5 -52.5t-135 52.5t-25 141.5z" />
<glyph unicode="&#x16d;" horiz-adv-x="1081" d="M221 350l119 707h20l-118 -707q-29 -171 59 -263.5t242 -92.5q157 0 278.5 105.5t151.5 287.5l112 670h21l-178 -1057h-21l43 254q-16 -49 -50.5 -96.5t-84.5 -90t-122.5 -68.5t-153.5 -26q-78 0 -142 24.5t-109 71t-63.5 119t-3.5 162.5zM602 1434h19q-13 -79 21.5 -128 t123.5 -49q87 0 137.5 50t65.5 127h18q-14 -89 -71.5 -142t-153.5 -53t-135 53t-25 142z" />
<glyph unicode="&#x16e;" horiz-adv-x="1351" d="M260 489l158 945h20l-157 -945q-38 -229 67 -362t326 -133t372 133t189 362l158 945h20l-158 -945q-40 -239 -193.5 -377.5t-389.5 -138.5q-229 0 -340.5 140t-71.5 376zM817 1632q0 70 46 118t116 48q56 0 88.5 -33.5t32.5 -87.5q0 -70 -47 -118t-117 -48q-55 0 -87 34 t-32 87zM836 1634q0 -47 27 -75.5t75 -28.5q61 0 102 42t41 103q0 47 -27 76t-75 29q-62 0 -102.5 -42.5t-40.5 -103.5z" />
<glyph unicode="&#x16f;" horiz-adv-x="1081" d="M221 350l119 707h20l-118 -707q-29 -171 59 -263.5t242 -92.5q157 0 278.5 105.5t151.5 287.5l112 670h21l-178 -1057h-21l43 254q-16 -49 -50.5 -96.5t-84.5 -90t-122.5 -68.5t-153.5 -26q-78 0 -142 24.5t-109 71t-63.5 119t-3.5 162.5zM637 1309q0 70 46 118t116 48 q56 0 88.5 -33.5t32.5 -87.5q0 -70 -47 -118t-117 -48q-55 0 -87 34t-32 87zM655 1311q0 -47 27.5 -76t75.5 -29q61 0 102 42.5t41 103.5q0 47 -27 75.5t-75 28.5q-62 0 -103 -42t-41 -103z" />
<glyph unicode="&#x170;" horiz-adv-x="1351" d="M260 489l158 945h20l-157 -945q-38 -229 67 -362t326 -133t372 133t189 362l158 945h20l-158 -945q-40 -239 -193.5 -377.5t-389.5 -138.5q-229 0 -340.5 140t-71.5 376zM782 1538l176 250h27l-182 -250h-21zM985 1538l176 250h27l-182 -250h-21z" />
<glyph unicode="&#x171;" horiz-adv-x="1081" d="M221 350l119 707h20l-118 -707q-29 -171 59 -263.5t242 -92.5q157 0 278.5 105.5t151.5 287.5l112 670h21l-178 -1057h-21l43 254q-16 -49 -50.5 -96.5t-84.5 -90t-122.5 -68.5t-153.5 -26q-78 0 -142 24.5t-109 71t-63.5 119t-3.5 162.5zM600 1198l176 250h27l-182 -250 h-21zM803 1198l176 250h27l-183 -250h-20z" />
<glyph unicode="&#x172;" horiz-adv-x="1351" d="M260 489l158 945h20l-157 -945q-38 -229 67 -362t326 -133t372 133t189 362l158 945h20l-158 -945q-32 -188 -134 -315t-261 -174q-33 -12 -66 -32t-63.5 -48.5t-49.5 -67.5t-19 -81q0 -45 27 -76t62 -43t72 -12l-4 -21q-69 0 -123.5 38.5t-54.5 111.5q0 70 42 125t97 88 q-79 -9 -108 -9q-229 0 -340.5 140t-71.5 376z" />
<glyph unicode="&#x173;" horiz-adv-x="1081" d="M221 350l119 707h20l-118 -707q-29 -171 59 -263.5t242 -92.5q161 0 280.5 105t149.5 288l112 670h21l-178 -1061q-34 -11 -68 -30t-67.5 -46.5t-54.5 -67t-21 -83.5q0 -65 46 -97t105 -32l-4 -21q-67 0 -117.5 37.5t-50.5 110.5q0 50 22 92.5t58.5 71.5t68 47t64.5 30 l41 246q-16 -49 -50.5 -96.5t-84.5 -90t-122.5 -68.5t-153.5 -26q-79 0 -143.5 24.5t-109 71t-62.5 119t-3 162.5z" />
<glyph unicode="&#x174;" horiz-adv-x="1839" d="M266 1434h21l192 -1389l666 1389h20l207 -1389l653 1389h25l-676 -1434h-18l-205 1393l-670 -1393h-18zM971 1534l237 242h19l155 -242h-24l-141 223l-220 -223h-26z" />
<glyph unicode="&#x175;" horiz-adv-x="1646" d="M193 1057h20l219 -1026l555 1026h25l211 -1026l559 1026h24l-577 -1057h-21l-213 1030l-557 -1030h-20zM821 1214l238 242h18l156 -242h-25l-141 224l-219 -224h-27z" />
<glyph unicode="&#x176;" horiz-adv-x="966" d="M266 1434h21l315 -715l553 715h25l-570 -740l-116 -694h-21l117 694zM535 1534l237 242h19l155 -242h-24l-142 223l-219 -223h-26z" />
<glyph unicode="&#x177;" horiz-adv-x="964" d="M190 1057h25l274 -1032l611 1032h26l-841 -1424h-25l213 365zM492 1214l237 242h19l155 -242h-24l-142 224l-219 -224h-26z" />
<glyph unicode="&#x178;" horiz-adv-x="964" d="M266 1434h21l315 -715l553 715h25l-570 -740l-116 -694h-21l117 694zM553 1647q0 20 15.5 34.5t35.5 14.5q37 0 37 -37q0 -21 -14 -35t-37 -14q-17 0 -27 10.5t-10 26.5zM874 1647q0 20 15.5 34.5t36.5 14.5q37 0 37 -37q0 -21 -14.5 -35t-37.5 -14q-17 0 -27 10.5 t-10 26.5z" />
<glyph unicode="&#x179;" horiz-adv-x="1196" d="M80 0l4 20l1223 1393h-959l4 21h987l-4 -21l-1222 -1393h995l-4 -20h-1024zM840 1538l178 250h29l-185 -250h-22z" />
<glyph unicode="&#x17a;" horiz-adv-x="933" d="M74 0l4 23l907 1013h-709l3 21h737l-2 -21l-905 -1013h747l-4 -23h-778zM625 1198l178 250h28l-184 -250h-22z" />
<glyph unicode="&#x17b;" horiz-adv-x="1196" d="M80 0l4 20l1223 1393h-959l4 21h987l-4 -21l-1222 -1393h995l-4 -20h-1024zM838 1661q0 20 15 33.5t34 13.5q16 0 25.5 -10.5t9.5 -24.5q0 -19 -14.5 -33t-35.5 -14q-15 0 -24.5 10.5t-9.5 24.5z" />
<glyph unicode="&#x17c;" horiz-adv-x="933" d="M74 0l4 23l907 1013h-709l3 21h737l-2 -21l-905 -1013h747l-4 -23h-778zM655 1348q0 20 15.5 33.5t34.5 13.5q16 0 25 -10t9 -25q0 -19 -14 -33t-35 -14q-15 0 -25 10.5t-10 24.5z" />
<glyph unicode="&#x17d;" horiz-adv-x="1196" d="M80 0l4 20l1223 1393h-959l4 21h987l-4 -21l-1222 -1393h995l-4 -20h-1024zM690 1776h25l141 -224l219 224h25l-236 -242h-20z" />
<glyph unicode="&#x17e;" horiz-adv-x="933" d="M74 0l4 23l907 1013h-709l3 21h737l-2 -21l-905 -1013h747l-4 -23h-778zM502 1456h24l142 -223l219 223h24l-235 -242h-21z" />
<glyph unicode="&#x192;" horiz-adv-x="880" d="M-125 -377l6 21q59 -17 115 -17q101 0 169 70.5t97 214.5l164 883h-170v20h174l55 295q63 332 301 332q60 0 117 -17l-4 -20q-72 16 -113 16q-109 0 -180 -77.5t-102 -251.5l-49 -277h258v-20h-267l-163 -885q-56 -303 -287 -303q-57 0 -121 16z" />
<glyph unicode="&#x1fa;" horiz-adv-x="1218" d="M37 0h26l326 584h637l129 -584h25l-318 1415q64 8 107 55t43 111q0 53 -32 87t-87 34q-70 0 -118 -48.5t-48 -117.5q0 -49 27 -83t73 -38zM401 604l443 799l176 -799h-619zM745 1538q0 61 42 103t104 42q48 0 74 -28.5t26 -75.5q0 -61 -40.5 -103t-102.5 -42 q-47 0 -75 29t-28 75zM872 1759l134 185h26l-139 -185h-21z" />
<glyph unicode="&#x1fb;" horiz-adv-x="995" d="M133 274q0 107 59 197.5t163 143.5t229 53q121 0 211.5 -63t109.5 -163l45 269q30 173 -48.5 262.5t-233.5 89.5q-182 0 -367 -115l-10 19q190 116 381 116q164 0 246.5 -95t52.5 -277l-119 -711h-21l33 201q-64 -106 -168 -167t-229 -61q-158 0 -246 86.5t-88 214.5z M154 279q0 -118 82 -201.5t233 -83.5q114 0 212.5 56t154 143t55.5 180q0 122 -82.5 198t-228.5 76q-120 0 -219 -53t-153 -137t-54 -178zM575 1294q0 70 46 118t116 48q56 0 88.5 -33.5t32.5 -87.5q0 -69 -47 -117t-117 -48q-55 0 -87 33.5t-32 86.5zM594 1296 q0 -47 27 -75.5t75 -28.5q61 0 102.5 42.5t41.5 102.5q0 47 -27.5 76t-75.5 29q-62 0 -102.5 -42.5t-40.5 -103.5zM727 1524l178 250h29l-184 -250h-23z" />
<glyph unicode="&#x1fc;" horiz-adv-x="1546" d="M18 0l945 1434h673l-4 -21h-594l-110 -668h524l-4 -20h-524l-117 -705h618l-4 -20h-639l99 584h-451l-385 -584h-27zM444 604h439l135 809h-45zM1163 1538l178 250h29l-184 -250h-23z" />
<glyph unicode="&#x1fd;" horiz-adv-x="1916" d="M133 274q0 107 59 197.5t163 143.5t229 53q123 0 214.5 -61t106.5 -163l45 267q30 174 -47.5 263t-234.5 89q-177 0 -369 -115l-8 19q190 116 381 116q165 0 249.5 -100.5t49.5 -271.5q76 174 226 273t316 99q144 0 247 -69t145 -185.5t18 -257.5l-6 -34h-975l-4 -27 q-18 -117 8 -215.5t84.5 -163.5t142.5 -101t183 -36q267 0 446 217l19 -10q-175 -228 -467 -228q-182 0 -305 103t-136 289l-6 -35q-26 -147 -148.5 -252t-291.5 -105q-158 0 -246 86.5t-88 214.5zM154 279q0 -118 82 -201.5t233 -83.5q114 0 212.5 56.5t154 145.5t55.5 185 q0 120 -82.5 193t-228.5 73q-120 0 -219 -53t-153 -137t-54 -178zM944 557h957q20 121 -3.5 219t-80.5 159.5t-136 94.5t-172 33q-90 0 -181 -35.5t-169 -99.5t-136 -160.5t-79 -210.5zM1075 1198l178 250h29l-184 -250h-23z" />
<glyph unicode="&#x1fe;" horiz-adv-x="1617" d="M205 604q0 176 69 335.5t183.5 273t269.5 180.5t322 67q251 0 417 -160l144 150l14 -14l-143 -150q84 -85 129 -202.5t45 -254.5q0 -176 -69 -335.5t-183.5 -273t-269.5 -180.5t-322 -67q-254 0 -422 162l-143 -151l-17 12l146 154q-170 181 -170 454zM225 606 q0 -266 166 -440l1059 1116q-161 158 -399 158q-161 0 -312.5 -65.5t-264.5 -176t-181 -266t-68 -326.5zM406 150q159 -156 403 -156q161 0 312 65t263.5 175.5t180 266t67.5 326.5q0 131 -44 244.5t-124 196.5zM1022 1538l178 250h29l-185 -250h-22z" />
<glyph unicode="&#x1ff;" horiz-adv-x="1234" d="M170 440q0 175 84 323t229 234t316 86q188 0 309 -118l98 102l15 -12l-101 -105q123 -132 123 -336q0 -130 -50 -248.5t-134.5 -204.5t-201.5 -137t-245 -51q-185 0 -307 119l-100 -106l-15 14l101 106q-121 130 -121 334zM190 446q0 -198 115 -325l789 827 q-118 115 -299 115q-164 0 -304 -85t-220.5 -227t-80.5 -305zM319 106q112 -112 295 -112q123 0 235.5 50t193.5 133t129.5 197t48.5 236q0 202 -115 326zM735 1198l178 250h29l-184 -250h-23z" />
<glyph unicode="&#x218;" horiz-adv-x="1001" d="M145 260l21 6q57 -272 344 -272q180 0 304 108t124 289q0 80 -33.5 143t-87 104t-118.5 76.5t-130 70t-118.5 74t-87 99t-33.5 134.5q0 157 116.5 262.5t303.5 105.5q73 0 131.5 -21t94.5 -56t56.5 -69.5t32.5 -72.5l-21 -8q-11 36 -30 68t-52.5 65.5t-90 53.5t-128.5 20 q-174 0 -283.5 -101t-109.5 -245q0 -56 21 -103t56 -81t80.5 -63.5t96 -55.5t101 -53t96 -60t80.5 -71.5t56 -93t21 -120.5q0 -189 -126 -304.5t-324 -115.5q-300 0 -363 287zM434 -279q24 19 49.5 53t32.5 66q-8 -4 -24 -4q-17 0 -26 10.5t-9 26.5q0 20 14.5 34.5 t34.5 14.5q37 0 37 -41q0 -89 -97 -172z" />
<glyph unicode="&#x219;" horiz-adv-x="813" d="M135 221l21 6q12 -102 74.5 -167.5t189.5 -65.5q136 0 233 84.5t97 218.5q0 51 -20.5 92.5t-54.5 68.5t-77.5 52.5t-88.5 44.5t-88.5 44t-77.5 51t-54.5 66t-20.5 89q0 127 94 202.5t228 75.5q219 0 254 -202l-21 -9q-33 191 -235 191q-123 0 -210 -71t-87 -187 q0 -53 26.5 -93.5t68.5 -67.5t93 -51t102.5 -50t93.5 -56.5t68.5 -78.5t26.5 -109q0 -140 -97.5 -233t-252.5 -93q-253 0 -285 248zM336 -279q24 19 49.5 53t32.5 66q-8 -4 -25 -4t-26 10.5t-9 26.5q0 20 15 34.5t35 14.5q36 0 36 -41q0 -89 -96 -172z" />
<glyph unicode="&#x237;" d="M-152 -387l5 20q27 -2 43 -2q216 0 264 303l188 1123h21l-189 -1123q-28 -173 -99 -248t-190 -75z" />
<glyph unicode="&#x2c6;" horiz-adv-x="937" d="M465 1214l237 242h19l156 -242h-25l-141 224l-219 -224h-27z" />
<glyph unicode="&#x2c7;" horiz-adv-x="937" d="M508 1456h24l142 -223l219 223h25l-236 -242h-20z" />
<glyph unicode="&#x2d8;" horiz-adv-x="942" d="M518 1434h19q-13 -79 21.5 -128t123.5 -49q87 0 137.5 50t65.5 127h18q-14 -89 -71.5 -142t-153.5 -53t-135 53t-25 142z" />
<glyph unicode="&#x2d9;" horiz-adv-x="942" d="M655 1348q0 20 15.5 33.5t34.5 13.5q16 0 25 -10t9 -25q0 -19 -14 -33t-35 -14q-15 0 -25 10.5t-10 24.5z" />
<glyph unicode="&#x2da;" horiz-adv-x="942" d="M553 1309q0 70 46 118t116 48q56 0 88.5 -33.5t32.5 -87.5q0 -70 -47 -118t-117 -48q-55 0 -87 34t-32 87zM571 1311q0 -47 27.5 -76t75.5 -29q61 0 102 42.5t41 103.5q0 47 -27 75.5t-75 28.5q-62 0 -103 -42t-41 -103z" />
<glyph unicode="&#x2db;" horiz-adv-x="937" d="M330 -231q0 45 19.5 87t48.5 70t56.5 46.5t51.5 27.5h41q-74 -26 -135.5 -87t-61.5 -142q0 -45 27 -76t62 -43t73 -12l-4 -21q-69 0 -123.5 38.5t-54.5 111.5z" />
<glyph unicode="&#x2dc;" horiz-adv-x="937" d="M414 1272q8 61 47 98t98 37q33 0 70 -18.5t65.5 -40t65 -40t67.5 -18.5q51 0 83 32.5t40 82.5h21q-9 -60 -48 -97.5t-98 -37.5q-39 0 -86.5 29l-95 58t-86.5 29q-52 0 -83.5 -32t-39.5 -82h-20z" />
<glyph unicode="&#x2dd;" horiz-adv-x="919" d="M477 1198l176 250h27l-182 -250h-21zM680 1198l176 250h27l-183 -250h-20z" />
<glyph unicode="&#x1e80;" horiz-adv-x="1839" d="M266 1434h21l192 -1389l666 1389h20l207 -1389l653 1389h25l-676 -1434h-18l-205 1393l-670 -1393h-18zM1090 1788h26l94 -250h-20z" />
<glyph unicode="&#x1e81;" horiz-adv-x="1646" d="M193 1057h20l219 -1026l555 1026h25l211 -1026l559 1026h24l-577 -1057h-21l-213 1030l-557 -1030h-20zM940 1448h27l94 -250h-21z" />
<glyph unicode="&#x1e82;" horiz-adv-x="1839" d="M266 1434h21l192 -1389l666 1389h20l207 -1389l653 1389h25l-676 -1434h-18l-205 1393l-670 -1393h-18zM1130 1538l179 250h28l-184 -250h-23z" />
<glyph unicode="&#x1e83;" horiz-adv-x="1646" d="M193 1057h20l219 -1026l555 1026h25l211 -1026l559 1026h24l-577 -1057h-21l-213 1030l-557 -1030h-20zM975 1198l178 250h29l-185 -250h-22z" />
<glyph unicode="&#x1e84;" horiz-adv-x="1839" d="M266 1434h21l192 -1389l666 1389h20l207 -1389l653 1389h25l-676 -1434h-18l-205 1393l-670 -1393h-18zM991 1647q0 20 15.5 34.5t35.5 14.5q37 0 37 -37q0 -21 -14 -35t-37 -14q-17 0 -27 10.5t-10 26.5zM1313 1647q0 20 15.5 34.5t35.5 14.5q37 0 37 -37q0 -21 -14 -35 t-37 -14q-17 0 -27 10.5t-10 26.5z" />
<glyph unicode="&#x1e85;" horiz-adv-x="1646" d="M193 1057h20l219 -1026l555 1026h25l211 -1026l559 1026h24l-577 -1057h-21l-213 1030l-557 -1030h-20zM840 1321q0 20 15.5 34.5t35.5 14.5q37 0 37 -37q0 -21 -14 -35t-37 -14q-17 0 -27 10.5t-10 26.5zM1161 1321q0 20 15.5 34.5t35.5 14.5q37 0 37 -37q0 -21 -14 -35 t-37 -14q-17 0 -27 10.5t-10 26.5z" />
<glyph unicode="&#x1ef2;" horiz-adv-x="964" d="M266 1434h21l315 -715l553 715h25l-570 -740l-116 -694h-21l117 694zM668 1788h26l94 -250h-20z" />
<glyph unicode="&#x1ef3;" horiz-adv-x="964" d="M190 1057h25l274 -1032l611 1032h26l-841 -1424h-25l213 365zM600 1448h27l94 -250h-21z" />
<glyph unicode="&#x2000;" horiz-adv-x="972" />
<glyph unicode="&#x2001;" horiz-adv-x="1944" />
<glyph unicode="&#x2002;" horiz-adv-x="972" />
<glyph unicode="&#x2003;" horiz-adv-x="1944" />
<glyph unicode="&#x2004;" horiz-adv-x="648" />
<glyph unicode="&#x2005;" horiz-adv-x="486" />
<glyph unicode="&#x2006;" horiz-adv-x="324" />
<glyph unicode="&#x2007;" horiz-adv-x="324" />
<glyph unicode="&#x2008;" horiz-adv-x="243" />
<glyph unicode="&#x2009;" horiz-adv-x="388" />
<glyph unicode="&#x200a;" horiz-adv-x="108" />
<glyph unicode="&#x2010;" horiz-adv-x="616" d="M176 602l4 21h463l-4 -21h-463z" />
<glyph unicode="&#x2011;" horiz-adv-x="616" d="M176 602l4 21h463l-4 -21h-463z" />
<glyph unicode="&#x2012;" horiz-adv-x="616" d="M176 602l4 21h463l-4 -21h-463z" />
<glyph unicode="&#x2013;" horiz-adv-x="1114" d="M178 598l4 20h959l-4 -20h-959z" />
<glyph unicode="&#x2014;" horiz-adv-x="1644" d="M178 598l4 20h1491l-4 -20h-1491z" />
<glyph unicode="&#x2018;" horiz-adv-x="280" d="M311 1253q0 85 105 185l12 -15q-25 -20 -54 -58t-36 -71q8 4 24 4q15 0 25 -10.5t10 -25.5q0 -20 -14.5 -35t-34.5 -15q-37 0 -37 41z" />
<glyph unicode="&#x2019;" horiz-adv-x="280" d="M303 1227q25 20 54 58t36 71q-8 -4 -24 -4q-15 0 -25 11t-10 26q0 20 14.5 34.5t34.5 14.5q37 0 37 -41q0 -85 -105 -185z" />
<glyph unicode="&#x201a;" horiz-adv-x="366" d="M106 -152q25 20 54.5 58t36.5 71q-8 -4 -25 -4q-15 0 -25 11t-10 26q0 20 14.5 34.5t34.5 14.5q37 0 37 -41q0 -85 -104 -184z" />
<glyph unicode="&#x201c;" horiz-adv-x="456" d="M311 1253q0 85 105 185l12 -15q-25 -20 -54 -58t-36 -71q8 4 24 4q15 0 25 -10.5t10 -25.5q0 -20 -14.5 -35t-34.5 -15q-37 0 -37 41zM487 1253q0 85 105 185l12 -15q-25 -20 -54 -58t-36 -71q8 4 25 4q15 0 24.5 -10.5t9.5 -25.5q0 -20 -14.5 -35t-34.5 -15 q-37 0 -37 41z" />
<glyph unicode="&#x201d;" horiz-adv-x="456" d="M303 1227q25 20 54 58t36 71q-8 -4 -24 -4q-15 0 -25 11t-10 26q0 20 14.5 34.5t34.5 14.5q37 0 37 -41q0 -85 -105 -185zM479 1227q25 20 54 58t36 71q-8 -4 -24 -4q-15 0 -25 11t-10 26q0 20 14.5 34.5t34.5 14.5q37 0 37 -41q0 -86 -104 -185z" />
<glyph unicode="&#x201e;" horiz-adv-x="503" d="M68 -152q25 20 54 58t36 71q-8 -4 -25 -4q-15 0 -25 11t-10 26q0 20 14.5 34.5t34.5 14.5q37 0 37 -41q0 -85 -104 -184zM244 -152q25 20 54 58t36 71q-8 -4 -25 -4q-15 0 -25 11t-10 26q0 20 15 34.5t35 14.5q36 0 36 -41q0 -85 -104 -184z" />
<glyph unicode="&#x2020;" horiz-adv-x="659" d="M258 1032l4 21h234l63 381h21l-64 -381h234l-5 -21h-233l-172 -1032h-21l173 1032h-234z" />
<glyph unicode="&#x2021;" horiz-adv-x="659" d="M160 438l4 21h233l86 516h-233l4 20h233l72 439h21l-72 -439h233l-4 -20h-233l-86 -516h233l-4 -21h-233l-74 -438h-21l74 438h-233z" />
<glyph unicode="&#x2022;" horiz-adv-x="831" d="M164 584q0 164 123.5 283.5t292.5 119.5q133 0 216 -86.5t83 -214.5q0 -164 -123.5 -283.5t-292.5 -119.5q-134 0 -216.5 86t-82.5 215z" />
<glyph unicode="&#x202f;" horiz-adv-x="388" />
<glyph unicode="&#x2030;" horiz-adv-x="2115" d="M154 0l1339 1434h27l-1340 -1434h-26zM313 1141q0 131 93.5 225t226.5 94q103 0 167 -68t64 -169q0 -131 -93 -225.5t-226 -94.5q-103 0 -167.5 68.5t-64.5 169.5zM334 1143q0 -96 57.5 -158.5t153.5 -62.5q123 0 212 88.5t89 210.5q0 96 -58.5 158.5t-154.5 62.5 q-124 0 -211.5 -88.5t-87.5 -210.5zM809 211q0 131 93 225t226 94q104 0 168 -68t64 -169q0 -131 -93.5 -225.5t-226.5 -94.5q-103 0 -167 68.5t-64 169.5zM829 213q0 -96 57.5 -158.5t153.5 -62.5q123 0 212 88.5t89 210.5q0 96 -58.5 158.5t-154.5 62.5 q-124 0 -211.5 -88.5t-87.5 -210.5zM1491 211q0 131 93 225t226 94q104 0 168 -68t64 -169q0 -131 -93.5 -225.5t-226.5 -94.5q-103 0 -167 68.5t-64 169.5zM1511 213q0 -96 57.5 -158.5t153.5 -62.5q123 0 212 88.5t89 210.5q0 96 -58.5 158.5t-154.5 62.5 q-124 0 -211.5 -88.5t-87.5 -210.5z" />
<glyph unicode="&#x2039;" horiz-adv-x="475" d="M182 592l320 366h26l-321 -366l199 -365h-23z" />
<glyph unicode="&#x203a;" horiz-adv-x="475" d="M121 227l323 367l-196 364h22l199 -366l-322 -365h-26z" />
<glyph unicode="&#x2044;" horiz-adv-x="763" d="M-63 -84l1101 1602h27l-1102 -1602h-26z" />
<glyph unicode="&#x205f;" horiz-adv-x="486" />
<glyph unicode="&#x20ac;" horiz-adv-x="1243" d="M162 569l4 21h117q0 55 13 134t36 142h-121l4 21h123q44 116 117 218.5t168.5 182t217.5 126t253 46.5q171 0 297 -78l-11 -18q-113 76 -290 76q-160 0 -307.5 -74t-255.5 -198.5t-167 -280.5h701l-6 -21h-703q-49 -145 -49 -276h686l-6 -21h-680q3 -161 68 -290.5 t189.5 -207t287.5 -77.5q165 0 313 76l8 -19q-141 -78 -325 -78q-132 0 -239 48t-176 130.5t-106.5 189.5t-39.5 228h-121z" />
<glyph unicode="&#x2116;" horiz-adv-x="2279" d="M190 0l240 1434h16l766 -1395l234 1395h20l-239 -1434h-19l-764 1395l-233 -1395h-21zM1571 555l4 20h651l-4 -20h-651zM1638 1055q0 164 117 284.5t289 120.5q136 0 216.5 -85.5t80.5 -213.5q0 -108 -52 -201t-146 -149.5t-208 -56.5q-136 0 -216.5 85.5t-80.5 215.5z M1659 1057q0 -122 74.5 -202.5t199.5 -80.5q160 0 273.5 114t113.5 269q0 122 -74.5 202.5t-199.5 80.5q-160 0 -273.5 -113.5t-113.5 -269.5z" />
<glyph unicode="&#x2122;" horiz-adv-x="1374" d="M291 1413l4 21h430l-4 -21h-205l-119 -713h-20l119 713h-205zM721 700l123 734h20l228 -627l442 627h22l-122 -734h-21l115 693l-426 -609h-21l-225 609l-115 -693h-20z" />
<glyph unicode="&#x2212;" horiz-adv-x="1126" d="M195 627l4 20h944l-4 -20h-944z" />
<glyph unicode="&#x25fc;" horiz-adv-x="1054" d="M0 0v1055h1055v-1055h-1055z" />
<glyph unicode="&#xf6c3;" horiz-adv-x="319" d="M74 -279q24 19 49.5 53t32.5 66q-8 -4 -25 -4t-26 10.5t-9 26.5q0 20 14.5 34.5t34.5 14.5q37 0 37 -41q0 -89 -96 -172z" />
<glyph horiz-adv-x="616" d="M195 707l4 20h463l-5 -20h-462z" />
<glyph horiz-adv-x="1114" d="M197 707l4 20h958l-4 -20h-958z" />
<glyph horiz-adv-x="1644" d="M197 707l4 20h1491l-4 -20h-1491z" />
<glyph horiz-adv-x="727" d="M207 731l319 367h27l-322 -367l199 -364h-22zM473 731l320 367h26l-321 -367l198 -364h-22z" />
<glyph horiz-adv-x="727" d="M143 367l324 366l-197 365h23l199 -367l-322 -364h-27zM410 367l323 366l-196 365h22l199 -367l-322 -364h-26z" />
<glyph horiz-adv-x="475" d="M207 731l319 367h27l-322 -367l199 -364h-22z" />
<glyph horiz-adv-x="475" d="M143 367l324 366l-197 365h23l199 -367l-322 -364h-27z" />
<glyph horiz-adv-x="518" d="M190 0l236 1405q31 182 180 182h25l-4 -20h-25q-129 0 -156 -162l-235 -1405q-27 -162 102 -162h25l-4 -20h-25q-67 0 -101 43.5t-18 138.5z" />
<glyph horiz-adv-x="518" d="M123 -182l4 20h25q128 0 155 162l236 1405q14 87 -13 124.5t-90 37.5h-24l4 20h24q150 0 119 -182l-235 -1405q-17 -97 -62.5 -139.5t-118.5 -42.5h-24z" />
<glyph horiz-adv-x="518" d="M160 -182l297 1769h174l-4 -20h-154l-289 -1729h154l-4 -20h-174z" />
<glyph horiz-adv-x="503" d="M123 -182l4 20h154l288 1729h-153l4 20h174l-297 -1769h-174z" />
<glyph horiz-adv-x="536" d="M176 692l2 21q151 0 189 217l79 475q31 182 181 182h24l-4 -20h-24q-129 0 -156 -162l-80 -475q-33 -199 -154 -230q110 -31 78 -225l-80 -475q-27 -162 103 -162h24l-4 -20h-24q-150 0 -119 182l80 475q38 217 -115 217z" />
<glyph horiz-adv-x="442" d="M176 -213l309 1851h21l-309 -1851h-21z" />
<glyph horiz-adv-x="536" d="M121 -182l4 20h25q128 0 155 162l80 475q17 106 58.5 161t93.5 69q-108 31 -76 225l80 475q27 162 -103 162h-24l4 20h24q150 0 119 -182l-80 -475q-38 -217 115 -217l-4 -21q-151 0 -186 -217l-80 -475q-31 -182 -181 -182h-24z" />
<glyph horiz-adv-x="806" d="M47 -166l922 1757h24l-921 -1757h-25z" />
<glyph horiz-adv-x="806" d="M344 1591h23l331 -1757h-22z" />
<glyph horiz-adv-x="448" d="M213 0l188 1128h21l-189 -1128h-20zM416 1411q0 20 15.5 34.5t35.5 14.5q17 0 27 -10.5t10 -26.5q0 -20 -15.5 -34.5t-35.5 -14.5q-17 0 -27 10.5t-10 26.5z" />
<glyph horiz-adv-x="919" d="M150 281q0 85 26 158t68.5 125.5t94 99t105.5 88t100.5 82.5t81 92.5t44.5 109.5l16 92h21l-17 -92q-11 -61 -45.5 -115t-81 -96t-100.5 -84t-105.5 -87.5t-93.5 -96.5t-68 -121t-26 -153q0 -126 79.5 -207.5t209.5 -81.5q243 0 364 221l17 -10q-24 -44 -55 -81 t-76.5 -73t-110 -57t-139.5 -21q-142 0 -225.5 88t-83.5 220zM702 1411q0 20 15 34.5t37 14.5q15 0 24.5 -11t9.5 -26q0 -20 -14.5 -34.5t-34.5 -14.5q-17 0 -27 10.5t-10 26.5z" />
<glyph horiz-adv-x="407" d="M281 721q0 20 15.5 34.5t35.5 14.5q17 0 27 -10.5t10 -26.5q0 -20 -15.5 -34.5t-36.5 -14.5q-17 0 -26.5 10.5t-9.5 26.5z" />
<glyph horiz-adv-x="831" d="M180 674q0 107 57 200.5t153 148t206 54.5q134 0 216.5 -86t82.5 -215q0 -164 -123.5 -283.5t-292.5 -119.5q-134 0 -216.5 86t-82.5 215z" />
<glyph horiz-adv-x="1085" d="M204.5 328.5q-3.5 87.5 4.5 179.5t27 209q23 143 49.5 248.5t69.5 203t99 158.5t138.5 97t187.5 36q76 0 133.5 -18.5t97 -51t64.5 -84t36.5 -111t12 -138t-7.5 -159.5t-24 -181q-23 -143 -50 -248.5t-70.5 -203t-100 -159t-139 -97.5t-187.5 -36q-88 0 -152 23.5 t-103 71.5t-60.5 110.5t-25 150zM223.5 389q-0.5 -77 9.5 -135t33 -108.5t60.5 -82.5t93.5 -50.5t129 -18.5t134.5 18.5t109 50.5t86.5 82.5t67.5 108t52 135t40 154.5t32.5 174q18 114 25.5 201.5t5 173.5t-22.5 146.5t-57 107.5t-99 70.5t-147 23.5t-154.5 -23.5 t-121 -70.5t-90 -107.5t-68 -146.5t-49 -173.5t-37.5 -201.5q-16 -97 -24 -174t-8.5 -154z" />
<glyph horiz-adv-x="1085" d="M219 0l4 20h340l232 1389l-369 -154l-8 19l381 160h20l-235 -1414h301l-4 -20h-662z" />
<glyph horiz-adv-x="1085" d="M150 0l4 23q12 62 52 123.5t96 115.5t125.5 109.5t143 109.5t146 110.5t137 118.5t114 127t78.5 142.5t29 159.5q0 59 -17.5 111t-52.5 95.5t-95.5 69t-139.5 25.5q-148 0 -246 -82t-139 -197l-20 6q18 53 51 102t82 93t120 71t154 27q67 0 122.5 -18.5t92.5 -50 t62.5 -73t37 -86.5t11.5 -93q0 -107 -47 -207t-123.5 -180t-169 -155.5t-189 -145.5t-179 -136.5t-142 -143t-74.5 -151.5h766l-4 -20h-786z" />
<glyph horiz-adv-x="1085" d="M168 250l20 8q57 -264 355 -264q122 0 228.5 58.5t171.5 164t65 232.5q0 155 -98.5 241t-254.5 86h-102l4 21l569 616h-720l4 21h749l-4 -21l-569 -616h73q162 0 265.5 -90.5t103.5 -255.5q0 -138 -68 -249t-178.5 -170t-238.5 -59q-90 0 -159.5 23t-112 64t-67 87.5 t-36.5 102.5z" />
<glyph horiz-adv-x="1085" d="M147 397l5 21l868 1016h20l-170 -1016h197l-4 -21h-197l-65 -397h-21l66 397h-699zM178 418h672l164 977z" />
<glyph horiz-adv-x="1085" d="M176 248l19 8q60 -262 342 -262q136 0 245 69.5t166.5 183t57.5 245.5q0 161 -96.5 263.5t-250.5 102.5q-172 0 -319 -119l-14 6l147 689h637l-4 -21h-617l-139 -645q135 111 312 111q164 0 264 -110.5t100 -276.5q0 -136 -60.5 -254.5t-174 -191.5t-254.5 -73 q-87 0 -154 24t-108 66t-64 87t-35 98z" />
<glyph horiz-adv-x="1085" d="M203 410q0 159 22.5 307.5t73 284.5t123 237t180.5 161t238 60q166 0 282 -112l-16 -17q-105 109 -270 109t-295.5 -108.5t-206 -291t-96.5 -415.5q28 48 68.5 93t97 87.5t131.5 68t157 25.5q87 0 156 -30.5t110.5 -82t63.5 -116.5t22 -138q0 -128 -39 -234.5t-107 -177 t-160 -109t-197 -38.5q-76 0 -135.5 25t-97 65.5t-62 98t-34 118.5t-9.5 130zM225 462.5q-1 -57.5 4 -118t18.5 -111t38 -95.5t59 -76.5t85.5 -49.5t115 -18q97 0 183 36t151.5 102.5t104 169t38.5 226.5q0 70 -20 132t-59 111.5t-103.5 78.5t-147.5 29q-143 0 -261 -81 t-198 -214q-7 -64 -8 -121.5z" />
<glyph horiz-adv-x="1085" d="M369 0l786 1413h-778l4 21h801l-4 -21l-785 -1413h-24z" />
<glyph horiz-adv-x="1085" d="M170 324q0 86 28 160.5t71.5 124.5t99.5 87t110 56t105 24q-93 20 -162.5 100.5t-69.5 192.5q0 118 61 208.5t158 136.5t211 46q139 0 232.5 -78.5t93.5 -214.5q0 -78 -32.5 -148t-84 -118.5t-111.5 -81t-120 -43.5q49 -5 97 -28t90.5 -63t68.5 -104.5t26 -142.5 q0 -199 -147 -332t-354 -133q-164 0 -267.5 99.5t-103.5 251.5zM190 324q0 -138 92.5 -234t260.5 -96q106 0 197.5 38t152.5 100.5t95 142t34 163.5q0 152 -99 239t-253 87q-94 0 -180 -30.5t-153 -85.5t-107 -139.5t-40 -184.5zM373 1071q0 -122 83.5 -203.5t217.5 -81.5 q163 0 287 114t124 261q0 120 -78.5 199.5t-222.5 79.5q-183 0 -297 -108t-114 -261z" />
<glyph horiz-adv-x="1085" d="M203 86l16 16q104 -108 270 -108q165 0 295.5 108.5t206 291t96.5 415.5q-28 -48 -68.5 -93t-97 -87.5t-131.5 -68t-157 -25.5q-87 0 -156 30t-110.5 82t-63.5 116.5t-22 137.5q0 128 39 234.5t107 177t160 109t197 38.5q76 0 135.5 -24.5t97 -65.5t62 -98.5t34 -118 t9.5 -129.5q0 -159 -22.5 -307.5t-73 -285t-123 -237.5t-180.5 -161t-238 -60q-165 0 -282 113zM303 905q0 -70 20 -131.5t59 -111t103.5 -78.5t147.5 -29q143 0 261 81t198 214q7 64 8.5 121.5t-4 118t-18.5 111t-37.5 95.5t-59 76.5t-86 49.5t-115.5 18q-97 0 -183 -36.5 t-151.5 -103t-104 -169t-38.5 -226.5z" />
</font>
</defs>
</svg>
