<?xml version="1.0" standalone="no"?>
<!DOCTYPE svg PUBLIC "-//W3C//DTD SVG 1.1//EN" "http://www.w3.org/Graphics/SVG/1.1/DTD/svg11.dtd" >
<svg xmlns="http://www.w3.org/2000/svg" xmlns:xlink="http://www.w3.org/1999/xlink" version="1.1">
<metadata></metadata>
<defs>
<font id="geomanistthin" horiz-adv-x="364" >
<font-face units-per-em="2048" ascent="1536" descent="-512" />
<missing-glyph horiz-adv-x="567" />
<glyph unicode="&#x2e;&#x2e;&#x2e;" horiz-adv-x="1212" d="M135 16q0 19 12 31t31 12t31 -12t12 -31t-12 -31t-31 -12t-31 12t-12 31zM563 16q0 19 12 31t31 12t31 -12t12 -31t-12 -31t-31 -12t-31 12t-12 31zM991 16q0 19 12 31t31 12t31 -12t12 -31t-12 -31t-31 -12t-31 12t-12 31z" />
<glyph unicode=" "  horiz-adv-x="567" />
<glyph unicode="&#x09;" horiz-adv-x="567" />
<glyph unicode="&#xa0;" horiz-adv-x="567" />
<glyph unicode="!" horiz-adv-x="448" d="M180 16q0 19 12 31t31 12t31 -12t12 -31t-12 -31t-31 -12t-31 12t-12 31zM213 305v1129h20v-1129h-20z" />
<glyph unicode="&#x22;" horiz-adv-x="432" d="M133 1126v308h19v-308h-19zM281 1126v308h18v-308h-18z" />
<glyph unicode="#" horiz-adv-x="1300" d="M76 434l2 21h293l108 522h-289l3 20h290l92 437h21l-92 -437h403l92 437h21l-92 -437h299l-2 -20h-301l-109 -522h297l-2 -21h-299l-90 -434h-21l91 434h-404l-90 -434h-21l91 434h-291zM391 455h404l108 522h-403z" />
<glyph unicode="$" horiz-adv-x="1001" d="M102 260l19 6q105 -272 391 -272q160 0 262.5 90t102.5 250q0 97 -40.5 171t-105 119.5t-142.5 83.5t-156 74.5t-142.5 80t-105 113t-40.5 161.5q0 136 95 228t256 95v109h20v-109q73 -1 133.5 -22.5t100.5 -57t65 -68.5t43 -71l-18 -8q-17 36 -41 68t-63 65.5 t-98.5 53.5t-131.5 20q-156 0 -248 -87t-92 -216q0 -69 25 -124.5t67.5 -94t97 -70.5t115.5 -60t121.5 -56.5t115 -64.5t97 -80t67.5 -108.5t25 -144.5q0 -162 -105.5 -260t-273.5 -101v-149h-20v149q-291 8 -396 287z" />
<glyph unicode="%" horiz-adv-x="1435" d="M121 1182q0 117 76 197.5t194 80.5t194.5 -80.5t76.5 -197.5t-76.5 -198t-194.5 -81t-194 80.5t-76 198.5zM139 1182q0 -110 71.5 -185t180.5 -75t180.5 75t71.5 185t-71.5 185t-180.5 75t-180.5 -75t-71.5 -185zM154 0l1099 1434h27l-1100 -1434h-26zM772 252 q0 117 76 197.5t194 80.5t194.5 -80.5t76.5 -197.5t-76.5 -198t-194.5 -81t-194 80.5t-76 198.5zM791 252q0 -110 71 -185t180 -75t180.5 75t71.5 185t-71.5 185t-180.5 75t-180 -75t-71 -185z" />
<glyph unicode="&#x26;" horiz-adv-x="1218" d="M100 371q0 244 285 381q-3 3 -32.5 33t-41 42.5t-38.5 44t-40 54.5t-30 55.5t-24 66t-7 68.5q0 149 97.5 246.5t254.5 97.5q165 0 265 -97t100 -247q0 -68 -27.5 -128t-83.5 -112.5t-126 -97.5t-169 -94l510 -477q63 89 88 192.5t25 249.5h20q0 -153 -25.5 -255.5 t-90.5 -200.5l186 -170l-16 -17l-183 170q-82 -91 -185.5 -147t-252.5 -56q-196 0 -327.5 111t-131.5 287zM121 371q0 -164 125 -270.5t313 -106.5q132 0 240.5 56t181.5 140l-580 545q-40 -18 -76 -40t-74.5 -55.5t-66 -71t-45.5 -89t-18 -108.5zM193 1116 q0 -45 16.5 -91.5t37.5 -82t60.5 -81t67 -72.5t74.5 -72l6 -6t5.5 -5t6.5 -6q93 45 160.5 87t124.5 93.5t86.5 110.5t29.5 125q0 138 -95 231t-249 93q-144 0 -237.5 -93.5t-93.5 -230.5z" />
<glyph unicode="'" horiz-adv-x="284" d="M133 1126v308h19v-308h-19z" />
<glyph unicode="(" horiz-adv-x="518" d="M190 -111v1405q0 183 150 183h25v-21h-25q-129 0 -129 -162v-1405q0 -161 129 -161h25v-21h-25q-150 0 -150 182z" />
<glyph unicode=")" horiz-adv-x="516" d="M152 -272h24q129 0 129 161v1405q0 162 -129 162h-24v21h24q150 0 150 -183v-1405q0 -182 -150 -182h-24v21z" />
<glyph unicode="*" horiz-adv-x="862" d="M145 948l267 160l-267 160l11 16l264 -160v310h20v-310l265 160l10 -16l-266 -160l266 -160l-10 -16l-265 158v-308h-20v308l-264 -158z" />
<glyph unicode="+" horiz-adv-x="1126" d="M90 627v20h463v490h20v-490h461v-20h-461v-488h-20v488h-463z" />
<glyph unicode="," horiz-adv-x="354" d="M135 16q0 19 12 31t31 12t31 -13.5t12 -39.5q0 -88 -74 -172l-12 12q22 22 43.5 58.5t22.5 72.5q-8 -4 -23 -4q-19 0 -31 12t-12 31z" />
<glyph unicode="-" horiz-adv-x="616" d="M76 602v21h463v-21h-463z" />
<glyph unicode="." horiz-adv-x="358" d="M135 16q0 19 12 31t31 12t31 -12t12 -31t-12 -31t-31 -12t-31 12t-12 31z" />
<glyph unicode="/" horiz-adv-x="806" d="M78 -221l627 1757h22l-627 -1757h-22z" />
<glyph unicode="0" horiz-adv-x="1085" d="M115 717q0 118 7 209.5t24.5 179t48.5 149.5t77.5 110t114.5 71.5t156 23.5t156 -23.5t114.5 -71.5t77.5 -110t48.5 -149.5t24.5 -179t7 -209.5q0 -142 -10 -248t-38 -203.5t-74.5 -159t-123.5 -97.5t-182 -36t-182 36t-123.5 97.5t-74.5 159t-38 203.5t-10 248zM135 717 q0 -114 6 -201.5t22 -173.5t45.5 -146.5t74 -107.5t110 -70.5t150.5 -23.5q73 0 132 18.5t101 50.5t73 82.5t50.5 108t31 135t15.5 154.5t4 174t-4 174t-15.5 154.5t-31 135t-50.5 108t-73 82.5t-101 50.5t-132 18.5q-85 0 -150.5 -23.5t-110 -70.5t-74 -107.5t-45.5 -146.5 t-22 -173.5t-6 -201.5z" />
<glyph unicode="1" horiz-adv-x="563" d="M135 1337l205 97h20v-1434h-20v1409l-195 -90z" />
<glyph unicode="2" horiz-adv-x="968" d="M94 0v20q0 75 41 150.5t106 141.5t144 133.5t158 139t144 145.5t106 165.5t41 187.5q0 66 -21 128t-62.5 114t-112 83.5t-161.5 31.5q-77 0 -140 -24.5t-103.5 -65.5t-65.5 -88.5t-35 -100.5l-18 6q9 52 34.5 101.5t68 93.5t109.5 71t150 27q95 0 169.5 -32.5 t118.5 -87.5t66.5 -120.5t22.5 -136.5q0 -98 -41 -192t-106 -169.5t-143.5 -148t-157.5 -140t-144 -132t-106 -137.5t-41 -144h766v-20h-787z" />
<glyph unicode="3" horiz-adv-x="1038" d="M86 250l18 8q100 -264 400 -264q166 0 279.5 111t113.5 278q0 184 -118 288.5t-294 104.5h-100v21l469 616h-725v21h750v-21l-467 -616h73q118 0 214.5 -45.5t157.5 -141.5t61 -227q0 -176 -119.5 -293t-294.5 -117q-91 0 -165 23t-122.5 64t-80 87.5t-50.5 102.5z" />
<glyph unicode="4" horiz-adv-x="1077" d="M74 397v21l698 1016h21v-1016h211v-21h-211v-397h-21v397h-698zM98 418h674v979z" />
<glyph unicode="5" horiz-adv-x="1026" d="M88 248l16 8q103 -262 388 -262q179 0 284 120.5t105 301.5q0 191 -114 316.5t-290 125.5q-181 0 -307 -119l-16 6l32 689h637v-21h-616l-33 -645q125 111 303 111q189 0 306.5 -133t117.5 -330q0 -186 -112 -314.5t-297 -128.5q-86 0 -157 23.5t-118.5 64t-78.5 87 t-50 100.5z" />
<glyph unicode="6" horiz-adv-x="1064" d="M115 594q0 426 118 646t353 220q93 0 163.5 -30.5t137.5 -81.5l-13 -17q-66 50 -133 79.5t-155 29.5q-226 0 -338.5 -212t-112.5 -603q20 48 52 92.5t80.5 87.5t118.5 68.5t151 25.5q103 0 184 -37.5t130 -100.5t74 -140.5t25 -163.5q0 -233 -113.5 -358.5t-299.5 -125.5 q-75 0 -136 19.5t-104 52.5t-76 81.5t-53 101t-32 116.5t-16.5 123.5t-4.5 126.5zM135 584q0 -590 402 -590q172 0 282.5 120t110.5 343q0 82 -25 157t-72 134.5t-123.5 95t-172.5 35.5q-143 0 -243.5 -80.5t-158.5 -214.5z" />
<glyph unicode="7" horiz-adv-x="923" d="M70 1413v21h800v-21l-548 -1413h-23l551 1413h-780z" />
<glyph unicode="8" horiz-adv-x="1069" d="M104 377q0 77 22 142t57.5 109.5t81.5 77t91.5 49.5t89.5 21q-110 22 -197 115.5t-87 222.5q0 160 108.5 253t264.5 93t264 -93t108 -253q0 -129 -87 -222.5t-197 -115.5q44 -4 89.5 -21t91.5 -49.5t81.5 -77t57.5 -109.5t22 -142q0 -174 -123.5 -289t-306.5 -115 t-307 115t-124 289zM125 377q0 -74 27.5 -142.5t78 -122t129.5 -86t175 -32.5t175 32.5t129 86.5t77.5 122t27.5 142q0 180 -117.5 283.5t-291.5 103.5t-292 -103.5t-118 -283.5zM182 1114q0 -129 103 -228.5t250 -99.5t249.5 99.5t102.5 228.5q0 137 -95 231.5t-257 94.5 q-163 0 -258 -94.5t-95 -231.5z" />
<glyph unicode="9" horiz-adv-x="1064" d="M115 977q0 232 113.5 357.5t299.5 125.5q87 0 155.5 -25t113.5 -71.5t76 -103.5t47.5 -130.5t23 -142t6.5 -147.5q0 -427 -118 -647t-353 -220q-92 0 -162.5 30.5t-138.5 82.5l12 16q66 -50 133.5 -79t155.5 -29q226 0 338.5 212t112.5 603q-20 -48 -52 -92.5 t-80.5 -87.5t-118.5 -68.5t-151 -25.5q-103 0 -184 37.5t-130 100.5t-74 140.5t-25 163.5zM135 977q0 -82 25 -157t72 -134.5t123.5 -95t172.5 -35.5q143 0 243.5 80.5t158.5 214.5q0 590 -402 590q-172 0 -282.5 -120t-110.5 -343z" />
<glyph unicode=":" horiz-adv-x="354" d="M135 16q0 19 12 31t31 12t31 -12t12 -31t-12 -31t-31 -12t-31 12t-12 31zM135 893q0 19 12 31t31 12t31 -12t12 -31t-12 -31t-31 -12t-31 12t-12 31z" />
<glyph unicode=";" horiz-adv-x="354" d="M135 16q0 19 12 31t31 12t31 -13.5t12 -39.5q0 -88 -74 -172l-12 12q22 22 43.5 58.5t22.5 72.5q-8 -4 -23 -4q-19 0 -31 12t-12 31zM135 893q0 19 12 31t31 12t31 -12t12 -31t-12 -31t-31 -12t-31 12t-12 31z" />
<glyph unicode="&#x3c;" horiz-adv-x="972" d="M84 639v20l805 373v-20l-787 -363l787 -362v-21z" />
<glyph unicode="=" horiz-adv-x="1124" d="M90 473v21h944v-21h-944zM90 766v20h944v-20h-944z" />
<glyph unicode="&#x3e;" horiz-adv-x="972" d="M84 266v21l786 362l-786 363v20l805 -373v-20z" />
<glyph unicode="?" horiz-adv-x="919" d="M115 1229q16 43 41.5 80.5t66 73t102 56.5t136.5 21q162 0 261 -104.5t99 -259.5q0 -75 -22 -140.5t-57 -113.5t-77 -91.5t-84.5 -83.5t-77.5 -79.5t-57 -88t-22 -102.5v-92h-21v92q0 56 22 106.5t57 91t77.5 81t85 83.5t77.5 90.5t57 111t22 135.5q0 150 -94 247 t-246 97q-71 0 -128.5 -19t-95.5 -52t-63 -69t-41 -79zM369 16q0 19 12 31t31 12t31 -12t12 -31t-12 -31t-31 -12t-31 12t-12 31z" />
<glyph unicode="@" horiz-adv-x="1789" d="M104 541q0 170 57 323.5t158.5 268.5t251.5 183t326 68q173 0 322.5 -66t249.5 -174.5t157 -249t57 -290.5q0 -235 -83 -356t-209 -121q-79 0 -126.5 47.5t-47.5 134.5v68q-13 -45 -40 -87t-68.5 -80t-102.5 -60.5t-132 -22.5q-150 0 -256 113.5t-106 289.5 q0 175 106.5 289.5t255.5 114.5q75 0 139.5 -27.5t105.5 -69t66.5 -84.5t31.5 -81v250h20v-613q0 -76 42 -119t114 -43q112 0 191 117t79 340q0 95 -24.5 188.5t-70.5 178t-114 156.5t-151.5 124.5t-187.5 82.5t-218 30q-171 0 -317.5 -67t-245 -179.5t-154 -262 t-55.5 -314.5t59 -315.5t159 -259t239 -172.5t292 -64q102 0 206 25t171 61l11 -19q-61 -34 -167 -61t-221 -27q-160 0 -303.5 66t-245.5 178t-161.5 265.5t-59.5 322.5zM532 530q0 -165 100 -274t242 -109q68 0 129.5 25t110.5 71.5t78 121t29 165.5q0 169 -97.5 276 t-249.5 107q-141 0 -241.5 -108t-100.5 -275z" />
<glyph unicode="A" horiz-adv-x="1218" d="M37 0l561 1434h20l562 -1434h-25l-227 584h-639l-228 -584h-24zM297 604h623l-312 799z" />
<glyph unicode="B" horiz-adv-x="1048" d="M190 0v1434h328q170 0 270.5 -96.5t100.5 -250.5q0 -65 -19 -119.5t-48 -91t-67.5 -63.5t-75.5 -41t-73 -20q44 -4 88 -19t88.5 -44.5t78.5 -70t55.5 -102t21.5 -135.5q0 -174 -112.5 -277.5t-307.5 -103.5h-328zM211 20h307q184 0 292 97.5t108 263.5q0 117 -56 200.5 t-144.5 121.5t-199.5 38h-307v-721zM211 762h307q151 0 250.5 87.5t99.5 237.5q0 147 -96 236.5t-254 89.5h-307v-651z" />
<glyph unicode="C" horiz-adv-x="1386" d="M96 717q0 208 94 379t255.5 267.5t355.5 96.5q86 0 165 -18.5t136 -47.5t93 -54t62 -50l-14 -14q-25 23 -58 45.5t-88.5 52t-133 48t-162.5 18.5q-139 0 -264 -54t-218 -148.5t-147.5 -230t-54.5 -290.5t54.5 -290.5t147.5 -230t218 -148.5t264 -54q87 0 166 18t135.5 48 t88.5 52.5t58 45.5l15 -15q-195 -170 -463 -170q-145 0 -275.5 57t-225 155.5t-149.5 237t-55 294.5z" />
<glyph unicode="D" horiz-adv-x="1259" d="M190 0v1434h222q337 0 544 -195t207 -522q0 -222 -94 -385t-262 -247.5t-391 -84.5h-226zM211 20h205q217 0 380.5 82t255 240.5t91.5 374.5q0 317 -201.5 506.5t-529.5 189.5h-201v-1393z" />
<glyph unicode="E" horiz-adv-x="954" d="M190 0v1434h615v-21h-594v-668h524v-20h-524v-705h618v-20h-639z" />
<glyph unicode="F" horiz-adv-x="937" d="M190 0v1434h615v-21h-594v-674h522v-20h-522v-719h-21z" />
<glyph unicode="G" horiz-adv-x="1480" d="M96 717q0 208 94 379t255.5 267.5t355.5 96.5q87 0 167 -18.5t137.5 -47.5t94 -54t62.5 -50l-15 -14q-25 23 -58 45.5t-89 52t-134.5 48t-164.5 18.5q-139 0 -264 -54t-218 -148.5t-147.5 -230t-54.5 -290.5t54.5 -290.5t147.5 -230t218 -148.5t264 -54q80 0 156 17.5 t129 41.5t103.5 57t75 54t46.5 43v430h-383v20h403v-462q-231 -222 -530 -222q-145 0 -275.5 57t-225 155.5t-149.5 237t-55 294.5z" />
<glyph unicode="H" horiz-adv-x="1380" d="M190 0v1434h21v-686h958v686h21v-1434h-21v727h-958v-727h-21z" />
<glyph unicode="I" horiz-adv-x="401" d="M190 0v1434h21v-1434h-21z" />
<glyph unicode="J" horiz-adv-x="636" d="M51 8l4 23q72 -23 144 -23q227 0 227 277v1149h20v-1149q0 -297 -247 -297q-88 0 -148 20z" />
<glyph unicode="K" horiz-adv-x="1036" d="M190 0v1434h21v-680l711 680h30l-719 -686l754 -748h-31l-745 741v-741h-21z" />
<glyph unicode="L" horiz-adv-x="905" d="M190 0v1434h21v-1414h618v-20h-639z" />
<glyph unicode="M" horiz-adv-x="1699" d="M190 0v1434h21l639 -1262l639 1262h20v-1434h-20v1389l-629 -1246h-20l-629 1246v-1389h-21z" />
<glyph unicode="N" horiz-adv-x="1417" d="M190 0v1434h19l997 -1393v1393h21v-1434h-19l-997 1395v-1395h-21z" />
<glyph unicode="O" horiz-adv-x="1617" d="M96 717q0 157 55.5 295.5t150.5 236.5t227 154.5t280 56.5t280 -56.5t227 -154.5t150.5 -236.5t55.5 -295.5q0 -209 -94 -380t-257.5 -267.5t-361.5 -96.5t-361.5 96.5t-257.5 267.5t-94 380zM117 717q0 -153 53.5 -287.5t145.5 -230t220 -150.5t273 -55t273 55 t220 150.5t145.5 230t53.5 287.5t-53.5 287.5t-145.5 230t-220 150.5t-273 55t-273 -55t-220 -150.5t-145.5 -230t-53.5 -287.5z" />
<glyph unicode="P" horiz-adv-x="956" d="M190 0v1434h299q180 0 289 -99t109 -276q0 -178 -111 -277.5t-287 -99.5h-278v-682h-21zM211 702h278q171 0 274 96.5t103 260.5q0 165 -101.5 259.5t-275.5 94.5h-278v-711z" />
<glyph unicode="Q" horiz-adv-x="1628" d="M96 717q0 157 55.5 295.5t150.5 236.5t227 154.5t280 56.5t280 -56.5t227 -154.5t150.5 -236.5t55.5 -295.5q0 -165 -61 -308t-169 -247l170 -172l-12 -13l-172 173q-94 -85 -214 -131t-255 -46q-198 0 -361.5 96.5t-257.5 267.5t-94 380zM117 717q0 -153 53.5 -287.5 t145.5 -230t220 -150.5t273 -55q266 0 457 172l-181 186l13 13l182 -187q104 98 162.5 237.5t58.5 301.5q0 153 -53.5 287.5t-145.5 230t-220 150.5t-273 55t-273 -55t-220 -150.5t-145.5 -230t-53.5 -287.5z" />
<glyph unicode="R" horiz-adv-x="1026" d="M190 0v1434h281q188 0 295.5 -102.5t107.5 -264.5q0 -66 -18.5 -121.5t-47 -93t-68 -67t-78 -46t-80.5 -26.5l383 -713h-25l-379 709q-55 -11 -121 -11h-229v-698h-21zM211 719h229q190 0 302 94.5t112 253.5q0 152 -103 249t-280 97h-260v-694z" />
<glyph unicode="S" horiz-adv-x="1001" d="M102 260l19 6q105 -272 391 -272q160 0 262.5 90.5t102.5 249.5q0 77 -25 139.5t-67.5 105t-97.5 77.5t-115.5 63t-121 55.5t-115.5 60.5t-97.5 73t-67.5 98.5t-25 130.5q0 139 97.5 231t263.5 92q62 0 115.5 -14.5t90 -36.5t67 -53t48 -58t31.5 -57l-18 -8 q-17 36 -41 68t-63 65.5t-98.5 53.5t-131.5 20q-156 0 -248 -87t-92 -216q0 -69 25 -124.5t67.5 -94t97 -71t115.5 -60t121.5 -56t115 -65t97 -80.5t67.5 -108.5t25 -143.5q0 -164 -107 -262.5t-278 -98.5q-301 0 -410 287z" />
<glyph unicode="T" horiz-adv-x="1007" d="M47 1413v21h914v-21h-447v-1413h-20v1413h-447z" />
<glyph unicode="U" horiz-adv-x="1351" d="M178 489v945h21v-945q0 -229 128 -362t349 -133t349 133t128 362v945h21v-945q0 -237 -133.5 -376.5t-364.5 -139.5t-364.5 139.5t-133.5 376.5z" />
<glyph unicode="V" horiz-adv-x="1200" d="M27 1434h24l549 -1401l549 1401h25l-564 -1434h-20z" />
<glyph unicode="W" horiz-adv-x="1839" d="M27 1434h24l422 -1391l436 1391h21l436 -1391l422 1391h24l-436 -1434h-20l-436 1391l-437 -1391h-20z" />
<glyph unicode="X" horiz-adv-x="1148" d="M41 0l520 758l-461 676h25l448 -660l449 660h25l-459 -676l518 -758h-25l-508 741l-507 -741h-25z" />
<glyph unicode="Y" horiz-adv-x="964" d="M27 1434h24l432 -715l435 715h24l-448 -740v-694h-21v694z" />
<glyph unicode="Z" horiz-adv-x="1196" d="M80 0v20l993 1393h-960v21h987v-21l-996 -1393h1000v-20h-1024z" />
<glyph unicode="[" horiz-adv-x="518" d="M190 -293v1770h175v-21h-154v-1728h154v-21h-175z" />
<glyph unicode="\" horiz-adv-x="806" d="M78 1536h22l627 -1757h-22z" />
<glyph unicode="]" horiz-adv-x="503" d="M154 -272h153v1728h-153v21h174v-1770h-174v21z" />
<glyph unicode="^" horiz-adv-x="987" d="M106 651l379 783h17l379 -783h-21l-366 762l-367 -762h-21z" />
<glyph unicode="_" horiz-adv-x="1224" d="M90 -63h1043v-21h-1043v21z" />
<glyph unicode="`" horiz-adv-x="1015" d="M426 1448h27l135 -250h-21z" />
<glyph unicode="a" horiz-adv-x="995" d="M84 322q0 148 108.5 247t278.5 99q123 0 225 -61t135 -163v267q0 173 -93.5 262.5t-248.5 89.5q-174 0 -348 -115l-12 19q172 116 360 116q167 0 265 -95t98 -277v-711h-21v201q-47 -106 -141 -167t-219 -61q-177 0 -282 102t-105 247zM104 322q0 -63 24 -121t69 -104.5 t116 -74.5t158 -28q157 0 260 97.5t103 230.5q0 138 -100.5 231.5t-262.5 93.5q-163 0 -265 -96t-102 -229z" />
<glyph unicode="b" horiz-adv-x="1232" d="M172 0v1481h21v-768q9 48 31.5 97t62.5 98.5t91 88t122.5 62.5t152.5 24q215 0 352.5 -155.5t137.5 -399.5q0 -243 -136 -399t-354 -156q-85 0 -159 26.5t-124 67.5t-88.5 94t-59 102.5t-29.5 96.5v-360h-21zM190 528q0 -144 56 -265t163 -195t244 -74q201 0 335 149 t134 385q0 233 -133.5 384t-335.5 151q-196 0 -329.5 -145t-133.5 -390z" />
<glyph unicode="c" horiz-adv-x="1105" d="M90 528q0 151 66.5 278t187 202t268.5 75q67 0 129 -15t104.5 -35t81 -48.5t58 -47t35.5 -38.5l-16 -14q-17 22 -44.5 47t-76 57t-120 53t-151.5 21q-138 0 -253.5 -70.5t-181.5 -193.5t-66 -271q0 -225 145 -379.5t356 -154.5q80 0 151.5 21t120 53t76 57t44.5 47 l16 -14q-22 -26 -50 -51t-78.5 -58.5t-124 -54.5t-155.5 -21q-148 0 -268.5 75t-187 202t-66.5 278z" />
<glyph unicode="d" horiz-adv-x="1232" d="M90 528q0 244 137.5 399.5t352.5 155.5q81 0 152.5 -24t122.5 -62.5t91 -88t62.5 -98.5t31.5 -97v768h21v-1481h-21v360q-9 -47 -29.5 -96.5t-59 -102.5t-88.5 -94t-124 -67.5t-159 -26.5q-218 0 -354 156t-136 399zM111 528q0 -236 134 -385t335 -149q137 0 244 74 t162.5 195t55.5 265q0 124 -36.5 226t-100 169t-147 103.5t-178.5 36.5q-202 0 -335.5 -151t-133.5 -384z" />
<glyph unicode="e" horiz-adv-x="1175" d="M90 547q0 119 42.5 221.5t112.5 170t160 106t185 38.5q144 0 258 -69t175.5 -185.5t61.5 -257.5v-34h-974q0 -248 142.5 -395.5t362.5 -147.5q269 0 414 217l17 -10q-141 -228 -431 -228q-113 0 -208.5 38t-166.5 109t-111 180.5t-40 246.5zM111 557h954 q0 121 -40.5 219.5t-108 159.5t-151.5 94t-175 33q-90 0 -176 -37t-153.5 -101.5t-108.5 -161t-41 -206.5z" />
<glyph unicode="f" horiz-adv-x="524" d="M63 1036v21h127v88q0 159 66 240t182 81q31 0 51 -4v-20q-20 4 -51 4q-108 0 -167.5 -75.5t-59.5 -231.5v-82h272v-21h-272v-1036h-21v1036h-127z" />
<glyph unicode="g" horiz-adv-x="1222" d="M88 528q0 243 136 399t354 156q85 0 159 -26.5t124 -67.5t88.5 -94t59 -102.5t29.5 -96.5v361h21v-934q0 -514 -481 -514q-94 0 -192.5 31t-170.5 79l10 17q75 -48 169.5 -77.5t183.5 -29.5q103 0 184.5 26t144.5 82t97 152t34 228v227q-9 -48 -31.5 -97t-62.5 -99 t-91 -88.5t-122.5 -62.5t-152.5 -24q-215 0 -352.5 155.5t-137.5 399.5zM109 528q0 -233 133.5 -383.5t335.5 -150.5q196 0 329 144.5t133 389.5q0 144 -55.5 265.5t-162.5 195.5t-244 74q-201 0 -335 -149.5t-134 -385.5z" />
<glyph unicode="h" horiz-adv-x="1099" d="M172 0v1481h21v-678q8 49 34 96.5t69.5 89.5t111.5 68t149 26q164 0 272.5 -99t108.5 -277v-707h-20v707q0 87 -29 156.5t-79.5 112t-114.5 65t-138 22.5q-161 0 -262.5 -105t-101.5 -288v-670h-21z" />
<glyph unicode="i" d="M141 1354q0 17 12 29t29 12q18 0 29.5 -11.5t11.5 -29.5t-11.5 -29.5t-29.5 -11.5q-17 0 -29 12t-12 29zM172 0v1057h21v-1057h-21z" />
<glyph unicode="j" d="M-86 -367q27 -2 43 -2q108 0 161.5 72t53.5 231v1123h21v-1123q0 -171 -58.5 -247t-177.5 -76l-43 2v20zM141 1354q0 17 12 29t29 12q18 0 29.5 -11.5t11.5 -29.5t-11.5 -29.5t-29.5 -11.5q-17 0 -29 12t-12 29z" />
<glyph unicode="k" horiz-adv-x="845" d="M172 0v1481h21v-891l573 469h35l-580 -473l606 -586h-34l-600 582v-582h-21z" />
<glyph unicode="l" d="M172 0v1481h21v-1481h-21z" />
<glyph unicode="m" horiz-adv-x="1777" d="M172 0v1057h21v-252q6 47 30 93.5t65 89t107.5 69t147.5 26.5q137 0 231.5 -72.5t120.5 -207.5q16 120 110.5 200t243.5 80q163 0 265 -98.5t102 -277.5v-707h-21v707q0 173 -97 264.5t-249 91.5t-248 -89.5t-96 -266.5v-707h-20v707q0 173 -95 264.5t-247 91.5 q-159 0 -254.5 -104t-95.5 -289v-670h-21z" />
<glyph unicode="n" horiz-adv-x="1099" d="M172 0v1057h21v-254q8 49 34 96.5t69.5 89.5t111.5 68t149 26q164 0 272.5 -99t108.5 -277v-707h-20v707q0 87 -29 156.5t-79.5 112t-114.5 65t-138 22.5q-161 0 -262.5 -105t-101.5 -288v-670h-21z" />
<glyph unicode="o" horiz-adv-x="1234" d="M90 528q0 237 149 396t377 159q151 0 272.5 -73t189 -200t67.5 -282t-67.5 -282t-189 -200t-272.5 -73q-228 0 -377 159t-149 396zM111 528q0 -147 63 -268.5t179.5 -193.5t262.5 -72t263 72t181 193.5t64 268.5t-64 269t-181 194t-263 72t-262.5 -72t-179.5 -194 t-63 -269z" />
<glyph unicode="p" horiz-adv-x="1232" d="M172 -383v1440h21v-361q9 47 29.5 96.5t59 102.5t88.5 94t124 67.5t159 26.5q218 0 354 -156t136 -399q0 -244 -137.5 -399.5t-352.5 -155.5q-81 0 -152.5 24t-122.5 62.5t-91 88.5t-62.5 99t-31.5 97v-727h-21zM190 528q0 -123 37 -225t100 -169t147 -103.5t179 -36.5 q202 0 335.5 150.5t133.5 383.5q0 236 -134 385.5t-335 149.5q-103 0 -191 -43.5t-147 -116.5t-92 -170.5t-33 -204.5z" />
<glyph unicode="q" horiz-adv-x="1232" d="M90 528q0 243 136 399t354 156q85 0 159 -26.5t124 -67.5t88.5 -94t59 -102.5t29.5 -96.5v361h21v-1440h-21v727q-9 -48 -31.5 -97t-62.5 -99t-91 -88.5t-122.5 -62.5t-152.5 -24q-215 0 -352.5 155.5t-137.5 399.5zM111 528q0 -233 133.5 -383.5t335.5 -150.5 q196 0 329 144.5t133 389.5q0 144 -55.5 265.5t-162.5 195.5t-244 74q-201 0 -335 -149.5t-134 -385.5z" />
<glyph unicode="r" horiz-adv-x="581" d="M172 0v1057h21v-266q8 46 32.5 93.5t65.5 92t105 74t141 32.5v-20q-151 -6 -247.5 -118.5t-96.5 -291.5v-653h-21z" />
<glyph unicode="s" horiz-adv-x="813" d="M98 221l19 6q30 -102 104 -167.5t201 -65.5q117 0 198.5 72.5t81.5 191.5q0 70 -31.5 122t-81.5 84t-111 58t-121.5 52t-110.5 58t-81.5 84t-31.5 122q0 113 80 179t197 66q218 0 286 -202l-18 -9q-13 36 -30 65t-47 60t-79 48.5t-112 17.5q-109 0 -182.5 -61t-73.5 -164 q0 -52 19.5 -93t52.5 -69t75.5 -51.5t90 -43t94.5 -39t89.5 -45.5t75.5 -57t52.5 -77.5t19.5 -104.5q0 -123 -85 -204t-214 -81q-74 0 -133 21.5t-96 58.5t-60 78t-37 90z" />
<glyph unicode="t" horiz-adv-x="514" d="M31 1036v21h141v221h21v-221h270v-21h-270v-717q0 -172 50.5 -241.5t166.5 -69.5q41 0 65 4v-20q-40 -4 -63 -4q-130 0 -185 75t-55 250v723h-141z" />
<glyph unicode="u" horiz-adv-x="1081" d="M162 350v707h20v-707q0 -87 29 -156.5t79.5 -112t114.5 -65t138 -22.5q161 0 262.5 105t101.5 288v670h21v-1057h-21v254q-8 -49 -34 -96.5t-69.5 -90t-111.5 -68.5t-149 -26q-164 0 -272.5 99.5t-108.5 277.5z" />
<glyph unicode="v" horiz-adv-x="929" d="M16 1057h25l424 -1028l424 1028h24l-438 -1057h-20z" />
<glyph unicode="w" horiz-adv-x="1646" d="M16 1057h25l387 -1026l383 1026h25l383 -1026l387 1026h24l-401 -1057h-21l-385 1030l-385 -1030h-20z" />
<glyph unicode="x" horiz-adv-x="925" d="M39 0l410 557l-369 500h26l357 -484l356 484h27l-369 -500l410 -557h-29l-395 543l-395 -543h-29z" />
<glyph unicode="y" horiz-adv-x="964" d="M14 1057h25l448 -1030l439 1030h24l-604 -1424h-24l153 365z" />
<glyph unicode="z" horiz-adv-x="933" d="M74 0v23l739 1013h-711v21h738v-21l-738 -1013h750v-23h-778z" />
<glyph unicode="{" horiz-adv-x="536" d="M59 582v20q152 0 152 217v475q0 183 149 183h25v-21h-25q-129 0 -129 -162v-475q0 -105 -32.5 -159t-83.5 -68q51 -14 83.5 -68t32.5 -159v-476q0 -161 129 -161h25v-21h-25q-149 0 -149 182v476q0 217 -152 217z" />
<glyph unicode="|" horiz-adv-x="442" d="M211 -348v1851h20v-1851h-20z" />
<glyph unicode="}" horiz-adv-x="536" d="M152 -272h24q129 0 129 161v476q0 195 117 227q-117 32 -117 227v475q0 162 -129 162h-24v21h24q150 0 150 -183v-475q0 -217 151 -217v-20q-151 0 -151 -217v-476q0 -182 -150 -182h-24v21z" />
<glyph unicode="~" horiz-adv-x="1075" d="M117 528q0 81 54 140t153 59q50 0 96 -19t83 -46.5t73.5 -55t81.5 -46.5t92 -19q86 0 136 52t50 126h20q0 -81 -53.5 -140t-152.5 -59q-50 0 -96.5 19.5t-83.5 47t-73.5 54.5t-81 46.5t-91.5 19.5q-86 0 -136.5 -52.5t-50.5 -126.5h-20z" />
<glyph unicode="&#xa1;" horiz-adv-x="448" d="M180 1104q0 19 12 31t31 12t31 -12t12 -31t-12 -31t-31 -12t-31 12t-12 31zM213 -313v1128h20v-1128h-20z" />
<glyph unicode="&#xa2;" horiz-adv-x="1124" d="M90 692q0 149 65.5 275.5t184 202t264.5 77.5v189h21v-189q79 -2 149.5 -23.5t120 -54.5t76.5 -56.5t49 -49.5l-16 -14q-17 22 -44.5 47t-76 57t-120 53t-151.5 21q-138 0 -253.5 -70.5t-181.5 -193.5t-66 -271q0 -225 145 -379.5t356 -154.5q80 0 151.5 21t120 53t76 57 t44.5 47l16 -14q-22 -26 -49.5 -50.5t-76.5 -57.5t-119.5 -54.5t-149.5 -22.5v-137h-21v137q-146 2 -264.5 77t-184 201.5t-65.5 276.5z" />
<glyph unicode="&#xa3;" horiz-adv-x="1091" d="M92 0v20h158v701h-133v20h133v328q0 176 95.5 283.5t266.5 107.5q69 0 129 -21t100.5 -55t66.5 -69.5t40 -71.5l-16 -8q-32 79 -114.5 142t-205.5 63q-164 0 -253 -100t-89 -271v-328h377v-20h-377v-701h705v-20h-883z" />
<glyph unicode="&#xa5;" horiz-adv-x="964" d="M27 1434h24l432 -715l435 715h24l-438 -721h327v-21h-337v-246h337v-20h-337v-426h-21v426h-340v20h340v246h-340v21h330z" />
<glyph unicode="&#xa7;" horiz-adv-x="897" d="M76 625q0 107 64.5 180.5t170.5 97.5q-84 57 -133 125t-49 172q0 128 92 214.5t244 86.5q252 0 332 -196l-19 -7q-80 183 -313 183q-143 0 -229 -80.5t-86 -200.5q0 -99 53.5 -170t154.5 -131l217 -127q51 -30 87.5 -57t75 -65.5t59 -86.5t20.5 -102q0 -107 -64 -180 t-171 -97q84 -57 133 -125t49 -172q0 -128 -92 -214.5t-244 -86.5q-252 0 -332 197l19 6q80 -182 313 -182q143 0 229 80t86 200q0 99 -53.5 170t-154.5 131l-218 127q-51 30 -87.5 57t-75 65.5t-58.5 86t-20 101.5zM96 625q0 -90 64.5 -161t175.5 -136l219 -127 q104 12 173 84.5t69 175.5q0 91 -62.5 162.5t-177.5 138.5l-219 125q-104 -12 -173 -85.5t-69 -176.5z" />
<glyph unicode="&#xa8;" horiz-adv-x="1015" d="M303 1327q0 19 12 31t31 12q20 0 31.5 -12t11.5 -31t-11.5 -31t-31.5 -12q-19 0 -31 12t-12 31zM625 1327q0 19 12 31t31 12q20 0 31.5 -12t11.5 -31t-11.5 -31t-31.5 -12q-19 0 -31 12t-12 31z" />
<glyph unicode="&#xa9;" horiz-adv-x="1658" d="M106 717q0 126 36 240.5t102 205.5t155 158t199.5 103t230.5 36t230.5 -36t199.5 -103t155 -158t102 -205.5t36 -240.5q0 -157 -56 -295.5t-152.5 -236.5t-230.5 -155t-284 -57t-284 57t-230.5 155t-152.5 236.5t-56 295.5zM127 717q0 -153 54.5 -287.5t148 -230 t223.5 -150.5t276 -55t276 55t224 150.5t148.5 230t54.5 287.5t-54.5 287.5t-148.5 230t-224 150.5t-276 55t-276 -55t-223.5 -150.5t-148 -230t-54.5 -287.5zM457 709q0 169 102.5 284t269.5 115q59 0 111.5 -14.5t88.5 -37.5t57 -41t36 -36l-8 -18q-13 16 -33.5 33.5 t-55.5 40.5t-87 37.5t-109 14.5q-159 0 -255.5 -108t-96.5 -270t96.5 -270.5t255.5 -108.5q57 0 109 15t87 38t55.5 40.5t33.5 33.5l8 -19q-15 -18 -36 -36t-57 -41t-88.5 -37.5t-111.5 -14.5q-167 0 -269.5 115.5t-102.5 284.5z" />
<glyph unicode="&#xaa;" horiz-adv-x="829" d="M115 879q0 103 81 183.5t210 80.5q96 0 168.5 -48t101.5 -122v211q0 120 -69 188t-181 68q-136 0 -268 -80l-11 18q141 82 279 82q128 0 199 -74.5t71 -199.5v-553h-16l-4 149q-12 -25 -30 -49t-50 -53.5t-81.5 -47.5t-108.5 -18q-131 0 -211 76.5t-80 188.5zM135 879 q0 -97 74 -170.5t197 -73.5q115 0 193.5 73.5t78.5 172.5q0 98 -78 169.5t-194 71.5q-122 0 -196.5 -74t-74.5 -169z" />
<glyph unicode="&#xab;" horiz-adv-x="727" d="M84 592l260 366h25l-260 -366l260 -365h-25zM350 592l260 366h25l-260 -366l260 -365h-25z" />
<glyph unicode="&#xad;" horiz-adv-x="616" d="M76 602v21h463v-21h-463z" />
<glyph unicode="&#xae;" horiz-adv-x="925" d="M57 1108q0 165 112 283t288 118t287.5 -118t111.5 -283t-111.5 -283t-287.5 -118t-288 118t-112 283zM78 1108q0 -159 105.5 -270t273.5 -111t273.5 111t105.5 270t-105.5 270t-273.5 111t-273.5 -111t-105.5 -270zM350 889v442h119q56 0 89.5 -35.5t33.5 -89.5 q0 -39 -23 -73t-59 -48l100 -196h-22l-96 192q-11 -2 -23 -2h-98v-190h-21zM371 1100h98q41 0 71.5 31.5t30.5 74.5q0 42 -26.5 73.5t-75.5 31.5h-98v-211z" />
<glyph unicode="&#xaf;" horiz-adv-x="937" d="M256 1350v20h426v-20h-426z" />
<glyph unicode="&#xb0;" horiz-adv-x="673" d="M82 1200q0 109 70.5 184.5t183.5 75.5t183.5 -75.5t70.5 -184.5t-70.5 -184.5t-183.5 -75.5t-183.5 75.5t-70.5 184.5zM102 1200q0 -101 65.5 -170t168.5 -69t168 69t65 170q0 102 -65 171t-168 69t-168.5 -69.5t-65.5 -170.5z" />
<glyph unicode="&#xb2;" horiz-adv-x="655" d="M123 627v20q0 53 22 103t57 90t77 78.5t84.5 75.5t77.5 74.5t57 82t22 90.5q0 75 -50 132t-140 57q-73 0 -119 -39t-68 -91l-18 9q26 64 79 102.5t126 38.5q102 0 156.5 -61.5t54.5 -147.5q0 -56 -29.5 -110.5t-73.5 -95.5t-96 -88t-96 -88.5t-73.5 -97.5t-29.5 -114h410 v-20h-430z" />
<glyph unicode="&#xb3;" horiz-adv-x="657" d="M98 758l19 8q25 -55 78.5 -95t136.5 -40q97 0 157 56.5t60 152.5t-60 153.5t-167 57.5h-60v20l258 342h-383v21h410v-21l-260 -342h35q107 0 177 -59t70 -172q0 -106 -65.5 -168t-171.5 -62q-82 0 -141.5 40.5t-92.5 107.5z" />
<glyph unicode="&#xb4;" horiz-adv-x="1015" d="M426 1198l135 250h27l-142 -250h-20z" />
<glyph unicode="&#xb6;" horiz-adv-x="888" d="M100 1063q0 151 109 261t260 110h57v-1526h-20v784h-25q-159 0 -270 110t-111 261zM678 -92v1526h20v-1526h-20z" />
<glyph unicode="&#xb7;" horiz-adv-x="407" d="M160 645q0 19 12 31t31 12t31 -12t12 -31t-12 -31t-31 -12t-31 12t-12 31z" />
<glyph unicode="&#xb8;" horiz-adv-x="937" d="M350 -436l2 18q32 -4 56 -4q73 0 117 33.5t44 97.5q0 53 -45.5 85t-122.5 32h-22l22 192h19l-21 -174q86 0 137.5 -37.5t51.5 -97.5q0 -77 -50 -113t-130 -36z" />
<glyph unicode="&#xb9;" horiz-adv-x="444" d="M125 1372l131 62h20v-807h-20v786l-123 -57z" />
<glyph unicode="&#xba;" horiz-adv-x="927" d="M55 1036q0 184 115.5 304t292.5 120t292 -120t115 -304t-115 -304t-292 -120t-292.5 120t-115.5 304zM76 1036q0 -178 110.5 -290.5t276.5 -112.5t276.5 112.5t110.5 290.5t-110.5 291t-276.5 113t-276.5 -113t-110.5 -291z" />
<glyph unicode="&#xbb;" horiz-adv-x="727" d="M84 227l260 365l-260 366h25l260 -366l-260 -365h-25zM350 227l260 365l-260 366h25l260 -366l-260 -365h-25z" />
<glyph unicode="&#xbc;" horiz-adv-x="1511" d="M219 1372l131 62h21v-807h-21v786l-123 -57zM352 -84l834 1602h22l-833 -1602h-23zM872 180v21l412 606h21v-606h106v-21h-106v-180h-21v180h-412zM897 201h387v571z" />
<glyph unicode="&#xbd;" horiz-adv-x="1527" d="M219 1372l131 62h21v-807h-21v786l-123 -57zM299 -84l834 1602h22l-833 -1602h-23zM956 0v20q0 53 22 103t57 90t77.5 78.5t85 75.5t77.5 74.5t57 82t22 90.5q0 75 -50 132t-141 57q-73 0 -118.5 -38.5t-67.5 -90.5l-19 8q26 64 79 102.5t126 38.5q100 0 155.5 -62 t55.5 -147q0 -49 -22 -95.5t-57 -85t-77 -76t-84.5 -75.5t-77.5 -77t-57 -86.5t-22 -98.5h409v-20h-430z" />
<glyph unicode="&#xbe;" horiz-adv-x="1648" d="M152 758l18 8q25 -55 78.5 -95t136.5 -40q97 0 157 56.5t60 152.5t-60 153.5t-167 57.5h-60v20l258 342h-383v21h410v-21l-260 -342h35q107 0 177.5 -59t70.5 -172q0 -106 -66 -168t-172 -62q-82 0 -141 40.5t-92 107.5zM487 -84l834 1602h22l-833 -1602h-23zM958 180v21 l412 606h21v-606h106v-21h-106v-180h-21v180h-412zM983 201h387v571z" />
<glyph unicode="&#xbf;" horiz-adv-x="919" d="M98 25q0 75 22 140.5t57 113.5t77.5 91.5t85 83t77.5 79t57 88t22 102.5v92h20v-92q0 -56 -22 -106.5t-57 -91t-77 -80.5t-84.5 -83.5t-77.5 -90.5t-57 -110.5t-22 -135.5q0 -150 94 -247t246 -97q71 0 128 19t95.5 52t63 69t40.5 79l19 -9q-16 -43 -41.5 -80.5t-66 -73 t-102 -56.5t-136.5 -21q-162 0 -261.5 105t-99.5 260zM465 1104q0 19 12 31t31 12t31 -12t12 -31t-12 -31t-31 -12t-31 12t-12 31z" />
<glyph unicode="&#xc0;" horiz-adv-x="1216" d="M37 0l561 1434h20l562 -1434h-25l-227 584h-639l-228 -584h-24zM297 604h623l-312 799zM465 1788h27l135 -250h-21z" />
<glyph unicode="&#xc1;" horiz-adv-x="1216" d="M37 0h24l228 584h639l227 -584h25l-562 1434h-20zM297 604l311 799l312 -799h-623zM580 1538l135 250h26l-141 -250h-20z" />
<glyph unicode="&#xc2;" horiz-adv-x="1216" d="M37 0l561 1434h20l562 -1434h-25l-227 584h-639l-228 -584h-24zM297 604h623l-312 799zM403 1534l195 242h20l195 -242h-25l-180 223l-180 -223h-25z" />
<glyph unicode="&#xc3;" horiz-adv-x="1216" d="M37 0h24l228 584h639l227 -584h25l-562 1434h-20zM297 604l311 799l312 -799h-623zM344 1593q0 60 33 98t92 38q33 0 73 -18.5t71.5 -40t70.5 -40t70 -18.5q51 0 77.5 32t26.5 82h21q0 -60 -33 -97.5t-92 -37.5q-33 0 -73 18.5t-71.5 40t-70.5 40t-70 18.5 q-51 0 -77.5 -32.5t-26.5 -82.5h-21z" />
<glyph unicode="&#xc4;" horiz-adv-x="1218" d="M37 0h24l228 584h639l227 -584h25l-562 1434h-20zM297 604l311 799l312 -799h-623zM406 1653q0 19 12 31t31 12q20 0 31.5 -12t11.5 -31t-11.5 -31t-31.5 -12q-19 0 -31 12t-12 31zM727 1653q0 19 12 31t31 12q20 0 31.5 -12t11.5 -31t-11.5 -31t-31.5 -12q-19 0 -31 12 t-12 31z" />
<glyph unicode="&#xc5;" horiz-adv-x="1218" d="M37 0h24l228 584h639l227 -584h25l-562 1434h-20zM297 604l311 799l312 -799h-623zM469 1655q0 62 38.5 102.5t100.5 40.5t101 -40.5t39 -102.5t-39 -103t-101 -41t-100.5 41t-38.5 103zM487 1655q0 -55 33 -90t88 -35t88 35t33 90t-33 90t-88 35t-88 -35t-33 -90z" />
<glyph unicode="&#xc6;" horiz-adv-x="1546" d="M18 0l709 1434h670v-21h-594v-668h524v-20h-524v-705h618v-20h-639v584h-450l-287 -584h-27zM344 604h438v809h-45z" />
<glyph unicode="&#xc7;" horiz-adv-x="1386" d="M96 717q0 208 94 379t255.5 267.5t355.5 96.5q86 0 165 -18.5t136 -47.5t93 -54t62 -50l-14 -14q-25 23 -58 45.5t-88.5 52t-133 48t-162.5 18.5q-139 0 -264 -54t-218 -148.5t-147.5 -230t-54.5 -290.5t54.5 -290.5t147.5 -230t218 -148.5t264 -54q87 0 166 18t135.5 48 t88.5 52.5t58 45.5l15 -15q-195 -170 -463 -170q-8 0 -24.5 1t-24.5 1l-15 -131q86 0 137.5 -37.5t51.5 -97.5q0 -77 -50.5 -113t-130.5 -36l-57 4l2 18q32 -4 55 -4q73 0 117.5 33.5t44.5 97.5q0 53 -45.5 85t-122.5 32h-22l16 151q-178 16 -323.5 116t-229.5 264t-84 360z " />
<glyph unicode="&#xc8;" horiz-adv-x="954" d="M190 0v1434h615v-21h-594v-668h524v-20h-524v-705h618v-20h-639zM393 1788h27l135 -250h-20z" />
<glyph unicode="&#xc9;" horiz-adv-x="954" d="M190 0v1434h615v-21h-594v-668h524v-20h-524v-705h618v-20h-639zM483 1538l135 250h27l-141 -250h-21z" />
<glyph unicode="&#xca;" horiz-adv-x="954" d="M190 0v1434h615v-21h-594v-668h524v-20h-524v-705h618v-20h-639zM307 1534l195 242h20l195 -242h-25l-180 223l-180 -223h-25z" />
<glyph unicode="&#xcb;" horiz-adv-x="954" d="M190 0v1434h615v-21h-594v-668h524v-20h-524v-705h618v-20h-639zM313 1653q0 19 12 31t31 12q20 0 31.5 -12t11.5 -31t-11.5 -31t-31.5 -12q-19 0 -31 12t-12 31zM635 1653q0 19 12 31t31 12q20 0 31.5 -12t11.5 -31t-11.5 -31t-31.5 -12q-19 0 -31 12t-12 31z" />
<glyph unicode="&#xcc;" horiz-adv-x="401" d="M61 1788h27l135 -250h-20zM190 0v1434h21v-1434h-21z" />
<glyph unicode="&#xcd;" horiz-adv-x="401" d="M172 1538l135 250h27l-141 -250h-21zM190 0v1434h21v-1434h-21z" />
<glyph unicode="&#xce;" horiz-adv-x="401" d="M2 1534l195 242h20l195 -242h-25l-180 223l-180 -223h-25zM190 0v1434h21v-1434h-21z" />
<glyph unicode="&#xcf;" horiz-adv-x="401" d="M0 1653q0 19 12 31t31 12q20 0 31.5 -12t11.5 -31t-11.5 -31t-31.5 -12q-19 0 -31 12t-12 31zM190 0v1434h21v-1434h-21zM322 1653q0 19 12 31t31 12q20 0 31.5 -12t11.5 -31t-11.5 -31t-31.5 -12q-19 0 -31 12t-12 31z" />
<glyph unicode="&#xd0;" horiz-adv-x="1259" d="M66 719v20h124v695h222q337 0 544 -195t207 -522q0 -222 -94 -385t-262 -247.5t-391 -84.5h-226v719h-124zM211 20h205q217 0 380.5 82t255 240.5t91.5 374.5q0 317 -201.5 506.5t-529.5 189.5h-201v-674h383v-20h-383v-699z" />
<glyph unicode="&#xd1;" horiz-adv-x="1417" d="M190 0v1434h19l997 -1393v1393h21v-1434h-19l-997 1395v-1395h-21zM455 1593q0 60 33 98t92 38q41 0 93 -29.5t102.5 -58.5t88.5 -29q52 0 78.5 32t26.5 82h20q0 -60 -33 -97.5t-92 -37.5q-41 0 -93 29.5t-102.5 58.5t-88.5 29q-52 0 -78.5 -32.5t-26.5 -82.5h-20z" />
<glyph unicode="&#xd2;" horiz-adv-x="1617" d="M96 717q0 157 55.5 295.5t150.5 236.5t227 154.5t280 56.5t280 -56.5t227 -154.5t150.5 -236.5t55.5 -295.5q0 -209 -94 -380t-257.5 -267.5t-361.5 -96.5t-361.5 96.5t-257.5 267.5t-94 380zM117 717q0 -153 53.5 -287.5t145.5 -230t220 -150.5t273 -55t273 55 t220 150.5t145.5 230t53.5 287.5t-53.5 287.5t-145.5 230t-220 150.5t-273 55t-273 -55t-220 -150.5t-145.5 -230t-53.5 -287.5zM649 1788h27l135 -250h-20z" />
<glyph unicode="&#xd3;" horiz-adv-x="1617" d="M96 717q0 157 55.5 295.5t150.5 236.5t227 154.5t280 56.5t280 -56.5t227 -154.5t150.5 -236.5t55.5 -295.5q0 -209 -94 -380t-257.5 -267.5t-361.5 -96.5t-361.5 96.5t-257.5 267.5t-94 380zM117 717q0 -153 53.5 -287.5t145.5 -230t220 -150.5t273 -55t273 55 t220 150.5t145.5 230t53.5 287.5t-53.5 287.5t-145.5 230t-220 150.5t-273 55t-273 -55t-220 -150.5t-145.5 -230t-53.5 -287.5zM766 1538l135 250h27l-142 -250h-20z" />
<glyph unicode="&#xd4;" horiz-adv-x="1617" d="M96 717q0 157 55.5 295.5t150.5 236.5t227 154.5t280 56.5t280 -56.5t227 -154.5t150.5 -236.5t55.5 -295.5q0 -209 -94 -380t-257.5 -267.5t-361.5 -96.5t-361.5 96.5t-257.5 267.5t-94 380zM117 717q0 -153 53.5 -287.5t145.5 -230t220 -150.5t273 -55t273 55 t220 150.5t145.5 230t53.5 287.5t-53.5 287.5t-145.5 230t-220 150.5t-273 55t-273 -55t-220 -150.5t-145.5 -230t-53.5 -287.5zM608 1534l195 242h20l195 -242h-25l-180 223l-180 -223h-25z" />
<glyph unicode="&#xd5;" horiz-adv-x="1617" d="M96 717q0 157 55.5 295.5t150.5 236.5t227 154.5t280 56.5t280 -56.5t227 -154.5t150.5 -236.5t55.5 -295.5q0 -209 -94 -380t-257.5 -267.5t-361.5 -96.5t-361.5 96.5t-257.5 267.5t-94 380zM117 717q0 -153 53.5 -287.5t145.5 -230t220 -150.5t273 -55t273 55 t220 150.5t145.5 230t53.5 287.5t-53.5 287.5t-145.5 230t-220 150.5t-273 55t-273 -55t-220 -150.5t-145.5 -230t-53.5 -287.5zM557 1593q0 60 33 98t92 38q33 0 73 -18.5t71.5 -40t70.5 -40t70 -18.5q51 0 77.5 32t26.5 82h21q0 -60 -33 -97.5t-92 -37.5q-33 0 -73 18.5 t-71.5 40t-70.5 40t-70 18.5q-51 0 -77.5 -32.5t-26.5 -82.5h-21z" />
<glyph unicode="&#xd6;" horiz-adv-x="1617" d="M96 717q0 157 55.5 295.5t150.5 236.5t227 154.5t280 56.5t280 -56.5t227 -154.5t150.5 -236.5t55.5 -295.5q0 -209 -94 -380t-257.5 -267.5t-361.5 -96.5t-361.5 96.5t-257.5 267.5t-94 380zM117 717q0 -153 53.5 -287.5t145.5 -230t220 -150.5t273 -55t273 55 t220 150.5t145.5 230t53.5 287.5t-53.5 287.5t-145.5 230t-220 150.5t-273 55t-273 -55t-220 -150.5t-145.5 -230t-53.5 -287.5zM614 1653q0 19 12 31t31 12q20 0 31.5 -12t11.5 -31t-11.5 -31t-31.5 -12q-19 0 -31 12t-12 31zM936 1653q0 19 12 31t31 12q20 0 31.5 -12 t11.5 -31t-11.5 -31t-31.5 -12q-19 0 -31 12t-12 31z" />
<glyph unicode="&#xd7;" horiz-adv-x="1095" d="M135 190l400 437l-400 438l15 14l397 -438l399 438l15 -14l-400 -438l400 -437l-15 -12l-399 434l-397 -434z" />
<glyph unicode="&#xd8;" horiz-adv-x="1617" d="M96 717q0 157 55.5 295.5t150.5 236.5t227 154.5t280 56.5q255 0 446 -155l113 143l16 -12l-114 -146q119 -103 185.5 -251t66.5 -322q0 -209 -94 -380t-257.5 -267.5t-361.5 -96.5q-260 0 -449 156l-112 -145l-17 10l115 147q-118 103 -184 252t-66 324zM117 717 q0 -170 63.5 -314.5t177.5 -244.5l885 1130q-188 152 -434 152q-145 0 -273 -55t-220 -150.5t-145.5 -230t-53.5 -287.5zM375 145q184 -151 434 -151q145 0 273 55t220 150.5t145.5 230t53.5 287.5q0 169 -64.5 313.5t-179.5 243.5z" />
<glyph unicode="&#xd9;" horiz-adv-x="1351" d="M178 489v945h21v-945q0 -229 128 -362t349 -133t349 133t128 362v945h21v-945q0 -237 -133.5 -376.5t-364.5 -139.5t-364.5 139.5t-133.5 376.5zM539 1788h26l135 -250h-20z" />
<glyph unicode="&#xda;" horiz-adv-x="1351" d="M178 489q0 -237 133.5 -376.5t364.5 -139.5t364.5 139.5t133.5 376.5v945h-21v-945q0 -229 -128 -362t-349 -133t-349 133t-128 362v945h-21v-945zM629 1538l135 250h27l-142 -250h-20z" />
<glyph unicode="&#xdb;" horiz-adv-x="1351" d="M178 489v945h21v-945q0 -229 128 -362t349 -133t349 133t128 362v945h21v-945q0 -237 -133.5 -376.5t-364.5 -139.5t-364.5 139.5t-133.5 376.5zM471 1534l195 242h20l195 -242h-25l-180 223l-180 -223h-25z" />
<glyph unicode="&#xdc;" horiz-adv-x="1351" d="M178 489q0 -237 133.5 -376.5t364.5 -139.5t364.5 139.5t133.5 376.5v945h-21v-945q0 -229 -128 -362t-349 -133t-349 133t-128 362v945h-21v-945zM479 1653q0 19 12 31t31 12q20 0 31.5 -12t11.5 -31t-11.5 -31t-31.5 -12q-19 0 -31 12t-12 31zM801 1653q0 19 12 31 t31 12q20 0 31.5 -12t11.5 -31t-11.5 -31t-31.5 -12q-19 0 -31 12t-12 31z" />
<glyph unicode="&#xdd;" horiz-adv-x="964" d="M27 1434h24l432 -715l435 715h24l-448 -740v-694h-21v694zM455 1538l135 250h26l-141 -250h-20z" />
<glyph unicode="&#xde;" horiz-adv-x="956" d="M190 0v1434h21v-312h278q181 0 289.5 -98.5t108.5 -275.5q0 -178 -111 -277.5t-287 -99.5h-278v-371h-21zM211 391h278q171 0 274 96.5t103 260.5q0 165 -101.5 259.5t-275.5 94.5h-278v-711z" />
<glyph unicode="&#xdf;" horiz-adv-x="1062" d="M172 0v1145q0 164 82.5 242.5t232.5 78.5q142 0 223 -80t81 -188q0 -58 -18.5 -106.5t-45 -78.5t-62 -52.5t-64 -33t-56.5 -16.5q85 -10 161.5 -44.5t137 -88.5t96 -133t35.5 -170q0 -101 -32 -183t-83.5 -135t-121 -89.5t-140.5 -52t-145 -15.5v20q67 0 133.5 14 t134 47.5t118.5 84t83 130.5t32 179q0 86 -31.5 158t-82.5 120t-117 82t-134.5 49t-135.5 15v21q42 0 84.5 9t85 30.5t75 52.5t52.5 79.5t20 106.5q0 95 -74.5 171.5t-208.5 76.5q-294 0 -294 -301v-1145h-21z" />
<glyph unicode="&#xe0;" horiz-adv-x="995" d="M84 322q0 148 108.5 247t278.5 99q123 0 225 -61t135 -163v267q0 173 -93.5 262.5t-248.5 89.5q-174 0 -348 -115l-12 19q172 116 360 116q167 0 265 -95t98 -277v-711h-21v201q-47 -106 -141 -167t-219 -61q-177 0 -282 102t-105 247zM104 322q0 -63 24 -121t69 -104.5 t116 -74.5t158 -28q157 0 260 97.5t103 230.5q0 138 -100.5 231.5t-262.5 93.5q-163 0 -265 -96t-102 -229zM375 1448h26l136 -250h-21z" />
<glyph unicode="&#xe1;" horiz-adv-x="995" d="M84 322q0 148 108.5 247t278.5 99q123 0 225 -61t135 -163v267q0 173 -93.5 262.5t-248.5 89.5q-174 0 -348 -115l-12 19q172 116 360 116q167 0 265 -95t98 -277v-711h-21v201q-47 -106 -141 -167t-219 -61q-177 0 -282 102t-105 247zM104 322q0 -63 24 -121t69 -104.5 t116 -74.5t158 -28q157 0 260 97.5t103 230.5q0 138 -100.5 231.5t-262.5 93.5q-163 0 -265 -96t-102 -229zM434 1198l135 250h27l-141 -250h-21z" />
<glyph unicode="&#xe2;" horiz-adv-x="995" d="M84 322q0 148 108.5 247t278.5 99q123 0 225 -61t135 -163v267q0 173 -93.5 262.5t-248.5 89.5q-174 0 -348 -115l-12 19q172 116 360 116q167 0 265 -95t98 -277v-711h-21v201q-47 -106 -141 -167t-219 -61q-177 0 -282 102t-105 247zM104 322q0 -63 24 -121t69 -104.5 t116 -74.5t158 -28q157 0 260 97.5t103 230.5q0 138 -100.5 231.5t-262.5 93.5q-163 0 -265 -96t-102 -229zM287 1214l194 242h21l194 -242h-24l-180 224l-181 -224h-24z" />
<glyph unicode="&#xe3;" horiz-adv-x="995" d="M84 322q0 148 108.5 247t278.5 99q123 0 225 -61t135 -163v267q0 173 -93.5 262.5t-248.5 89.5q-174 0 -348 -115l-12 19q172 116 360 116q167 0 265 -95t98 -277v-711h-21v201q-47 -106 -141 -167t-219 -61q-177 0 -282 102t-105 247zM104 322q0 -63 24 -121t69 -104.5 t116 -74.5t158 -28q157 0 260 97.5t103 230.5q0 138 -100.5 231.5t-262.5 93.5q-163 0 -265 -96t-102 -229zM229 1272q0 60 33 97.5t92 37.5q33 0 73 -18.5t71.5 -40t70.5 -40t70 -18.5q51 0 77.5 32.5t26.5 82.5h21q0 -60 -33 -97.5t-92 -37.5q-41 0 -93 29t-103 58t-89 29 q-51 0 -77.5 -32t-26.5 -82h-21z" />
<glyph unicode="&#xe4;" horiz-adv-x="995" d="M84 322q0 148 108.5 247t278.5 99q123 0 225 -61t135 -163v267q0 173 -93.5 262.5t-248.5 89.5q-174 0 -348 -115l-12 19q172 116 360 116q167 0 265 -95t98 -277v-711h-21v201q-47 -106 -141 -167t-219 -61q-177 0 -282 102t-105 247zM104 322q0 -63 24 -121t69 -104.5 t116 -74.5t158 -28q157 0 260 97.5t103 230.5q0 138 -100.5 231.5t-262.5 93.5q-163 0 -265 -96t-102 -229zM289 1327q0 19 12 31t31 12q20 0 31.5 -12t11.5 -31t-11.5 -31t-31.5 -12q-19 0 -31 12t-12 31zM610 1327q0 19 12 31t31 12q20 0 31.5 -12t11.5 -31t-11.5 -31 t-31.5 -12q-19 0 -31 12t-12 31z" />
<glyph unicode="&#xe5;" horiz-adv-x="995" d="M84 322q0 148 108.5 247t278.5 99q123 0 225 -61t135 -163v267q0 173 -93.5 262.5t-248.5 89.5q-174 0 -348 -115l-12 19q172 116 360 116q167 0 265 -95t98 -277v-711h-21v201q-47 -106 -141 -167t-219 -61q-177 0 -282 102t-105 247zM104 322q0 -63 24 -121t69 -104.5 t116 -74.5t158 -28q157 0 260 97.5t103 230.5q0 138 -100.5 231.5t-262.5 93.5q-163 0 -265 -96t-102 -229zM346 1331q0 62 38.5 103t100.5 41t101 -41t39 -103t-39 -102.5t-101 -40.5t-100.5 40.5t-38.5 102.5zM365 1331q0 -55 32.5 -90t87.5 -35t88 35t33 90t-33 90 t-88 35t-87.5 -35t-32.5 -90z" />
<glyph unicode="&#xe6;" horiz-adv-x="1916" d="M84 322q0 148 108.5 247t278.5 99q123 0 225 -61t135 -163v267q0 173 -93.5 262.5t-248.5 89.5q-174 0 -348 -115l-12 19q172 116 360 116q167 0 265 -95t98 -277v-9q46 174 181 277.5t298 103.5q144 0 258.5 -69t176 -185.5t61.5 -257.5v-34h-975v-27q5 -158 72.5 -276 t180 -179t253.5 -61q269 0 414 217l16 -10q-141 -228 -430 -228q-189 0 -325 102t-181 290v-33q0 -67 -26.5 -130.5t-73.5 -115t-120.5 -82.5t-160.5 -31q-177 0 -282 102t-105 247zM104 322q0 -63 24 -121t69 -104.5t116 -74.5t158 -28q156 0 258 102t102 236 q0 137 -98.5 226t-261.5 89t-265 -96t-102 -229zM852 557h954q0 121 -40.5 219.5t-108 159.5t-151.5 94t-175 33q-118 0 -225 -59t-178 -171.5t-76 -252.5v-23z" />
<glyph unicode="&#xe7;" horiz-adv-x="1105" d="M90 528q0 151 66.5 278t187 202t268.5 75q67 0 129 -15t104.5 -35t81 -48.5t58 -47t35.5 -38.5l-16 -14q-17 22 -44.5 47t-76 57t-120 53t-151.5 21q-138 0 -253.5 -70.5t-181.5 -193.5t-66 -271q0 -225 145 -379.5t356 -154.5q80 0 151.5 21t120 53t76 57t44.5 47 l16 -14q-22 -26 -50 -51t-78.5 -58.5t-124 -54.5t-155.5 -21h-26l-15 -129q85 0 137 -38t52 -99q0 -72 -53 -109.5t-132 -37.5l-57 4l2 18q32 -4 55 -4q73 0 119.5 34t46.5 95q0 53 -45.5 86t-122.5 33h-22l16 149q-138 11 -247.5 87.5t-169.5 199t-60 266.5z" />
<glyph unicode="&#xe8;" horiz-adv-x="1175" d="M90 547q0 119 42.5 221.5t112.5 170t160 106t185 38.5q144 0 258 -69t175.5 -185.5t61.5 -257.5v-34h-974q0 -248 142.5 -395.5t362.5 -147.5q269 0 414 217l17 -10q-141 -228 -431 -228q-113 0 -208.5 38t-166.5 109t-111 180.5t-40 246.5zM111 557h954 q0 121 -40.5 219.5t-108 159.5t-151.5 94t-175 33q-90 0 -176 -37t-153.5 -101.5t-108.5 -161t-41 -206.5zM473 1448h27l135 -250h-21z" />
<glyph unicode="&#xe9;" horiz-adv-x="1175" d="M90 547q0 119 42.5 221.5t112.5 170t160 106t185 38.5q144 0 258 -69t175.5 -185.5t61.5 -257.5v-34h-974q0 -248 142.5 -395.5t362.5 -147.5q269 0 414 217l17 -10q-141 -228 -431 -228q-113 0 -208.5 38t-166.5 109t-111 180.5t-40 246.5zM111 557h954 q0 121 -40.5 219.5t-108 159.5t-151.5 94t-175 33q-90 0 -176 -37t-153.5 -101.5t-108.5 -161t-41 -206.5zM530 1198l136 250h26l-141 -250h-21z" />
<glyph unicode="&#xea;" horiz-adv-x="1175" d="M90 547q0 119 42.5 221.5t112.5 170t160 106t185 38.5q144 0 258 -69t175.5 -185.5t61.5 -257.5v-34h-974q0 -248 142.5 -395.5t362.5 -147.5q269 0 414 217l17 -10q-141 -228 -431 -228q-113 0 -208.5 38t-166.5 109t-111 180.5t-40 246.5zM111 557h954 q0 121 -40.5 219.5t-108 159.5t-151.5 94t-175 33q-90 0 -176 -37t-153.5 -101.5t-108.5 -161t-41 -206.5zM401 1214l195 242h20l195 -242h-25l-180 224l-180 -224h-25z" />
<glyph unicode="&#xeb;" horiz-adv-x="1175" d="M90 547q0 119 42.5 221.5t112.5 170t160 106t185 38.5q144 0 258 -69t175.5 -185.5t61.5 -257.5v-34h-974q0 -248 142.5 -395.5t362.5 -147.5q269 0 414 217l17 -10q-141 -228 -431 -228q-113 0 -208.5 38t-166.5 109t-111 180.5t-40 246.5zM111 557h954 q0 121 -40.5 219.5t-108 159.5t-151.5 94t-175 33q-90 0 -176 -37t-153.5 -101.5t-108.5 -161t-41 -206.5zM389 1327q0 19 12 31t31 12q20 0 31.5 -12t11.5 -31t-11.5 -31t-31.5 -12q-19 0 -31 12t-12 31zM711 1327q0 19 12 31t31 12q20 0 31.5 -12t11.5 -31t-11.5 -31 t-31.5 -12q-19 0 -31 12t-12 31z" />
<glyph unicode="&#xec;" d="M49 1448h27l135 -250h-21zM172 0v1057h21v-1057h-21z" />
<glyph unicode="&#xed;" d="M156 1198l135 250h26l-141 -250h-20zM172 0v1057h21v-1057h-21z" />
<glyph unicode="&#xee;" d="M-23 1214l195 242h21l194 -242h-25l-180 224l-180 -224h-25zM172 0v1057h21v-1057h-21z" />
<glyph unicode="&#xef;" d="M-20 1327q0 19 12 31t31 12q20 0 31.5 -12t11.5 -31t-11.5 -31t-31.5 -12q-19 0 -31 12t-12 31zM172 0v1057h21v-1057h-21zM301 1327q0 19 12 31t31 12q20 0 31.5 -12t11.5 -31t-11.5 -31t-31.5 -12q-19 0 -31 12t-12 31z" />
<glyph unicode="&#xf0;" horiz-adv-x="1196" d="M90 504q0 143 61.5 261.5t180 190.5t272.5 72q83 0 157.5 -25t124.5 -62t90 -84t61 -86t32 -73q-78 344 -428 586l-330 -139l-6 18l318 133q-131 86 -287 156l12 14q150 -65 295 -161l219 94l6 -17l-209 -90q447 -311 447 -774q0 -154 -60.5 -277t-179.5 -195.5 t-278 -72.5q-143 0 -258 71t-177.5 192t-62.5 268zM111 504q0 -139 59 -255t169 -185.5t249 -69.5q118 0 214.5 42.5t157 114.5t93 162.5t32.5 190.5q0 135 -61.5 250.5t-172.5 184.5t-247 69q-111 0 -205 -40.5t-156.5 -109.5t-97 -160.5t-34.5 -193.5z" />
<glyph unicode="&#xf1;" horiz-adv-x="1099" d="M172 0v1057h21v-254q8 49 34 96.5t69.5 89.5t111.5 68t149 26q164 0 272.5 -99t108.5 -277v-707h-20v707q0 87 -29 156.5t-79.5 112t-114.5 65t-138 22.5q-161 0 -262.5 -105t-101.5 -288v-670h-21zM283 1272q0 60 33 97.5t92 37.5q41 0 93 -29.5t102.5 -58.5t88.5 -29 q52 0 78.5 32.5t26.5 82.5h20q0 -60 -33 -97.5t-92 -37.5q-41 0 -93 29t-102.5 58t-88.5 29q-52 0 -78.5 -32t-26.5 -82h-20z" />
<glyph unicode="&#xf2;" horiz-adv-x="1234" d="M90 528q0 237 149 396t377 159q151 0 272.5 -73t189 -200t67.5 -282t-67.5 -282t-189 -200t-272.5 -73q-228 0 -377 159t-149 396zM111 528q0 -147 63 -268.5t179.5 -193.5t262.5 -72t263 72t181 193.5t64 268.5t-64 269t-181 194t-263 72t-262.5 -72t-179.5 -194 t-63 -269zM492 1448h26l135 -250h-20z" />
<glyph unicode="&#xf3;" horiz-adv-x="1234" d="M90 528q0 237 149 396t377 159q151 0 272.5 -73t189 -200t67.5 -282t-67.5 -282t-189 -200t-272.5 -73q-228 0 -377 159t-149 396zM111 528q0 -147 63 -268.5t179.5 -193.5t262.5 -72t263 72t181 193.5t64 268.5t-64 269t-181 194t-263 72t-262.5 -72t-179.5 -194 t-63 -269zM524 1198l135 250h27l-141 -250h-21z" />
<glyph unicode="&#xf4;" horiz-adv-x="1234" d="M90 528q0 237 149 396t377 159q151 0 272.5 -73t189 -200t67.5 -282t-67.5 -282t-189 -200t-272.5 -73q-228 0 -377 159t-149 396zM111 528q0 -147 63 -268.5t179.5 -193.5t262.5 -72t263 72t181 193.5t64 268.5t-64 269t-181 194t-263 72t-262.5 -72t-179.5 -194 t-63 -269zM420 1214l194 242h21l194 -242h-24l-180 224l-181 -224h-24z" />
<glyph unicode="&#xf5;" horiz-adv-x="1234" d="M90 528q0 237 149 396t377 159q151 0 272.5 -73t189 -200t67.5 -282t-67.5 -282t-189 -200t-272.5 -73q-228 0 -377 159t-149 396zM111 528q0 -147 63 -268.5t179.5 -193.5t262.5 -72t263 72t181 193.5t64 268.5t-64 269t-181 194t-263 72t-262.5 -72t-179.5 -194 t-63 -269zM358 1272q0 60 33 97.5t92 37.5q33 0 73 -18.5t71.5 -40t70.5 -40t70 -18.5q51 0 77.5 32.5t26.5 82.5h21q0 -60 -33 -97.5t-92 -37.5q-41 0 -93 29t-103 58t-89 29q-51 0 -77.5 -32t-26.5 -82h-21z" />
<glyph unicode="&#xf6;" horiz-adv-x="1234" d="M90 528q0 237 149 396t377 159q151 0 272.5 -73t189 -200t67.5 -282t-67.5 -282t-189 -200t-272.5 -73q-228 0 -377 159t-149 396zM111 528q0 -147 63 -268.5t179.5 -193.5t262.5 -72t263 72t181 193.5t64 268.5t-64 269t-181 194t-263 72t-262.5 -72t-179.5 -194 t-63 -269zM414 1327q0 19 12 31t31 12q20 0 31.5 -12t11.5 -31t-11.5 -31t-31.5 -12q-19 0 -31 12t-12 31zM735 1327q0 19 12 31t31 12q20 0 31.5 -12t11.5 -31t-11.5 -31t-31.5 -12q-19 0 -31 12t-12 31z" />
<glyph unicode="&#xf7;" horiz-adv-x="1124" d="M90 627v20h944v-20h-944zM512 322q0 22 14.5 36.5t36.5 14.5t36.5 -14.5t14.5 -36.5t-14.5 -37t-36.5 -15t-36.5 15t-14.5 37zM512 952q0 22 14.5 37t36.5 15t36.5 -15t14.5 -37t-14.5 -36.5t-36.5 -14.5t-36.5 14.5t-14.5 36.5z" />
<glyph unicode="&#xf8;" horiz-adv-x="1234" d="M90 528q0 237 149 396t377 159q194 0 332 -116l80 100l16 -12l-79 -103q85 -76 132.5 -186t47.5 -238q0 -155 -67.5 -282t-189 -200t-272.5 -73q-188 0 -329 115l-80 -102l-17 14l80 100q-85 76 -132.5 187t-47.5 241zM111 528q0 -124 45 -229.5t127 -179.5l653 831 q-139 113 -320 113q-146 0 -262.5 -72t-179.5 -194t-63 -269zM299 104q132 -110 317 -110q146 0 263 72t181 193.5t64 268.5q0 122 -45.5 228t-128.5 180z" />
<glyph unicode="&#xf9;" horiz-adv-x="1081" d="M162 350v707h20v-707q0 -87 29 -156.5t79.5 -112t114.5 -65t138 -22.5q161 0 262.5 105t101.5 288v670h21v-1057h-21v254q-8 -49 -34 -96.5t-69.5 -90t-111.5 -68.5t-149 -26q-164 0 -272.5 99.5t-108.5 277.5zM424 1448h27l135 -250h-21z" />
<glyph unicode="&#xfa;" horiz-adv-x="1081" d="M162 350v707h20v-707q0 -87 29 -156.5t79.5 -112t114.5 -65t138 -22.5q161 0 262.5 105t101.5 288v670h21v-1057h-21v254q-8 -49 -34 -96.5t-69.5 -90t-111.5 -68.5t-149 -26q-164 0 -272.5 99.5t-108.5 277.5zM506 1198l135 250h27l-142 -250h-20z" />
<glyph unicode="&#xfb;" horiz-adv-x="1081" d="M162 350v707h20v-707q0 -87 29 -156.5t79.5 -112t114.5 -65t138 -22.5q161 0 262.5 105t101.5 288v670h21v-1057h-21v254q-8 -49 -34 -96.5t-69.5 -90t-111.5 -68.5t-149 -26q-164 0 -272.5 99.5t-108.5 277.5zM338 1214l194 242h21l195 -242h-25l-180 224l-181 -224h-24 z" />
<glyph unicode="&#xfc;" horiz-adv-x="1081" d="M162 350v707h20v-707q0 -87 29 -156.5t79.5 -112t114.5 -65t138 -22.5q161 0 262.5 105t101.5 288v670h21v-1057h-21v254q-8 -49 -34 -96.5t-69.5 -90t-111.5 -68.5t-149 -26q-164 0 -272.5 99.5t-108.5 277.5zM342 1327q0 19 12 31t31 12q20 0 31.5 -12t11.5 -31 t-11.5 -31t-31.5 -12q-19 0 -31 12t-12 31zM664 1327q0 19 12 31t31 12q20 0 31.5 -12t11.5 -31t-11.5 -31t-31.5 -12q-19 0 -31 12t-12 31z" />
<glyph unicode="&#xfd;" horiz-adv-x="964" d="M14 1057h25l448 -1030l439 1030h24l-604 -1424h-24l153 365zM451 1198l135 250h26l-141 -250h-20z" />
<glyph unicode="&#xfe;" horiz-adv-x="1234" d="M172 -383v1864h21v-785q9 47 29.5 96.5t59 102.5t88.5 94t124 67.5t159 26.5q218 0 354 -156t136 -399q0 -244 -137.5 -399.5t-352.5 -155.5q-81 0 -152.5 24t-122.5 62.5t-91 88.5t-62.5 99t-31.5 97v-727h-21zM190 528q0 -123 37 -225t100 -169t147 -103.5t179 -36.5 q202 0 335.5 150.5t133.5 383.5q0 236 -134 385.5t-335 149.5q-103 0 -191 -43.5t-147 -116.5t-92 -170.5t-33 -204.5z" />
<glyph unicode="&#xff;" horiz-adv-x="964" d="M14 1057h25l448 -1030l439 1030h24l-604 -1424h-24l153 365zM287 1327q0 19 12 31t31 12q20 0 31.5 -12t11.5 -31t-11.5 -31t-31.5 -12q-19 0 -31 12t-12 31zM608 1327q0 19 12 31t31 12q20 0 31.5 -12t11.5 -31t-11.5 -31t-31.5 -12q-19 0 -31 12t-12 31z" />
<glyph unicode="&#x100;" horiz-adv-x="1218" d="M37 0h24l228 584h639l227 -584h25l-562 1434h-20zM297 604l311 799l312 -799h-623zM397 1597v21h426v-21h-426z" />
<glyph unicode="&#x101;" horiz-adv-x="995" d="M84 322q0 148 108.5 247t278.5 99q123 0 225 -61t135 -163v267q0 173 -93.5 262.5t-248.5 89.5q-174 0 -348 -115l-12 19q172 116 360 116q167 0 265 -95t98 -277v-711h-21v201q-47 -106 -141 -167t-219 -61q-177 0 -282 102t-105 247zM104 322q0 -63 24 -121t69 -104.5 t116 -74.5t158 -28q157 0 260 97.5t103 230.5q0 138 -100.5 231.5t-262.5 93.5q-163 0 -265 -96t-102 -229zM283 1350v20h426v-20h-426z" />
<glyph unicode="&#x102;" horiz-adv-x="1216" d="M37 0l561 1434h20l562 -1434h-25l-227 584h-639l-228 -584h-24zM297 604h623l-312 799zM416 1761h18q0 -79 42.5 -127.5t131.5 -48.5t131.5 48.5t42.5 127.5h19q0 -89 -48.5 -141.5t-144.5 -52.5t-144 52.5t-48 141.5z" />
<glyph unicode="&#x103;" horiz-adv-x="995" d="M84 322q0 148 108.5 247t278.5 99q123 0 225 -61t135 -163v267q0 173 -93.5 262.5t-248.5 89.5q-174 0 -348 -115l-12 19q172 116 360 116q167 0 265 -95t98 -277v-711h-21v201q-47 -106 -141 -167t-219 -61q-177 0 -282 102t-105 247zM104 322q0 -63 24 -121t69 -104.5 t116 -74.5t158 -28q157 0 260 97.5t103 230.5q0 138 -100.5 231.5t-262.5 93.5q-163 0 -265 -96t-102 -229zM299 1434h18q0 -79 43 -128t132 -49t131.5 49t42.5 128h18q0 -89 -48 -142t-144 -53t-144.5 53t-48.5 142z" />
<glyph unicode="&#x104;" horiz-adv-x="1218" d="M37 0l561 1434h20l562 -1434q-72 -24 -129.5 -78.5t-57.5 -128.5q0 -54 32 -90t71.5 -49.5t81.5 -13.5v-21q-48 0 -92.5 16.5t-78.5 57.5t-34 100q0 43 18.5 82t47 65t56.5 43t54 25l-221 576h-639l-228 -584h-24zM297 604h623l-312 799z" />
<glyph unicode="&#x105;" horiz-adv-x="995" d="M84 322q0 148 108.5 247t278.5 99q123 0 225 -61t135 -163v267q0 173 -93.5 262.5t-248.5 89.5q-177 0 -348 -113l-12 17q172 116 360 116q167 0 265 -95t98 -277v-711q-72 -24 -128 -78.5t-56 -128.5q0 -41 18 -72t46.5 -48t59 -25t60.5 -8v-21q-48 0 -92.5 16.5 t-78.5 57.5t-34 100q0 44 18.5 82t48 64.5t58.5 44t59 28.5v189q-47 -106 -141 -167t-219 -61q-177 0 -282 102t-105 247zM104 322q0 -63 24 -121t69 -104.5t116 -74.5t158 -28q157 0 260 97.5t103 230.5q0 138 -100.5 231.5t-262.5 93.5q-163 0 -265 -96t-102 -229z" />
<glyph unicode="&#x106;" horiz-adv-x="1386" d="M96 717q0 208 94 379t255.5 267.5t355.5 96.5q86 0 165 -18.5t136 -47.5t93 -54t62 -50l-14 -14q-25 23 -58 45.5t-88.5 52t-133 48t-162.5 18.5q-139 0 -264 -54t-218 -148.5t-147.5 -230t-54.5 -290.5t54.5 -290.5t147.5 -230t218 -148.5t264 -54q87 0 166 18t135.5 48 t88.5 52.5t58 45.5l15 -15q-195 -170 -463 -170q-145 0 -275.5 57t-225 155.5t-149.5 237t-55 294.5zM721 1538l135 250h27l-142 -250h-20z" />
<glyph unicode="&#x107;" horiz-adv-x="1105" d="M90 528q0 -151 66.5 -278t187 -202t268.5 -75q82 0 155.5 21t124 54.5t78.5 58.5t50 51l-16 14q-17 -22 -44.5 -47t-76 -57t-120 -53t-151.5 -21q-211 0 -356 154.5t-145 379.5q0 148 66 271t181.5 193.5t253.5 70.5q80 0 151.5 -21t120 -53t76 -57t44.5 -47l16 14 q-16 20 -35.5 38.5t-58 47t-81 48.5t-104.5 35t-129 15q-148 0 -268.5 -75t-187 -202t-66.5 -278zM588 1198l135 250h27l-142 -250h-20z" />
<glyph unicode="&#x108;" horiz-adv-x="1386" d="M96 717q0 208 94 379t255.5 267.5t355.5 96.5q86 0 165 -18.5t136 -47.5t93 -54t62 -50l-14 -14q-25 23 -58 45.5t-88.5 52t-133 48t-162.5 18.5q-139 0 -264 -54t-218 -148.5t-147.5 -230t-54.5 -290.5t54.5 -290.5t147.5 -230t218 -148.5t264 -54q87 0 166 18t135.5 48 t88.5 52.5t58 45.5l15 -15q-195 -170 -463 -170q-145 0 -275.5 57t-225 155.5t-149.5 237t-55 294.5zM612 1534l195 242h20l195 -242h-25l-180 223l-180 -223h-25z" />
<glyph unicode="&#x109;" horiz-adv-x="1105" d="M90 528q0 151 66.5 278t187 202t268.5 75q67 0 129 -15t104.5 -35t81 -48.5t58 -47t35.5 -38.5l-16 -14q-17 22 -44.5 47t-76 57t-120 53t-151.5 21q-138 0 -253.5 -70.5t-181.5 -193.5t-66 -271q0 -225 145 -379.5t356 -154.5q80 0 151.5 21t120 53t76 57t44.5 47 l16 -14q-22 -26 -50 -51t-78.5 -58.5t-124 -54.5t-155.5 -21q-148 0 -268.5 75t-187 202t-66.5 278zM418 1214l194 242h21l194 -242h-24l-180 224l-181 -224h-24z" />
<glyph unicode="&#x10a;" horiz-adv-x="1386" d="M96 717q0 208 94 379t255.5 267.5t355.5 96.5q86 0 165 -18.5t136 -47.5t93 -54t62 -50l-14 -14q-25 23 -58 45.5t-88.5 52t-133 48t-162.5 18.5q-139 0 -264 -54t-218 -148.5t-147.5 -230t-54.5 -290.5t54.5 -290.5t147.5 -230t218 -148.5t264 -54q87 0 166 18t135.5 48 t88.5 52.5t58 45.5l15 -15q-195 -170 -463 -170q-145 0 -275.5 57t-225 155.5t-149.5 237t-55 294.5zM762 1667q0 17 12 29t29 12q18 0 29.5 -11.5t11.5 -29.5t-11.5 -29.5t-29.5 -11.5q-17 0 -29 12t-12 29z" />
<glyph unicode="&#x10b;" horiz-adv-x="1107" d="M92 528q0 -151 66.5 -278t187 -202t268.5 -75q82 0 155.5 21t124 54.5t78.5 58.5t50 51l-16 14q-17 -22 -44.5 -47t-76 -57t-120 -53t-151.5 -21q-211 0 -356 154.5t-145 379.5q0 148 66 271t181.5 193.5t253.5 70.5q80 0 151.5 -21t120 -53t76 -57t44.5 -47l16 14 q-16 20 -35.5 38.5t-58 47t-81 48.5t-104.5 35t-129 15q-148 0 -268.5 -75t-187 -202t-66.5 -278zM569 1354q0 17 12 29t29 12q18 0 29.5 -11.5t11.5 -29.5t-11.5 -29.5t-29.5 -11.5q-17 0 -29 12t-12 29z" />
<glyph unicode="&#x10c;" horiz-adv-x="1386" d="M96 717q0 208 94 379t255.5 267.5t355.5 96.5q86 0 165 -18.5t136 -47.5t93 -54t62 -50l-14 -14q-25 23 -58 45.5t-88.5 52t-133 48t-162.5 18.5q-139 0 -264 -54t-218 -148.5t-147.5 -230t-54.5 -290.5t54.5 -290.5t147.5 -230t218 -148.5t264 -54q87 0 166 18t135.5 48 t88.5 52.5t58 45.5l15 -15q-195 -170 -463 -170q-145 0 -275.5 57t-225 155.5t-149.5 237t-55 294.5zM594 1776h24l181 -224l180 224h25l-195 -242h-21z" />
<glyph unicode="&#x10d;" horiz-adv-x="1105" d="M90 528q0 -151 66.5 -278t187 -202t268.5 -75q82 0 155.5 21t124 54.5t78.5 58.5t50 51l-16 14q-17 -22 -44.5 -47t-76 -57t-120 -53t-151.5 -21q-211 0 -356 154.5t-145 379.5q0 148 66 271t181.5 193.5t253.5 70.5q80 0 151.5 -21t120 -53t76 -57t44.5 -47l16 14 q-16 20 -35.5 38.5t-58 47t-81 48.5t-104.5 35t-129 15q-148 0 -268.5 -75t-187 -202t-66.5 -278zM395 1456h25l180 -223l180 223h25l-195 -242h-20z" />
<glyph unicode="&#x10e;" horiz-adv-x="1259" d="M190 0v1434h222q337 0 544 -195t207 -522q0 -222 -94 -385t-262 -247.5t-391 -84.5h-226zM211 20h205q217 0 380.5 82t255 240.5t91.5 374.5q0 317 -201.5 506.5t-529.5 189.5h-201v-1393zM332 1776h24l181 -224l180 224h24l-194 -242h-21z" />
<glyph unicode="&#x10f;" horiz-adv-x="1232" d="M90 528q0 -243 136 -399t354 -156q85 0 159 26.5t124 67.5t88.5 94t59 102.5t29.5 96.5v-360h21v1481h-21v-768q-9 48 -31.5 97t-62.5 98.5t-91 88t-122.5 62.5t-152.5 24q-215 0 -352.5 -155.5t-137.5 -399.5zM111 528q0 233 133.5 384t335.5 151q95 0 178.5 -36.5 t147 -103.5t100 -169t36.5 -226q0 -144 -55.5 -265t-162.5 -195t-244 -74q-201 0 -335 149t-134 385zM1174 1186l20 295h20l-24 -295h-16z" />
<glyph unicode="&#x110;" horiz-adv-x="1259" d="M66 719v20h124v695h222q337 0 544 -195t207 -522q0 -222 -94 -385t-262 -247.5t-391 -84.5h-226v719h-124zM211 20h205q217 0 380.5 82t255 240.5t91.5 374.5q0 317 -201.5 506.5t-529.5 189.5h-201v-674h383v-20h-383v-699z" />
<glyph unicode="&#x111;" horiz-adv-x="1232" d="M90 528q0 244 137.5 399.5t352.5 155.5q81 0 152.5 -24t122.5 -62.5t91 -88t62.5 -98.5t31.5 -97v549h-270v20h270v199h21v-199h153v-20h-153v-1262h-21v360q-9 -47 -29.5 -96.5t-59 -102.5t-88.5 -94t-124 -67.5t-159 -26.5q-218 0 -354 156t-136 399zM111 528 q0 -236 134 -385t335 -149q137 0 244 74t162.5 195t55.5 265q0 124 -36.5 226t-100 169t-147 103.5t-178.5 36.5q-202 0 -335.5 -151t-133.5 -384z" />
<glyph unicode="&#x112;" horiz-adv-x="954" d="M190 0v1434h615v-21h-594v-668h524v-20h-524v-705h618v-20h-639zM303 1597v21h426v-21h-426z" />
<glyph unicode="&#x113;" horiz-adv-x="1175" d="M90 547q0 119 42.5 221.5t112.5 170t160 106t185 38.5q144 0 258 -69t175.5 -185.5t61.5 -257.5v-34h-974q0 -248 142.5 -395.5t362.5 -147.5q269 0 414 217l17 -10q-141 -228 -431 -228q-113 0 -208.5 38t-166.5 109t-111 180.5t-40 246.5zM111 557h954 q0 121 -40.5 219.5t-108 159.5t-151.5 94t-175 33q-90 0 -176 -37t-153.5 -101.5t-108.5 -161t-41 -206.5zM385 1350v20h426v-20h-426z" />
<glyph unicode="&#x114;" horiz-adv-x="954" d="M190 0v1434h615v-21h-594v-668h524v-20h-524v-705h618v-20h-639zM322 1761h18q0 -79 42.5 -127.5t131.5 -48.5t131.5 48.5t42.5 127.5h19q0 -89 -48.5 -141.5t-144.5 -52.5t-144 52.5t-48 141.5z" />
<glyph unicode="&#x115;" horiz-adv-x="1175" d="M90 547q0 119 42.5 221.5t112.5 170t160 106t185 38.5q144 0 258 -69t175.5 -185.5t61.5 -257.5v-34h-974q0 -248 142.5 -395.5t362.5 -147.5q269 0 414 217l17 -10q-141 -228 -431 -228q-113 0 -208.5 38t-166.5 109t-111 180.5t-40 246.5zM111 557h954 q0 121 -40.5 219.5t-108 159.5t-151.5 94t-175 33q-90 0 -176 -37t-153.5 -101.5t-108.5 -161t-41 -206.5zM410 1434h18q0 -79 42.5 -128t131.5 -49t131.5 49t42.5 128h19q0 -89 -48.5 -142t-144.5 -53t-144 53t-48 142z" />
<glyph unicode="&#x116;" horiz-adv-x="954" d="M190 0v1434h615v-21h-594v-668h524v-20h-524v-705h618v-20h-639zM479 1667q0 17 12 29t29 12q18 0 29.5 -11.5t11.5 -29.5t-11.5 -29.5t-29.5 -11.5q-17 0 -29 12t-12 29z" />
<glyph unicode="&#x117;" horiz-adv-x="1175" d="M90 547q0 119 42.5 221.5t112.5 170t160 106t185 38.5q144 0 258 -69t175.5 -185.5t61.5 -257.5v-34h-974q0 -248 142.5 -395.5t362.5 -147.5q269 0 414 217l17 -10q-141 -228 -431 -228q-113 0 -208.5 38t-166.5 109t-111 180.5t-40 246.5zM111 557h954 q0 121 -40.5 219.5t-108 159.5t-151.5 94t-175 33q-90 0 -176 -37t-153.5 -101.5t-108.5 -161t-41 -206.5zM547 1354q0 17 12 29t29 12q18 0 29.5 -11.5t11.5 -29.5t-11.5 -29.5t-29.5 -11.5q-17 0 -29 12t-12 29z" />
<glyph unicode="&#x118;" horiz-adv-x="954" d="M190 0v1434h615v-21h-594v-668h524v-20h-524v-705h618v-20q-68 -23 -126 -78t-58 -129q0 -41 18 -72t46.5 -48t59 -25t60.5 -8v-21q-48 0 -92.5 16.5t-78 57.5t-33.5 100q0 77 49.5 130t105.5 77h-590z" />
<glyph unicode="&#x119;" horiz-adv-x="1175" d="M90 547q0 119 42.5 221.5t112.5 170t160 106t185 38.5q144 0 258 -69t175.5 -185.5t61.5 -257.5v-34h-974q0 -248 142.5 -395.5t362.5 -147.5q269 0 414 217l17 -10q-74 -119 -195 -181q-64 -34 -114 -91t-50 -126q0 -54 31.5 -92.5t71.5 -54.5t81 -16v-21q-76 0 -140 49 t-64 135q0 109 114 195q-92 -25 -166 -25q-113 0 -208.5 38t-166.5 109t-111 180.5t-40 246.5zM111 557h954q0 121 -41 219.5t-109.5 159.5t-152 94t-172.5 33q-90 0 -176 -37t-153.5 -101.5t-108.5 -161t-41 -206.5z" />
<glyph unicode="&#x11a;" horiz-adv-x="954" d="M190 0v1434h615v-21h-594v-668h524v-20h-524v-705h618v-20h-639zM305 1776h25l180 -224l180 224h25l-195 -242h-20z" />
<glyph unicode="&#x11b;" horiz-adv-x="1175" d="M90 547q0 119 42.5 221.5t112.5 170t160 106t185 38.5q144 0 258 -69t175.5 -185.5t61.5 -257.5v-34h-974q0 -248 142.5 -395.5t362.5 -147.5q269 0 414 217l17 -10q-141 -228 -431 -228q-113 0 -208.5 38t-166.5 109t-111 180.5t-40 246.5zM111 557h954 q0 121 -40.5 219.5t-108 159.5t-151.5 94t-175 33q-90 0 -176 -37t-153.5 -101.5t-108.5 -161t-41 -206.5zM393 1456h25l180 -223l180 223h25l-195 -242h-20z" />
<glyph unicode="&#x11c;" horiz-adv-x="1480" d="M96 717q0 208 94 379t255.5 267.5t355.5 96.5q87 0 167 -18.5t137.5 -47.5t94 -54t62.5 -50l-15 -14q-25 23 -58 45.5t-89 52t-134.5 48t-164.5 18.5q-139 0 -264 -54t-218 -148.5t-147.5 -230t-54.5 -290.5t54.5 -290.5t147.5 -230t218 -148.5t264 -54q80 0 156 17.5 t129 41.5t103.5 57t75 54t46.5 43v430h-383v20h403v-462q-231 -222 -530 -222q-145 0 -275.5 57t-225 155.5t-149.5 237t-55 294.5zM608 1534l195 242h20l195 -242h-25l-180 223l-180 -223h-25z" />
<glyph unicode="&#x11d;" horiz-adv-x="1222" d="M88 528q0 243 136 399t354 156q85 0 159 -26.5t124 -67.5t88.5 -94t59 -102.5t29.5 -96.5v361h21v-934q0 -514 -481 -514q-94 0 -192.5 31t-170.5 79l10 17q75 -48 169.5 -77.5t183.5 -29.5q103 0 184.5 26t144.5 82t97 152t34 228v227q-9 -48 -31.5 -97t-62.5 -99 t-91 -88.5t-122.5 -62.5t-152.5 -24q-215 0 -352.5 155.5t-137.5 399.5zM109 528q0 -233 133.5 -383.5t335.5 -150.5q196 0 329 144.5t133 389.5q0 144 -55.5 265.5t-162.5 195.5t-244 74q-201 0 -335 -149.5t-134 -385.5zM406 1214l194 242h21l194 -242h-24l-181 224 l-180 -224h-24z" />
<glyph unicode="&#x11e;" horiz-adv-x="1480" d="M96 717q0 208 94 379t255.5 267.5t355.5 96.5q87 0 167 -18.5t137.5 -47.5t94 -54t62.5 -50l-15 -14q-25 23 -58 45.5t-89 52t-134.5 48t-164.5 18.5q-139 0 -264 -54t-218 -148.5t-147.5 -230t-54.5 -290.5t54.5 -290.5t147.5 -230t218 -148.5t264 -54q80 0 156 17.5 t129 41.5t103.5 57t75 54t46.5 43v430h-383v20h403v-462q-231 -222 -530 -222q-145 0 -275.5 57t-225 155.5t-149.5 237t-55 294.5zM590 1761h18q0 -79 42.5 -127.5t131.5 -48.5t131.5 48.5t42.5 127.5h19q0 -89 -48.5 -141.5t-144.5 -52.5t-144 52.5t-48 141.5z" />
<glyph unicode="&#x11f;" horiz-adv-x="1222" d="M88 528q0 243 136 399t354 156q85 0 159 -26.5t124 -67.5t88.5 -94t59 -102.5t29.5 -96.5v361h21v-934q0 -514 -481 -514q-94 0 -192.5 31t-170.5 79l10 17q75 -48 169.5 -77.5t183.5 -29.5q103 0 184.5 26t144.5 82t97 152t34 228v227q-9 -48 -31.5 -97t-62.5 -99 t-91 -88.5t-122.5 -62.5t-152.5 -24q-215 0 -352.5 155.5t-137.5 399.5zM109 528q0 -233 133.5 -383.5t335.5 -150.5q196 0 329 144.5t133 389.5q0 144 -55.5 265.5t-162.5 195.5t-244 74q-201 0 -335 -149.5t-134 -385.5zM418 1434h18q0 -79 42.5 -128t131.5 -49t131.5 49 t42.5 128h19q0 -89 -48.5 -142t-144.5 -53t-144 53t-48 142z" />
<glyph unicode="&#x120;" horiz-adv-x="1480" d="M96 717q0 208 94 379t255.5 267.5t355.5 96.5q87 0 167 -18.5t137.5 -47.5t94 -54t62.5 -50l-15 -14q-25 23 -58 45.5t-89 52t-134.5 48t-164.5 18.5q-139 0 -264 -54t-218 -148.5t-147.5 -230t-54.5 -290.5t54.5 -290.5t147.5 -230t218 -148.5t264 -54q80 0 156 17.5 t129 41.5t103.5 57t75 54t46.5 43v430h-383v20h403v-462q-231 -222 -530 -222q-145 0 -275.5 57t-225 155.5t-149.5 237t-55 294.5zM758 1667q0 17 12 29t29 12q18 0 29.5 -11.5t11.5 -29.5t-11.5 -29.5t-29.5 -11.5q-17 0 -29 12t-12 29z" />
<glyph unicode="&#x121;" horiz-adv-x="1222" d="M88 528q0 243 136 399t354 156q85 0 159 -26.5t124 -67.5t88.5 -94t59 -102.5t29.5 -96.5v361h21v-934q0 -514 -481 -514q-94 0 -192.5 31t-170.5 79l10 17q75 -48 169.5 -77.5t183.5 -29.5q103 0 184.5 26t144.5 82t97 152t34 228v227q-9 -48 -31.5 -97t-62.5 -99 t-91 -88.5t-122.5 -62.5t-152.5 -24q-215 0 -352.5 155.5t-137.5 399.5zM109 528q0 -233 133.5 -383.5t335.5 -150.5q196 0 329 144.5t133 389.5q0 144 -55.5 265.5t-162.5 195.5t-244 74q-201 0 -335 -149.5t-134 -385.5zM567 1354q0 17 12 29t29 12q18 0 29.5 -11.5 t11.5 -29.5t-11.5 -29.5t-29.5 -11.5q-17 0 -29 12t-12 29z" />
<glyph unicode="&#x122;" horiz-adv-x="1480" d="M96 717q0 208 94 379t255.5 267.5t355.5 96.5q87 0 167 -18.5t137.5 -47.5t94 -54t62.5 -50l-15 -14q-25 23 -58 45.5t-89 52t-134.5 48t-164.5 18.5q-139 0 -264 -54t-218 -148.5t-147.5 -230t-54.5 -290.5t54.5 -290.5t147.5 -230t218 -148.5t264 -54q80 0 156 17.5 t129 41.5t103.5 57t75 54t46.5 43v430h-383v20h403v-462q-231 -222 -530 -222q-145 0 -275.5 57t-225 155.5t-149.5 237t-55 294.5zM762 -121q0 19 12 31t31 12t31 -13.5t12 -39.5q0 -83 -68 -160l-12 12q20 20 39 53t20 66q-8 -4 -22 -4q-19 0 -31 12t-12 31z" />
<glyph unicode="&#x123;" horiz-adv-x="1222" d="M88 528q0 243 136 399t354 156q85 0 159 -26.5t124 -67.5t88.5 -94t59 -102.5t29.5 -96.5v361h21v-934q0 -514 -481 -514q-94 0 -192.5 31t-170.5 79l10 17q75 -48 169.5 -77.5t183.5 -29.5q103 0 184.5 26t144.5 82t97 152t34 228v227q-9 -48 -31.5 -97t-62.5 -99 t-91 -88.5t-122.5 -62.5t-152.5 -24q-215 0 -352.5 155.5t-137.5 399.5zM109 528q0 -233 133.5 -383.5t335.5 -150.5q196 0 329 144.5t133 389.5q0 144 -55.5 265.5t-162.5 195.5t-244 74q-201 0 -335 -149.5t-134 -385.5zM541 1305q0 36 11.5 68.5t23.5 50.5t32 40l13 -12 q-20 -20 -39.5 -53t-20.5 -66q8 4 23 4q19 0 31 -12t12 -31t-12 -31t-31 -12t-31 14t-12 40z" />
<glyph unicode="&#x124;" horiz-adv-x="1380" d="M190 0v1434h21v-686h958v686h21v-1434h-21v727h-958v-727h-21zM496 1534l194 242h21l194 -242h-24l-181 223l-180 -223h-24z" />
<glyph unicode="&#x125;" horiz-adv-x="1099" d="M172 0v1481h21v-678q8 49 34 96.5t69.5 89.5t111.5 68t149 26q164 0 272.5 -99t108.5 -277v-707h-20v707q0 87 -29 156.5t-79.5 112t-114.5 65t-138 22.5q-161 0 -262.5 -105t-101.5 -288v-670h-21zM350 1509l195 242h20l195 -242h-25l-180 224l-180 -224h-25z" />
<glyph unicode="&#x126;" horiz-adv-x="1380" d="M57 1081v21h133v332h21v-332h958v332h21v-332h135v-21h-135v-1081h-21v727h-958v-727h-21v1081h-133zM211 748h958v333h-958v-333z" />
<glyph unicode="&#x127;" horiz-adv-x="1128" d="M43 1249v21h158v211h20v-211h260v-21h-260v-446q8 48 34.5 96t70 90t111.5 68t149 26q164 0 272.5 -99t108.5 -277v-707h-21v707q0 116 -50.5 198t-130.5 120t-179 38q-161 0 -263 -105t-102 -288v-670h-20v1249h-158z" />
<glyph unicode="&#x128;" horiz-adv-x="401" d="M-61 1593q0 60 33 98t91 38q33 0 73 -18.5t71.5 -40t70.5 -40t70 -18.5q52 0 78.5 32t26.5 82h20q0 -60 -33 -97.5t-92 -37.5q-33 0 -73 18.5t-71.5 40t-70.5 40t-70 18.5q-51 0 -77.5 -32.5t-26.5 -82.5h-20zM190 0v1434h21v-1434h-21z" />
<glyph unicode="&#x129;" d="M-74 1272q0 60 33 97.5t92 37.5q33 0 73 -18.5t71.5 -40t70.5 -40t70 -18.5q51 0 77.5 32.5t26.5 82.5h21q0 -60 -33 -97.5t-92 -37.5q-41 0 -93 29t-103 58t-89 29q-51 0 -77.5 -32t-26.5 -82h-21zM172 0v1057h21v-1057h-21z" />
<glyph unicode="&#x12a;" horiz-adv-x="401" d="M-8 1597v21h426v-21h-426zM190 0v1434h21v-1434h-21z" />
<glyph unicode="&#x12b;" d="M-25 1350v20h426v-20h-426zM172 0v1057h21v-1057h-21z" />
<glyph unicode="&#x12c;" horiz-adv-x="401" d="M10 1761h19q0 -79 42.5 -127.5t131.5 -48.5t131.5 48.5t42.5 127.5h18q0 -89 -48 -141.5t-144 -52.5t-144.5 52.5t-48.5 141.5zM190 0v1434h21v-1434h-21z" />
<glyph unicode="&#x12d;" d="M-8 1434h18q0 -79 42.5 -128t131.5 -49t131.5 49t42.5 128h19q0 -89 -48.5 -142t-144.5 -53t-144 53t-48 142zM172 0v1057h21v-1057h-21z" />
<glyph unicode="&#x12e;" horiz-adv-x="401" d="M35 -207q0 44 16 82.5t42.5 64.5t49.5 42.5t47 27.5v1424h21v-1436q-62 -24 -109 -77t-47 -128q0 -54 32 -90t71.5 -49.5t81.5 -13.5v-21q-48 0 -92.5 16.5t-78.5 57.5t-34 100z" />
<glyph unicode="&#x12f;" d="M14 -207q0 79 47.5 133.5t110.5 83.5v1047h21v-1057q-62 -24 -110 -78t-48 -129q0 -41 18 -72t46.5 -48t59 -25t60.5 -8v-21q-48 0 -92.5 16.5t-78.5 57.5t-34 100zM141 1354q0 17 12 29t29 12q18 0 29.5 -11.5t11.5 -29.5t-11.5 -29.5t-29.5 -11.5q-17 0 -29 12t-12 29z " />
<glyph unicode="&#x130;" horiz-adv-x="401" d="M160 1667q0 17 12 29t29 12q18 0 29.5 -11.5t11.5 -29.5t-11.5 -29.5t-29.5 -11.5q-17 0 -29 12t-12 29zM190 0v1434h21v-1434h-21z" />
<glyph unicode="&#x131;" d="M172 0v1057h21v-1057h-21z" />
<glyph unicode="&#x132;" horiz-adv-x="1036" d="M190 0v1434h21v-1434h-21zM451 8l4 23q72 -23 143 -23q227 0 227 277v1149h21v-1149q0 -297 -248 -297q-87 0 -147 20z" />
<glyph unicode="&#x133;" horiz-adv-x="729" d="M141 1354q0 17 12 29t29 12q18 0 29.5 -11.5t11.5 -29.5t-11.5 -29.5t-29.5 -11.5q-17 0 -29 12t-12 29zM172 0v1057h21v-1057h-21zM279 -367q27 -2 43 -2q108 0 161.5 72t53.5 231v1123h20v-1123q0 -171 -58 -247t-177 -76l-43 2v20zM506 1354q0 17 12 29t29 12 q18 0 29.5 -11.5t11.5 -29.5t-11.5 -29.5t-29.5 -11.5q-17 0 -29 12t-12 29z" />
<glyph unicode="&#x134;" horiz-adv-x="636" d="M51 8l4 23q72 -23 144 -23q227 0 227 277v1149h20v-1149q0 -297 -247 -297q-88 0 -148 20zM233 1534l195 242h21l194 -242h-25l-180 223l-180 -223h-25z" />
<glyph unicode="&#x135;" d="M-86 -367q27 -2 43 -2q108 0 161.5 72t53.5 231v1123h21v-1123q0 -171 -58.5 -247t-177.5 -76l-43 2v20zM-23 1214l195 242h21l194 -242h-25l-180 224l-180 -224h-25z" />
<glyph unicode="&#x136;" horiz-adv-x="1036" d="M190 0v1434h21v-680l711 680h30l-719 -686l754 -748h-31l-745 741v-741h-21zM539 -121q0 19 12 31t31 12t31 -13.5t12 -39.5q0 -83 -68 -160l-12 12q20 20 39 53t20 66q-8 -4 -22 -4q-19 0 -31 12t-12 31z" />
<glyph unicode="&#x137;" horiz-adv-x="845" d="M172 0v1481h21v-891l573 469h35l-580 -473l606 -586h-34l-600 582v-582h-21zM440 -121q0 19 12 31t31 12t31 -13.5t12 -39.5q0 -84 -67 -160l-13 12q20 20 39.5 53t20.5 66q-8 -4 -23 -4q-19 0 -31 12t-12 31z" />
<glyph unicode="&#x138;" horiz-adv-x="845" d="M172 0v1059h21v-481l573 481h35l-580 -486l606 -573h-34l-600 569v-569h-21z" />
<glyph unicode="&#x139;" horiz-adv-x="905" d="M182 1538l135 250h27l-141 -250h-21zM190 0v1434h21v-1414h618v-20h-639z" />
<glyph unicode="&#x13a;" d="M152 1536l135 250h26l-141 -250h-20zM172 0v1481h21v-1481h-21z" />
<glyph unicode="&#x13b;" horiz-adv-x="905" d="M190 0v1434h21v-1414h618v-20h-639zM485 -121q0 19 12 31t31 12t31 -13.5t12 -39.5q0 -84 -67 -160l-12 12q20 20 39 53t20 66q-8 -4 -23 -4q-19 0 -31 12t-12 31z" />
<glyph unicode="&#x13c;" d="M139 -121q0 19 12 31t31 12t31 -13.5t12 -39.5q0 -84 -67 -160l-13 12q20 20 39.5 53t20.5 66q-8 -4 -23 -4q-19 0 -31 12t-12 31zM172 0v1481h21v-1481h-21z" />
<glyph unicode="&#x13d;" horiz-adv-x="905" d="M190 0v1434h21v-1414h618v-20h-639zM588 1139l20 295h21l-25 -295h-16z" />
<glyph unicode="&#x13e;" d="M172 0v1481h21v-1481h-21zM307 1186l21 295h20l-24 -295h-17z" />
<glyph unicode="&#x13f;" horiz-adv-x="905" d="M190 0v1434h21v-1414h618v-20h-639zM522 743q0 19 12 31t31 12t31 -12t12 -31t-12 -31t-31 -12t-31 12t-12 31z" />
<glyph unicode="&#x140;" horiz-adv-x="481" d="M172 0v1481h21v-1481h-21zM281 743q0 19 12 31t31 12t31 -12t12 -31t-12 -31t-31 -12t-31 12t-12 31z" />
<glyph unicode="&#x141;" horiz-adv-x="905" d="M63 616v23l127 82v713h19v-703l297 191v-23l-297 -190v-689h620v-20h-639v698z" />
<glyph unicode="&#x142;" horiz-adv-x="466" d="M66 698v23l157 110v650h19v-637l161 112v-22l-161 -113v-821h-19v809z" />
<glyph unicode="&#x143;" horiz-adv-x="1417" d="M190 0v1434h19l997 -1393v1393h21v-1434h-19l-997 1395v-1395h-21zM678 1538l135 250h27l-142 -250h-20z" />
<glyph unicode="&#x144;" horiz-adv-x="1099" d="M172 0v1057h21v-254q8 49 34 96.5t69.5 89.5t111.5 68t149 26q164 0 272.5 -99t108.5 -277v-707h-20v707q0 87 -29 156.5t-79.5 112t-114.5 65t-138 22.5q-161 0 -262.5 -105t-101.5 -288v-670h-21zM510 1198l135 250h27l-142 -250h-20z" />
<glyph unicode="&#x145;" horiz-adv-x="1417" d="M190 0v1434h19l997 -1393v1393h21v-1434h-19l-997 1395v-1395h-21zM662 -121q0 19 12 31t31 12t31 -13.5t12 -39.5q0 -83 -68 -160l-12 12q20 20 39 53t20 66q-8 -4 -22 -4q-19 0 -31 12t-12 31z" />
<glyph unicode="&#x146;" horiz-adv-x="1099" d="M172 0v1057h21v-254q8 49 34 96.5t69.5 89.5t111.5 68t149 26q164 0 272.5 -99t108.5 -277v-707h-20v707q0 87 -29 156.5t-79.5 112t-114.5 65t-138 22.5q-161 0 -262.5 -105t-101.5 -288v-670h-21zM500 -121q0 19 12 31t31 12t31 -13.5t12 -39.5q0 -83 -68 -160l-12 12 q20 20 39 53t20 66q-8 -4 -22 -4q-19 0 -31 12t-12 31z" />
<glyph unicode="&#x147;" horiz-adv-x="1417" d="M190 0v1434h19l997 -1393v1393h21v-1434h-19l-997 1395v-1395h-21zM514 1776h25l180 -224l180 224h25l-195 -242h-20z" />
<glyph unicode="&#x148;" horiz-adv-x="1099" d="M172 0v1057h21v-254q8 49 34 96.5t69.5 89.5t111.5 68t149 26q164 0 272.5 -99t108.5 -277v-707h-20v707q0 87 -29 156.5t-79.5 112t-114.5 65t-138 22.5q-161 0 -262.5 -105t-101.5 -288v-670h-21zM346 1456h25l180 -223l180 223h25l-195 -242h-20z" />
<glyph unicode="&#x149;" horiz-adv-x="1019" d="M25 1393q0 19 12 31t31 12t31 -14t12 -40q0 -36 -11.5 -68.5t-24 -50t-32.5 -40.5l-12 12q20 20 39 53t20 66q-8 -4 -22 -4q-19 0 -31 12t-12 31zM100 0v1057h21v-254q8 49 34 96.5t69.5 89.5t111.5 68t149 26q164 0 272.5 -99t108.5 -277v-707h-20v707q0 87 -29 156.5 t-79.5 112t-114.5 65t-138 22.5q-161 0 -262.5 -105t-101.5 -288v-670h-21z" />
<glyph unicode="&#x14a;" horiz-adv-x="1417" d="M190 0v1434h19l997 -1393v1393h21v-1524q0 -297 -248 -297q-88 0 -148 20l5 23q72 -23 143 -23q227 0 227 277v92l-995 1393v-1395h-21z" />
<glyph unicode="&#x14b;" horiz-adv-x="1099" d="M172 0v1057h21v-254q8 49 34 96.5t69.5 89.5t111.5 68t149 26q164 0 272.5 -99t108.5 -277v-773q0 -171 -58.5 -247t-177.5 -76l-43 2v20q27 -2 43 -2q108 0 162 72t54 231v773q0 87 -29 156.5t-79.5 112t-114.5 65t-138 22.5q-161 0 -262.5 -105t-101.5 -288v-670h-21z " />
<glyph unicode="&#x14c;" horiz-adv-x="1617" d="M96 717q0 157 55.5 295.5t150.5 236.5t227 154.5t280 56.5t280 -56.5t227 -154.5t150.5 -236.5t55.5 -295.5q0 -209 -94 -380t-257.5 -267.5t-361.5 -96.5t-361.5 96.5t-257.5 267.5t-94 380zM117 717q0 -153 53.5 -287.5t145.5 -230t220 -150.5t273 -55t273 55 t220 150.5t145.5 230t53.5 287.5t-53.5 287.5t-145.5 230t-220 150.5t-273 55t-273 -55t-220 -150.5t-145.5 -230t-53.5 -287.5zM600 1597v21h426v-21h-426z" />
<glyph unicode="&#x14d;" horiz-adv-x="1234" d="M90 528q0 237 149 396t377 159q151 0 272.5 -73t189 -200t67.5 -282t-67.5 -282t-189 -200t-272.5 -73q-228 0 -377 159t-149 396zM111 528q0 -147 63 -268.5t179.5 -193.5t262.5 -72t263 72t181 193.5t64 268.5t-64 269t-181 194t-263 72t-262.5 -72t-179.5 -194 t-63 -269zM414 1350v20h426v-20h-426z" />
<glyph unicode="&#x14e;" horiz-adv-x="1617" d="M96 717q0 157 55.5 295.5t150.5 236.5t227 154.5t280 56.5t280 -56.5t227 -154.5t150.5 -236.5t55.5 -295.5q0 -209 -94 -380t-257.5 -267.5t-361.5 -96.5t-361.5 96.5t-257.5 267.5t-94 380zM117 717q0 -153 53.5 -287.5t145.5 -230t220 -150.5t273 -55t273 55 t220 150.5t145.5 230t53.5 287.5t-53.5 287.5t-145.5 230t-220 150.5t-273 55t-273 -55t-220 -150.5t-145.5 -230t-53.5 -287.5zM633 1761h18q0 -79 42.5 -127.5t131.5 -48.5t131.5 48.5t42.5 127.5h19q0 -89 -48.5 -141.5t-144.5 -52.5t-144 52.5t-48 141.5z" />
<glyph unicode="&#x14f;" horiz-adv-x="1234" d="M90 528q0 237 149 396t377 159q151 0 272.5 -73t189 -200t67.5 -282t-67.5 -282t-189 -200t-272.5 -73q-228 0 -377 159t-149 396zM111 528q0 -147 63 -268.5t179.5 -193.5t262.5 -72t263 72t181 193.5t64 268.5t-64 269t-181 194t-263 72t-262.5 -72t-179.5 -194 t-63 -269zM424 1434h18q0 -79 42.5 -128t131.5 -49t132 49t43 128h18q0 -89 -48.5 -142t-144.5 -53t-144 53t-48 142z" />
<glyph unicode="&#x150;" horiz-adv-x="1617" d="M96 717q0 157 55.5 295.5t150.5 236.5t227 154.5t280 56.5t280 -56.5t227 -154.5t150.5 -236.5t55.5 -295.5q0 -209 -94 -380t-257.5 -267.5t-361.5 -96.5t-361.5 96.5t-257.5 267.5t-94 380zM117 717q0 -153 53.5 -287.5t145.5 -230t220 -150.5t273 -55t273 55 t220 150.5t145.5 230t53.5 287.5t-53.5 287.5t-145.5 230t-220 150.5t-273 55t-273 -55t-220 -150.5t-145.5 -230t-53.5 -287.5zM672 1538l135 250h27l-142 -250h-20zM874 1538l136 250h26l-141 -250h-21z" />
<glyph unicode="&#x151;" horiz-adv-x="1234" d="M90 528q0 237 149 396t377 159q151 0 272.5 -73t189 -200t67.5 -282t-67.5 -282t-189 -200t-272.5 -73q-228 0 -377 159t-149 396zM111 528q0 -147 63 -268.5t179.5 -193.5t262.5 -72t263 72t181 193.5t64 268.5t-64 269t-181 194t-263 72t-262.5 -72t-179.5 -194 t-63 -269zM496 1198l135 250h26l-141 -250h-20zM698 1198l136 250h26l-141 -250h-21z" />
<glyph unicode="&#x152;" horiz-adv-x="2183" d="M96 717q0 157 55.5 295.5t150.5 236.5t227 154.5t280 56.5q98 0 197 -26h1028v-21h-969q200 -76 324 -255t131 -413h444v-20h-442v-8q0 -244 -125 -431.5t-332 -265.5h993v-20h-1052q-103 -27 -197 -27q-198 0 -361.5 96.5t-257.5 267.5t-94 380zM117 717 q0 -153 53.5 -287.5t145.5 -230t220 -150.5t273 -55t273 55t220 150.5t145.5 230t53.5 287.5t-53.5 287.5t-145.5 230t-220 150.5t-273 55t-273 -55t-220 -150.5t-145.5 -230t-53.5 -287.5z" />
<glyph unicode="&#x153;" horiz-adv-x="2209" d="M90 528q0 237 149 396t377 159q197 0 338.5 -121t178.5 -313q23 130 97 230.5t177 152t217 51.5q144 0 258.5 -69t176 -185.5t61.5 -257.5v-34h-975q0 -248 143 -395.5t363 -147.5q268 0 413 217l17 -10q-141 -228 -430 -228q-201 0 -341.5 115t-174.5 326 q-36 -194 -178 -317.5t-341 -123.5q-228 0 -377 159t-149 396zM111 528q0 -147 63 -268.5t179.5 -193.5t262.5 -72t263 72t181 193.5t64 268.5t-64 269t-181 194t-263 72t-262.5 -72t-179.5 -194t-63 -269zM1145 557h954q0 121 -40.5 219.5t-108 159.5t-151.5 94t-175 33 q-90 0 -176 -37t-153.5 -101.5t-108.5 -161t-41 -206.5z" />
<glyph unicode="&#x154;" horiz-adv-x="1026" d="M190 0v1434h281q188 0 295.5 -102.5t107.5 -264.5q0 -66 -18.5 -121.5t-47 -93t-68 -67t-78 -46t-80.5 -26.5l383 -713h-25l-379 709q-55 -11 -121 -11h-229v-698h-21zM211 719h229q190 0 302 94.5t112 253.5q0 152 -103 249t-280 97h-260v-694zM475 1538l135 250h27 l-141 -250h-21z" />
<glyph unicode="&#x155;" horiz-adv-x="581" d="M172 0v1057h21v-266q8 46 32.5 93.5t65.5 92t105 74t141 32.5v-20q-151 -6 -247.5 -118.5t-96.5 -291.5v-653h-21zM299 1198l135 250h27l-142 -250h-20z" />
<glyph unicode="&#x156;" horiz-adv-x="1026" d="M190 0v1434h281q188 0 295.5 -102.5t107.5 -264.5q0 -66 -18.5 -121.5t-47 -93t-68 -67t-78 -46t-80.5 -26.5l383 -713h-25l-379 709q-55 -11 -121 -11h-229v-698h-21zM211 719h229q190 0 302 94.5t112 253.5q0 152 -103 249t-280 97h-260v-694zM487 -121q0 19 12 31 t31 12t31 -13.5t12 -39.5q0 -84 -67 -160l-12 12q20 20 39 53t20 66q-8 -4 -23 -4q-19 0 -31 12t-12 31z" />
<glyph unicode="&#x157;" horiz-adv-x="581" d="M143 -121q0 19 12 31t31 12t31 -13.5t12 -39.5q0 -84 -67 -160l-12 12q20 20 39 53t20 66q-8 -4 -23 -4q-19 0 -31 12t-12 31zM172 0v1057h21v-266q8 46 32.5 93.5t65.5 92t105 74t141 32.5v-20q-151 -6 -247.5 -118.5t-96.5 -291.5v-653h-21z" />
<glyph unicode="&#x158;" horiz-adv-x="1026" d="M190 0v1434h281q188 0 295.5 -102.5t107.5 -264.5q0 -66 -18.5 -121.5t-47 -93t-68 -67t-78 -46t-80.5 -26.5l383 -713h-25l-379 709q-55 -11 -121 -11h-229v-698h-21zM211 719h229q190 0 302 94.5t112 253.5q0 152 -103 249t-280 97h-260v-694zM287 1776h24l181 -224 l180 224h24l-194 -242h-21z" />
<glyph unicode="&#x159;" horiz-adv-x="581" d="M135 1456h25l180 -223l180 223h25l-195 -242h-20zM172 0v1057h21v-266q8 46 32.5 93.5t65.5 92t105 74t141 32.5v-20q-151 -6 -247.5 -118.5t-96.5 -291.5v-653h-21z" />
<glyph unicode="&#x15a;" horiz-adv-x="1001" d="M102 260l19 6q105 -272 391 -272q160 0 262.5 90.5t102.5 249.5q0 77 -25 139.5t-67.5 105t-97.5 77.5t-115.5 63t-121 55.5t-115.5 60.5t-97.5 73t-67.5 98.5t-25 130.5q0 139 97.5 231t263.5 92q62 0 115.5 -14.5t90 -36.5t67 -53t48 -58t31.5 -57l-18 -8 q-17 36 -41 68t-63 65.5t-98.5 53.5t-131.5 20q-156 0 -248 -87t-92 -216q0 -69 25 -124.5t67.5 -94t97 -71t115.5 -60t121.5 -56t115 -65t97 -80.5t67.5 -108.5t25 -143.5q0 -164 -107 -262.5t-278 -98.5q-301 0 -410 287zM469 1538l135 250h27l-142 -250h-20z" />
<glyph unicode="&#x15b;" horiz-adv-x="813" d="M98 221l19 6q30 -102 104 -167.5t201 -65.5q117 0 198.5 72.5t81.5 191.5q0 70 -31.5 122t-81.5 84t-111 58t-121.5 52t-110.5 58t-81.5 84t-31.5 122q0 113 80 179t197 66q218 0 286 -202l-18 -9q-13 36 -30 65t-47 60t-79 48.5t-112 17.5q-109 0 -182.5 -61t-73.5 -164 q0 -52 19.5 -93t52.5 -69t75.5 -51.5t90 -43t94.5 -39t89.5 -45.5t75.5 -57t52.5 -77.5t19.5 -104.5q0 -123 -85 -204t-214 -81q-74 0 -133 21.5t-96 58.5t-60 78t-37 90zM371 1198l135 250h26l-141 -250h-20z" />
<glyph unicode="&#x15c;" horiz-adv-x="1001" d="M102 260l19 6q105 -272 391 -272q160 0 262.5 90.5t102.5 249.5q0 77 -25 139.5t-67.5 105t-97.5 77.5t-115.5 63t-121 55.5t-115.5 60.5t-97.5 73t-67.5 98.5t-25 130.5q0 139 97.5 231t263.5 92q62 0 115.5 -14.5t90 -36.5t67 -53t48 -58t31.5 -57l-18 -8 q-17 36 -41 68t-63 65.5t-98.5 53.5t-131.5 20q-156 0 -248 -87t-92 -216q0 -69 25 -124.5t67.5 -94t97 -71t115.5 -60t121.5 -56t115 -65t97 -80.5t67.5 -108.5t25 -143.5q0 -164 -107 -262.5t-278 -98.5q-301 0 -410 287zM309 1534l195 242h20l195 -242h-25l-180 223 l-180 -223h-25z" />
<glyph unicode="&#x15d;" horiz-adv-x="813" d="M98 221l19 6q30 -102 104 -167.5t201 -65.5q117 0 198.5 72.5t81.5 191.5q0 70 -31.5 122t-81.5 84t-111 58t-121.5 52t-110.5 58t-81.5 84t-31.5 122q0 113 80 179t197 66q218 0 286 -202l-18 -9q-13 36 -30 65t-47 60t-79 48.5t-112 17.5q-109 0 -182.5 -61t-73.5 -164 q0 -52 19.5 -93t52.5 -69t75.5 -51.5t90 -43t94.5 -39t89.5 -45.5t75.5 -57t52.5 -77.5t19.5 -104.5q0 -123 -85 -204t-214 -81q-74 0 -133 21.5t-96 58.5t-60 78t-37 90zM215 1214l195 242h20l195 -242h-25l-180 224l-180 -224h-25z" />
<glyph unicode="&#x15e;" horiz-adv-x="1001" d="M102 260l19 6q105 -272 391 -272q160 0 262.5 90.5t102.5 249.5q0 77 -25 139.5t-67.5 105t-97.5 77.5t-115.5 63t-121 55.5t-115.5 60.5t-97.5 73t-67.5 98.5t-25 130.5q0 139 97.5 231t263.5 92q62 0 115.5 -14.5t90 -36.5t67 -53t48 -58t31.5 -57l-18 -8 q-17 36 -41 68t-63 65.5t-98.5 53.5t-131.5 20q-156 0 -248 -87t-92 -216q0 -69 25 -124.5t67.5 -94t97 -71t115.5 -60t121.5 -56t115 -65t97 -80.5t67.5 -108.5t25 -143.5q0 -164 -107 -262.5t-278 -98.5h-12l-15 -129q86 0 137.5 -37.5t51.5 -97.5q0 -77 -50 -113 t-130 -36l-58 4l2 18q32 -4 56 -4q73 0 117 33.5t44 97.5q0 53 -45.5 85t-122.5 32h-22l16 149q-274 12 -379 285z" />
<glyph unicode="&#x15f;" horiz-adv-x="813" d="M98 221l19 6q30 -102 104 -167.5t201 -65.5q117 0 198.5 72.5t81.5 191.5q0 70 -31.5 122t-81.5 84t-111 58t-121.5 52t-110.5 58t-81.5 84t-31.5 122q0 113 80 179t197 66q218 0 286 -202l-18 -9q-13 36 -30 65t-47 60t-79 48.5t-112 17.5q-109 0 -182.5 -61t-73.5 -164 q0 -52 19.5 -93t52.5 -69t75.5 -51.5t90 -43t94.5 -39t89.5 -45.5t75.5 -57t52.5 -77.5t19.5 -104.5q0 -123 -85 -204t-214 -81h-16l-15 -129q86 0 137.5 -37.5t51.5 -97.5q0 -77 -50.5 -113t-130.5 -36l-57 4l2 18q32 -4 55 -4q73 0 117.5 33.5t44.5 97.5q0 53 -45.5 85 t-122.5 32h-22l16 149q-65 4 -117 27t-85.5 59t-54.5 75t-34 85z" />
<glyph unicode="&#x160;" horiz-adv-x="1001" d="M102 260l19 6q105 -272 391 -272q160 0 262.5 90.5t102.5 249.5q0 77 -25 139.5t-67.5 105t-97.5 77.5t-115.5 63t-121 55.5t-115.5 60.5t-97.5 73t-67.5 98.5t-25 130.5q0 139 97.5 231t263.5 92q62 0 115.5 -14.5t90 -36.5t67 -53t48 -58t31.5 -57l-18 -8 q-17 36 -41 68t-63 65.5t-98.5 53.5t-131.5 20q-156 0 -248 -87t-92 -216q0 -69 25 -124.5t67.5 -94t97 -71t115.5 -60t121.5 -56t115 -65t97 -80.5t67.5 -108.5t25 -143.5q0 -164 -107 -262.5t-278 -98.5q-301 0 -410 287zM307 1776h25l180 -224l180 224h25l-195 -242h-20z " />
<glyph unicode="&#x161;" horiz-adv-x="813" d="M98 221l19 6q30 -102 104 -167.5t201 -65.5q117 0 198.5 72.5t81.5 191.5q0 70 -31.5 122t-81.5 84t-111 58t-121.5 52t-110.5 58t-81.5 84t-31.5 122q0 113 80 179t197 66q218 0 286 -202l-18 -9q-13 36 -30 65t-47 60t-79 48.5t-112 17.5q-109 0 -182.5 -61t-73.5 -164 q0 -52 19.5 -93t52.5 -69t75.5 -51.5t90 -43t94.5 -39t89.5 -45.5t75.5 -57t52.5 -77.5t19.5 -104.5q0 -123 -85 -204t-214 -81q-74 0 -133 21.5t-96 58.5t-60 78t-37 90zM217 1456h25l180 -223l180 223h25l-195 -242h-20z" />
<glyph unicode="&#x162;" horiz-adv-x="1007" d="M47 1413v21h914v-21h-447v-1413h-20v1413h-447zM463 -121q0 19 12 31t31 12t31 -13.5t12 -39.5q0 -83 -68 -160l-12 12q20 20 39 53t20 66q-8 -4 -22 -4q-19 0 -31 12t-12 31z" />
<glyph unicode="&#x163;" horiz-adv-x="514" d="M31 1036v21h141v221h21v-221h270v-21h-270v-717q0 -172 50.5 -241.5t166.5 -69.5q41 0 65 4v-20q-40 -4 -63 -4q-130 0 -185 75t-55 250v723h-141zM295 -121q0 19 12 31t31 12t31 -13.5t12 -39.5q0 -83 -68 -160l-12 12q20 20 39 53t20 66q-8 -4 -22 -4q-19 0 -31 12 t-12 31z" />
<glyph unicode="&#x164;" horiz-adv-x="1007" d="M47 1413v21h914v-21h-447v-1413h-20v1413h-447zM301 1776h25l180 -224l180 224h25l-195 -242h-20z" />
<glyph unicode="&#x165;" horiz-adv-x="514" d="M31 1036v21h141v221h21v-221h270v-21h-270v-717q0 -172 50.5 -241.5t166.5 -69.5q41 0 65 4v-20q-40 -4 -63 -4q-130 0 -185 75t-55 250v723h-141zM383 1186l20 295h21l-25 -295h-16z" />
<glyph unicode="&#x166;" horiz-adv-x="1007" d="M47 1413v21h914v-21h-447v-602h303v-20h-303v-791h-20v791h-297v20h297v602h-447z" />
<glyph unicode="&#x167;" horiz-adv-x="514" d="M31 686v21h141v329h-141v21h141v221h21v-221h270v-21h-270v-329h278v-21h-278v-367q0 -172 50.5 -241.5t166.5 -69.5q41 0 65 4v-20q-40 -4 -63 -4q-130 0 -185 75t-55 250v373h-141z" />
<glyph unicode="&#x168;" horiz-adv-x="1351" d="M178 489q0 -237 133.5 -376.5t364.5 -139.5t364.5 139.5t133.5 376.5v945h-21v-945q0 -229 -128 -362t-349 -133t-349 133t-128 362v945h-21v-945zM430 1593q0 60 33 98t92 38q33 0 73 -18.5t71.5 -40t70.5 -40t70 -18.5q51 0 77.5 32t26.5 82h21q0 -60 -33 -97.5 t-92 -37.5q-33 0 -73 18.5t-71.5 40t-70.5 40t-70 18.5q-51 0 -77.5 -32.5t-26.5 -82.5h-21z" />
<glyph unicode="&#x169;" horiz-adv-x="1081" d="M162 350v707h20v-707q0 -87 29 -156.5t79.5 -112t114.5 -65t138 -22.5q161 0 262.5 105t101.5 288v670h21v-1057h-21v254q-8 -49 -34 -96.5t-69.5 -90t-111.5 -68.5t-149 -26q-164 0 -272.5 99.5t-108.5 277.5zM295 1272q0 60 33 97.5t92 37.5q33 0 73 -18.5t71.5 -40 t70.5 -40t70 -18.5q51 0 77.5 32.5t26.5 82.5h20q0 -60 -32.5 -97.5t-91.5 -37.5q-41 0 -93 29t-103 58t-89 29q-52 0 -78.5 -32t-26.5 -82h-20z" />
<glyph unicode="&#x16a;" horiz-adv-x="1351" d="M178 489q0 -237 133.5 -376.5t364.5 -139.5t364.5 139.5t133.5 376.5v945h-21v-945q0 -229 -128 -362t-349 -133t-349 133t-128 362v945h-21v-945zM467 1597v21h426v-21h-426z" />
<glyph unicode="&#x16b;" horiz-adv-x="1081" d="M162 350v707h20v-707q0 -87 29 -156.5t79.5 -112t114.5 -65t138 -22.5q161 0 262.5 105t101.5 288v670h21v-1057h-21v254q-8 -49 -34 -96.5t-69.5 -90t-111.5 -68.5t-149 -26q-164 0 -272.5 99.5t-108.5 277.5zM340 1350v20h426v-20h-426z" />
<glyph unicode="&#x16c;" horiz-adv-x="1351" d="M178 489v945h21v-945q0 -229 128 -362t349 -133t349 133t128 362v945h21v-945q0 -237 -133.5 -376.5t-364.5 -139.5t-364.5 139.5t-133.5 376.5zM483 1761h19q0 -79 42.5 -127.5t131.5 -48.5t131.5 48.5t42.5 127.5h18q0 -89 -48 -141.5t-144 -52.5t-144.5 52.5 t-48.5 141.5z" />
<glyph unicode="&#x16d;" horiz-adv-x="1081" d="M162 350v707h20v-707q0 -87 29 -156.5t79.5 -112t114.5 -65t138 -22.5q161 0 262.5 105t101.5 288v670h21v-1057h-21v254q-8 -49 -34 -96.5t-69.5 -90t-111.5 -68.5t-149 -26q-164 0 -272.5 99.5t-108.5 277.5zM362 1434h19q0 -79 42.5 -128t131.5 -49t131.5 49t42.5 128 h19q0 -89 -48.5 -142t-144.5 -53t-144.5 53t-48.5 142z" />
<glyph unicode="&#x16e;" horiz-adv-x="1351" d="M178 489q0 -237 133.5 -376.5t364.5 -139.5t364.5 139.5t133.5 376.5v945h-21v-945q0 -229 -128 -362t-349 -133t-349 133t-128 362v945h-21v-945zM543 1655q0 62 38.5 102.5t100.5 40.5t100.5 -40.5t38.5 -102.5t-38.5 -103t-100.5 -41t-100.5 41t-38.5 103zM561 1655 q0 -55 33 -90t88 -35t88 35t33 90t-33 90t-88 35t-88 -35t-33 -90z" />
<glyph unicode="&#x16f;" horiz-adv-x="1081" d="M162 350v707h20v-707q0 -87 29 -156.5t79.5 -112t114.5 -65t138 -22.5q161 0 262.5 105t101.5 288v670h21v-1057h-21v254q-8 -49 -34 -96.5t-69.5 -90t-111.5 -68.5t-149 -26q-164 0 -272.5 99.5t-108.5 277.5zM416 1331q0 62 38.5 103t100.5 41t100.5 -41t38.5 -103 t-38.5 -102.5t-100.5 -40.5t-100.5 40.5t-38.5 102.5zM434 1331q0 -55 33 -90t88 -35t88 35t33 90t-33 90t-88 35t-88 -35t-33 -90z" />
<glyph unicode="&#x170;" horiz-adv-x="1351" d="M178 489q0 -237 133.5 -376.5t364.5 -139.5t364.5 139.5t133.5 376.5v945h-21v-945q0 -229 -128 -362t-349 -133t-349 133t-128 362v945h-21v-945zM524 1538l135 250h27l-141 -250h-21zM727 1538l135 250h27l-141 -250h-21z" />
<glyph unicode="&#x171;" horiz-adv-x="1081" d="M162 350v707h20v-707q0 -87 29 -156.5t79.5 -112t114.5 -65t138 -22.5q161 0 262.5 105t101.5 288v670h21v-1057h-21v254q-8 -49 -34 -96.5t-69.5 -90t-111.5 -68.5t-149 -26q-164 0 -272.5 99.5t-108.5 277.5zM399 1198l136 250h26l-141 -250h-21zM602 1198l135 250h27 l-141 -250h-21z" />
<glyph unicode="&#x172;" horiz-adv-x="1351" d="M178 489v945h21v-945q0 -229 128 -362t349 -133t349 133t128 362v945h21v-945q0 -187 -83.5 -314.5t-234.5 -174.5q-62 -24 -110 -78t-48 -129q0 -54 32 -90t71.5 -49.5t81.5 -13.5v-21q-48 0 -92.5 16.5t-78.5 57.5t-34 100q0 64 32 112.5t76 78.5q-60 -11 -110 -11 q-231 0 -364.5 139.5t-133.5 376.5z" />
<glyph unicode="&#x173;" horiz-adv-x="1081" d="M162 350v707h20v-707q0 -87 29 -156.5t79.5 -112t114.5 -65t138 -22.5q161 0 262.5 105t101.5 288v670h21v-1061q-67 -23 -120.5 -75.5t-53.5 -127.5q0 -78 53.5 -115.5t120.5 -37.5v-21q-76 0 -135.5 44t-59.5 130q0 44 19 82.5t48.5 64t55.5 41.5t51 25v248 q-8 -49 -34 -96.5t-69.5 -90t-111.5 -68.5t-149 -26q-164 0 -272.5 99.5t-108.5 277.5z" />
<glyph unicode="&#x174;" horiz-adv-x="1839" d="M27 1434h24l422 -1391l436 1391h21l436 -1391l422 1391h24l-436 -1434h-20l-436 1391l-437 -1391h-20zM717 1534l194 242h21l194 -242h-24l-180 223l-181 -223h-24z" />
<glyph unicode="&#x175;" horiz-adv-x="1646" d="M16 1057h25l387 -1026l383 1026h25l383 -1026l387 1026h24l-401 -1057h-21l-385 1030l-385 -1030h-20zM621 1214l194 242h21l194 -242h-24l-181 224l-180 -224h-24z" />
<glyph unicode="&#x176;" horiz-adv-x="966" d="M27 1434h24l432 -715l435 715h24l-448 -740v-694h-21v694zM281 1534l194 242h21l194 -242h-24l-181 223l-180 -223h-24z" />
<glyph unicode="&#x177;" horiz-adv-x="964" d="M14 1057h25l448 -1030l439 1030h24l-604 -1424h-24l153 365zM291 1214l194 242h21l194 -242h-24l-180 224l-181 -224h-24z" />
<glyph unicode="&#x178;" horiz-adv-x="964" d="M27 1434h24l432 -715l435 715h24l-448 -740v-694h-21v694zM279 1653q0 19 12 31t31 12q20 0 31.5 -12t11.5 -31t-11.5 -31t-31.5 -12q-19 0 -31 12t-12 31zM600 1653q0 19 12 31t31 12q20 0 31.5 -12t11.5 -31t-11.5 -31t-31.5 -12q-19 0 -31 12t-12 31z" />
<glyph unicode="&#x179;" horiz-adv-x="1196" d="M80 0v20l993 1393h-960v21h987v-21l-996 -1393h1000v-20h-1024zM584 1538l135 250h26l-141 -250h-20z" />
<glyph unicode="&#x17a;" horiz-adv-x="933" d="M74 0v23l739 1013h-711v21h738v-21l-738 -1013h750v-23h-778zM426 1198l135 250h27l-142 -250h-20z" />
<glyph unicode="&#x17b;" horiz-adv-x="1196" d="M80 0v20l993 1393h-960v21h987v-21l-996 -1393h1000v-20h-1024zM559 1667q0 17 12 29t29 12q18 0 29.5 -11.5t11.5 -29.5t-11.5 -29.5t-29.5 -11.5q-17 0 -29 12t-12 29z" />
<glyph unicode="&#x17c;" horiz-adv-x="933" d="M74 0v23l739 1013h-711v21h738v-21l-738 -1013h750v-23h-778zM434 1354q0 17 12 29t29 12q18 0 29.5 -11.5t11.5 -29.5t-11.5 -29.5t-29.5 -11.5q-17 0 -29 12t-12 29z" />
<glyph unicode="&#x17d;" horiz-adv-x="1196" d="M80 0v20l993 1393h-960v21h987v-21l-996 -1393h1000v-20h-1024zM393 1776h25l180 -224l180 224h25l-195 -242h-20z" />
<glyph unicode="&#x17e;" horiz-adv-x="933" d="M74 0v23l739 1013h-711v21h738v-21l-738 -1013h750v-23h-778zM258 1456h25l180 -223l180 223h25l-195 -242h-20z" />
<glyph unicode="&#x192;" horiz-adv-x="880" d="M-106 -377l4 21q68 -17 116 -17q101 0 168 70.5t88 214.5l125 883h-174v20h178l41 295q47 332 279 332q53 0 121 -17l-4 -20q-64 16 -117 16q-108 0 -173 -77t-89 -252l-39 -277h260v-20h-264l-125 -885q-12 -84 -39 -145t-64.5 -94.5t-79.5 -48.5t-92 -15q-56 0 -120 16 z" />
<glyph unicode="&#x1fa;" horiz-adv-x="1218" d="M37 0l553 1415q-55 6 -88 46t-33 98q0 62 38.5 102.5t100.5 40.5t101 -40.5t39 -102.5q0 -57 -34 -97.5t-89 -46.5l555 -1415h-25l-227 584h-639l-228 -584h-24zM297 604h623l-312 799zM487 1559q0 -55 33 -90t88 -35t88 35t33 90t-33 89.5t-88 34.5t-88 -34.5t-33 -89.5 zM578 1759l102 185h27l-109 -185h-20z" />
<glyph unicode="&#x1fb;" horiz-adv-x="995" d="M84 322q0 148 108.5 247t278.5 99q123 0 225 -61t135 -163v267q0 173 -93.5 262.5t-248.5 89.5q-174 0 -348 -115l-12 19q172 116 360 116q167 0 265 -95t98 -277v-711h-21v201q-47 -106 -141 -167t-219 -61q-177 0 -282 102t-105 247zM104 322q0 -63 24 -121t69 -104.5 t116 -74.5t158 -28q157 0 260 97.5t103 230.5q0 138 -100.5 231.5t-262.5 93.5q-163 0 -265 -96t-102 -229zM358 1317q0 62 39 102.5t101 40.5t100.5 -40.5t38.5 -102.5t-38.5 -102.5t-100.5 -40.5t-101 40.5t-39 102.5zM377 1317q0 -55 33 -90t88 -35t87.5 35t32.5 90 t-32.5 90t-87.5 35t-88 -35t-33 -90zM473 1524l135 250h27l-141 -250h-21z" />
<glyph unicode="&#x1fc;" horiz-adv-x="1546" d="M18 0l709 1434h670v-21h-594v-668h524v-20h-524v-705h618v-20h-639v584h-450l-287 -584h-27zM344 604h438v809h-45zM907 1538l135 250h27l-141 -250h-21z" />
<glyph unicode="&#x1fd;" horiz-adv-x="1916" d="M84 322q0 148 108.5 247t278.5 99q123 0 225 -61t135 -163v267q0 173 -93.5 262.5t-248.5 89.5q-174 0 -348 -115l-12 19q172 116 360 116q167 0 265 -95t98 -277v-9q46 174 181 277.5t298 103.5q144 0 258.5 -69t176 -185.5t61.5 -257.5v-34h-975v-27q5 -158 72.5 -276 t180 -179t253.5 -61q269 0 414 217l16 -10q-141 -228 -430 -228q-189 0 -325 102t-181 290v-33q0 -67 -26.5 -130.5t-73.5 -115t-120.5 -82.5t-160.5 -31q-177 0 -282 102t-105 247zM104 322q0 -63 24 -121t69 -104.5t116 -74.5t158 -28q156 0 258 102t102 236 q0 137 -98.5 226t-261.5 89t-265 -96t-102 -229zM852 557h954q0 121 -40.5 219.5t-108 159.5t-151.5 94t-175 33q-118 0 -225 -59t-178 -171.5t-76 -252.5v-23zM877 1198l135 250h26l-141 -250h-20z" />
<glyph unicode="&#x1fe;" horiz-adv-x="1617" d="M96 717q0 157 55.5 295.5t150.5 236.5t227 154.5t280 56.5q255 0 446 -155l113 143l16 -12l-114 -146q119 -103 185.5 -251t66.5 -322q0 -209 -94 -380t-257.5 -267.5t-361.5 -96.5q-260 0 -449 156l-112 -145l-17 10l115 147q-118 103 -184 252t-66 324zM117 717 q0 -170 63.5 -314.5t177.5 -244.5l885 1130q-188 152 -434 152q-145 0 -273 -55t-220 -150.5t-145.5 -230t-53.5 -287.5zM375 145q184 -151 434 -151q145 0 273 55t220 150.5t145.5 230t53.5 287.5q0 169 -64.5 313.5t-179.5 243.5zM766 1538l135 250h27l-142 -250h-20z" />
<glyph unicode="&#x1ff;" horiz-adv-x="1234" d="M90 528q0 237 149 396t377 159q194 0 332 -116l80 100l16 -12l-79 -103q85 -76 132.5 -186t47.5 -238q0 -155 -67.5 -282t-189 -200t-272.5 -73q-188 0 -329 115l-80 -102l-17 14l80 100q-85 76 -132.5 187t-47.5 241zM111 528q0 -124 45 -229.5t127 -179.5l653 831 q-139 113 -320 113q-146 0 -262.5 -72t-179.5 -194t-63 -269zM299 104q132 -110 317 -110q146 0 263 72t181 193.5t64 268.5q0 122 -45.5 228t-128.5 180zM537 1198l135 250h26l-141 -250h-20z" />
<glyph unicode="&#x218;" horiz-adv-x="1001" d="M102 260l19 6q105 -272 391 -272q160 0 262.5 90.5t102.5 249.5q0 77 -25 139.5t-67.5 105t-97.5 77.5t-115.5 63t-121 55.5t-115.5 60.5t-97.5 73t-67.5 98.5t-25 130.5q0 139 97.5 231t263.5 92q62 0 115.5 -14.5t90 -36.5t67 -53t48 -58t31.5 -57l-18 -8 q-17 36 -41 68t-63 65.5t-98.5 53.5t-131.5 20q-156 0 -248 -87t-92 -216q0 -69 25 -124.5t67.5 -94t97 -71t115.5 -60t121.5 -56t115 -65t97 -80.5t67.5 -108.5t25 -143.5q0 -164 -107 -262.5t-278 -98.5q-301 0 -410 287zM477 -121q0 19 12 31t31 12t31 -13.5t12 -39.5 q0 -84 -67 -160l-13 12q20 20 39.5 53t20.5 66q-8 -4 -23 -4q-19 0 -31 12t-12 31z" />
<glyph unicode="&#x219;" horiz-adv-x="813" d="M98 221l19 6q30 -102 104 -167.5t201 -65.5q117 0 198.5 72.5t81.5 191.5q0 70 -31.5 122t-81.5 84t-111 58t-121.5 52t-110.5 58t-81.5 84t-31.5 122q0 113 80 179t197 66q218 0 286 -202l-18 -9q-13 36 -30 65t-47 60t-79 48.5t-112 17.5q-109 0 -182.5 -61t-73.5 -164 q0 -52 19.5 -93t52.5 -69t75.5 -51.5t90 -43t94.5 -39t89.5 -45.5t75.5 -57t52.5 -77.5t19.5 -104.5q0 -123 -85 -204t-214 -81q-74 0 -133 21.5t-96 58.5t-60 78t-37 90zM379 -121q0 19 12 31t31 12t31 -13.5t12 -39.5q0 -83 -68 -160l-12 12q20 20 39 53t20 66 q-8 -4 -22 -4q-19 0 -31 12t-12 31z" />
<glyph unicode="&#x237;" d="M-86 -367q27 -2 43 -2q108 0 161.5 72t53.5 231v1123h21v-1123q0 -171 -58.5 -247t-177.5 -76l-43 2v20z" />
<glyph unicode="&#x2c6;" horiz-adv-x="937" d="M264 1214l195 242h20l195 -242h-25l-180 224l-180 -224h-25z" />
<glyph unicode="&#x2c7;" horiz-adv-x="937" d="M264 1456h25l180 -223l180 223h25l-195 -242h-20z" />
<glyph unicode="&#x2d8;" horiz-adv-x="942" d="M279 1434h18q0 -79 42.5 -128t131.5 -49t131.5 49t42.5 128h19q0 -89 -48.5 -142t-144.5 -53t-144 53t-48 142z" />
<glyph unicode="&#x2d9;" horiz-adv-x="942" d="M430 1354q0 17 12 29t29 12q18 0 29.5 -11.5t11.5 -29.5t-11.5 -29.5t-29.5 -11.5q-17 0 -29 12t-12 29z" />
<glyph unicode="&#x2da;" horiz-adv-x="942" d="M332 1331q0 62 38.5 103t100.5 41t100.5 -41t38.5 -103t-38.5 -102.5t-100.5 -40.5t-100.5 40.5t-38.5 102.5zM350 1331q0 -55 33 -90t88 -35t88 35t33 90t-33 90t-88 35t-88 -35t-33 -90z" />
<glyph unicode="&#x2db;" horiz-adv-x="937" d="M367 -207q0 78 46 133.5t93 73.5h39q-62 -24 -110 -78t-48 -129q0 -41 18 -72t46.5 -48t59 -25t60.5 -8v-21q-48 0 -92.5 16.5t-78 57.5t-33.5 100z" />
<glyph unicode="&#x2dc;" horiz-adv-x="937" d="M201 1272q0 60 33 97.5t92 37.5q41 0 93 -29.5t102.5 -58.5t88.5 -29q52 0 78.5 32.5t26.5 82.5h20q0 -60 -33 -97.5t-92 -37.5q-41 0 -93 29t-102.5 58t-88.5 29q-52 0 -78.5 -32t-26.5 -82h-20z" />
<glyph unicode="&#x2dd;" horiz-adv-x="919" d="M276 1198l136 250h26l-141 -250h-21zM479 1198l135 250h27l-141 -250h-21z" />
<glyph unicode="&#x1e80;" horiz-adv-x="1839" d="M27 1434h24l422 -1391l436 1391h21l436 -1391l422 1391h24l-436 -1434h-20l-436 1391l-437 -1391h-20zM791 1788h26l135 -250h-20z" />
<glyph unicode="&#x1e81;" horiz-adv-x="1646" d="M16 1057h25l387 -1026l383 1026h25l383 -1026l387 1026h24l-401 -1057h-21l-385 1030l-385 -1030h-20zM698 1448h27l135 -250h-20z" />
<glyph unicode="&#x1e82;" horiz-adv-x="1839" d="M27 1434l436 -1434h20l437 1391l436 -1391h20l436 1434h-24l-422 -1391l-436 1391h-21l-436 -1391l-422 1391h-24zM874 1538l136 250h26l-141 -250h-21z" />
<glyph unicode="&#x1e83;" horiz-adv-x="1646" d="M16 1057l402 -1057h20l385 1030l385 -1030h21l401 1057h-24l-387 -1026l-383 1026h-25l-383 -1026l-387 1026h-25zM776 1198l135 250h27l-141 -250h-21z" />
<glyph unicode="&#x1e84;" horiz-adv-x="1839" d="M27 1434l436 -1434h20l437 1391l436 -1391h20l436 1434h-24l-422 -1391l-436 1391h-21l-436 -1391l-422 1391h-24zM717 1653q0 19 12 31t31 12q20 0 31.5 -12t11.5 -31t-11.5 -31t-31.5 -12q-19 0 -31 12t-12 31zM1038 1653q0 19 12 31t31 12q20 0 31.5 -12t11.5 -31 t-11.5 -31t-31.5 -12q-19 0 -31 12t-12 31z" />
<glyph unicode="&#x1e85;" horiz-adv-x="1646" d="M16 1057l402 -1057h20l385 1030l385 -1030h21l401 1057h-24l-387 -1026l-383 1026h-25l-383 -1026l-387 1026h-25zM618 1327q0 19 12.5 31t31.5 12q20 0 31.5 -12t11.5 -31t-11.5 -31t-31.5 -12q-19 0 -31.5 12t-12.5 31zM940 1327q0 19 12 31t31 12q20 0 31.5 -12 t11.5 -31t-11.5 -31t-31.5 -12q-19 0 -31 12t-12 31z" />
<glyph unicode="&#x1ef2;" horiz-adv-x="964" d="M27 1434h24l432 -715l435 715h24l-448 -740v-694h-21v694zM365 1788h26l135 -250h-20z" />
<glyph unicode="&#x1ef3;" horiz-adv-x="964" d="M14 1057h25l448 -1030l439 1030h24l-604 -1424h-24l153 365zM358 1448h27l135 -250h-20z" />
<glyph unicode="&#x2000;" horiz-adv-x="972" />
<glyph unicode="&#x2001;" horiz-adv-x="1944" />
<glyph unicode="&#x2002;" horiz-adv-x="972" />
<glyph unicode="&#x2003;" horiz-adv-x="1944" />
<glyph unicode="&#x2004;" horiz-adv-x="648" />
<glyph unicode="&#x2005;" horiz-adv-x="486" />
<glyph unicode="&#x2006;" horiz-adv-x="324" />
<glyph unicode="&#x2007;" horiz-adv-x="324" />
<glyph unicode="&#x2008;" horiz-adv-x="243" />
<glyph unicode="&#x2009;" horiz-adv-x="388" />
<glyph unicode="&#x200a;" horiz-adv-x="108" />
<glyph unicode="&#x2010;" horiz-adv-x="616" d="M76 602v21h463v-21h-463z" />
<glyph unicode="&#x2011;" horiz-adv-x="616" d="M76 602v21h463v-21h-463z" />
<glyph unicode="&#x2012;" horiz-adv-x="616" d="M76 602v21h463v-21h-463z" />
<glyph unicode="&#x2013;" horiz-adv-x="1114" d="M78 598v20h958v-20h-958z" />
<glyph unicode="&#x2014;" horiz-adv-x="1644" d="M78 598v20h1491v-20h-1491z" />
<glyph unicode="&#x2018;" horiz-adv-x="280" d="M100 1266q0 88 74 172l12 -13q-21 -21 -42.5 -58t-22.5 -73q8 4 22 4q19 0 31 -12t12 -31t-12 -31t-31 -12t-31 14t-12 40z" />
<glyph unicode="&#x2019;" horiz-adv-x="280" d="M100 1225q22 22 43.5 58.5t22.5 72.5q-8 -4 -23 -4q-19 0 -31 12t-12 31t12 31t31 12t31 -14t12 -40q0 -90 -73 -172z" />
<glyph unicode="&#x201a;" horiz-adv-x="366" d="M135 16q0 19 12 31t31 12t31 -13.5t12 -39.5q0 -88 -74 -172l-12 12q22 22 43.5 58.5t22.5 72.5q-8 -4 -23 -4q-19 0 -31 12t-12 31z" />
<glyph unicode="&#x201c;" horiz-adv-x="456" d="M100 1266q0 88 74 172l12 -13q-21 -21 -42.5 -58t-22.5 -73q8 4 22 4q19 0 31 -12t12 -31t-12 -31t-31 -12t-31 14t-12 40zM276 1266q0 88 74 172l12 -13q-21 -21 -42.5 -58t-22.5 -73q8 4 22 4q19 0 31 -12t12 -31t-12 -31t-31 -12t-31 14t-12 40z" />
<glyph unicode="&#x201d;" horiz-adv-x="456" d="M100 1225q22 22 43.5 58.5t22.5 72.5q-8 -4 -23 -4q-19 0 -31 12t-12 31t12 31t31 12t31 -14t12 -40q0 -90 -73 -172zM276 1225q22 22 43.5 58.5t22.5 72.5q-8 -4 -23 -4q-19 0 -31 12t-12 31t12 31t31 12t31 -14t12 -40q0 -90 -73 -172z" />
<glyph unicode="&#x201e;" horiz-adv-x="503" d="M96 16q0 19 12 31t31 12t31 -13.5t12 -39.5q0 -90 -73 -172l-13 12q22 22 43.5 58.5t22.5 72.5q-8 -4 -23 -4q-19 0 -31 12t-12 31zM272 16q0 19 12 31t31 12t31 -13.5t12 -39.5q0 -90 -73 -172l-13 12q22 22 43.5 58.5t22.5 72.5q-8 -4 -23 -4q-19 0 -31 12t-12 31z" />
<glyph unicode="&#x2020;" horiz-adv-x="659" d="M86 1032v21h233v381h21v-381h233v-21h-233v-1032h-21v1032h-233z" />
<glyph unicode="&#x2021;" horiz-adv-x="659" d="M86 438v21h233v516h-233v20h233v439h21v-439h233v-20h-233v-516h233v-21h-233v-438h-21v438h-233z" />
<glyph unicode="&#x2022;" horiz-adv-x="831" d="M63 635q0 148 101 250t252 102t251.5 -102t100.5 -250t-100.5 -250t-251.5 -102t-252 102t-101 250z" />
<glyph unicode="&#x202f;" horiz-adv-x="388" />
<glyph unicode="&#x2030;" horiz-adv-x="2115" d="M121 1182q0 117 76 197.5t194 80.5t194.5 -80.5t76.5 -197.5t-76.5 -198t-194.5 -81t-194 80.5t-76 198.5zM139 1182q0 -110 71.5 -185t180.5 -75t180.5 75t71.5 185t-71.5 185t-180.5 75t-180.5 -75t-71.5 -185zM154 0l1099 1434h27l-1100 -1434h-26zM772 252 q0 117 76 197.5t194 80.5t194.5 -80.5t76.5 -197.5t-76.5 -198t-194.5 -81t-194 80.5t-76 198.5zM791 252q0 -110 71 -185t180 -75t180.5 75t71.5 185t-71.5 185t-180.5 75t-180 -75t-71 -185zM1454 252q0 117 76 197.5t194 80.5t194.5 -80.5t76.5 -197.5t-76.5 -198 t-194.5 -81t-194 80.5t-76 198.5zM1473 252q0 -110 71 -185t180 -75t180.5 75t71.5 185t-71.5 185t-180.5 75t-180 -75t-71 -185z" />
<glyph unicode="&#x2039;" horiz-adv-x="475" d="M84 592l260 366h25l-260 -366l260 -365h-25z" />
<glyph unicode="&#x203a;" horiz-adv-x="475" d="M84 227l260 365l-260 366h25l260 -366l-260 -365h-25z" />
<glyph unicode="&#x2044;" horiz-adv-x="763" d="M-45 -84l833 1602h23l-834 -1602h-22z" />
<glyph unicode="&#x205f;" horiz-adv-x="486" />
<glyph unicode="&#x20ac;" horiz-adv-x="1243" d="M66 569v21h118q-10 68 -10 127q0 90 12 149h-120v21h124q24 116 80.5 218.5t139 182t196 126t242.5 46.5q185 0 311 -78l-10 -18q-64 36 -132.5 56t-168.5 20q-239 0 -412.5 -157t-224.5 -396h700l-2 -21h-702q-12 -74 -12 -149q0 -59 10 -127h684l-2 -21h-680 q22 -120 78 -224.5t138 -182.5t192 -123t233 -45q100 0 168.5 20t132.5 56l10 -19q-126 -78 -311 -78q-132 0 -247.5 48t-198.5 130.5t-138.5 189.5t-77.5 228h-120z" />
<glyph unicode="&#x2116;" horiz-adv-x="2279" d="M190 0v1434h19l997 -1393v1393h21v-1434h-19l-997 1395v-1395h-21zM1458 1108q0 148 96.5 250t249.5 102t249.5 -102t96.5 -250q0 -150 -96 -252t-250 -102t-250 102t-96 252zM1479 555v20h651v-20h-651zM1479 1108q0 -141 91.5 -237.5t233.5 -96.5t234 97t92 237 q0 139 -92 235.5t-234 96.5t-233.5 -96.5t-91.5 -235.5z" />
<glyph unicode="&#x2122;" horiz-adv-x="1374" d="M55 1413v21h430v-21h-204v-713h-21v713h-205zM604 700v734h21l336 -627l335 627h21v-734h-21v693l-325 -609h-21l-325 609v-693h-21z" />
<glyph unicode="&#x2212;" horiz-adv-x="1126" d="M90 627v20h944v-20h-944z" />
<glyph unicode="&#x25fc;" horiz-adv-x="1054" d="M0 0v1055h1055v-1055h-1055z" />
<glyph unicode="&#xf6c3;" horiz-adv-x="319" d="M117 -121q0 19 12 31t31 12t31 -13.5t12 -39.5q0 -83 -68 -160l-12 12q20 20 39 53t20 66q-8 -4 -22 -4q-19 0 -31 12t-12 31z" />
<glyph horiz-adv-x="616" d="M76 707v20h463v-20h-463z" />
<glyph horiz-adv-x="1114" d="M78 707v20h958v-20h-958z" />
<glyph horiz-adv-x="1644" d="M78 707v20h1491v-20h-1491z" />
<glyph horiz-adv-x="727" d="M84 731l260 367h25l-260 -367l260 -364h-25zM350 731l260 367h25l-260 -367l260 -364h-25z" />
<glyph horiz-adv-x="727" d="M84 367l260 364l-260 367h25l260 -367l-260 -364h-25zM350 367l260 364l-260 367h25l260 -367l-260 -364h-25z" />
<glyph horiz-adv-x="475" d="M84 731l260 367h25l-260 -367l260 -364h-25z" />
<glyph horiz-adv-x="475" d="M84 367l260 364l-260 367h25l260 -367l-260 -364h-25z" />
<glyph horiz-adv-x="518" d="M190 0v1405q0 182 150 182h25v-20h-25q-129 0 -129 -162v-1405q0 -162 129 -162h25v-20h-25q-150 0 -150 182z" />
<glyph horiz-adv-x="518" d="M154 -162h24q129 0 129 162v1405q0 162 -129 162h-24v20h24q150 0 150 -182v-1405q0 -182 -150 -182h-24v20z" />
<glyph horiz-adv-x="518" d="M190 -182v1769h175v-20h-154v-1729h154v-20h-175z" />
<glyph horiz-adv-x="503" d="M154 -162h153v1729h-153v20h174v-1769h-174v20z" />
<glyph horiz-adv-x="536" d="M59 692v21q152 0 152 217v475q0 182 149 182h25v-20h-25q-129 0 -129 -162v-475q0 -105 -32.5 -159.5t-83.5 -68.5q51 -14 83.5 -68t32.5 -159v-475q0 -162 129 -162h25v-20h-25q-149 0 -149 182v475q0 217 -152 217z" />
<glyph horiz-adv-x="442" d="M211 -213v1851h20v-1851h-20z" />
<glyph horiz-adv-x="536" d="M152 -162h24q129 0 129 162v475q0 195 117 227q-51 14 -84 68.5t-33 159.5v475q0 162 -129 162h-24v20h24q150 0 150 -182v-475q0 -217 151 -217v-21q-151 0 -151 -217v-475q0 -182 -150 -182h-24v20z" />
<glyph horiz-adv-x="806" d="M78 -166l627 1757h22l-627 -1757h-22z" />
<glyph horiz-adv-x="806" d="M78 1591h22l627 -1757h-22z" />
<glyph horiz-adv-x="448" d="M180 1417q0 19 12 31t31 12t31 -12t12 -31t-12 -31t-31 -12t-31 12t-12 31zM213 0v1128h20v-1128h-20z" />
<glyph horiz-adv-x="919" d="M98 338q0 75 22 140.5t57 113.5t77.5 91.5t85 83t77.5 79t57 88t22 102.5v92h20v-92q0 -56 -22 -106.5t-57 -91t-77 -80.5t-84.5 -83.5t-77.5 -90.5t-57 -110.5t-22 -135.5q0 -150 94 -247t246 -97q71 0 128 19t95.5 52t63 69t40.5 79l19 -8q-16 -43 -41.5 -80.5 t-66 -73.5t-102 -57t-136.5 -21q-162 0 -261.5 105t-99.5 260zM465 1417q0 19 12 31t31 12t31 -12t12 -31t-12 -31t-31 -12t-31 12t-12 31z" />
<glyph horiz-adv-x="407" d="M160 727q0 19 12 31t31 12t31 -12t12 -31t-12 -31t-31 -12t-31 12t-12 31z" />
<glyph horiz-adv-x="831" d="M63 725q0 148 101 250t252 102t251.5 -102t100.5 -250t-100.5 -250t-251.5 -102t-252 102t-101 250z" />
<glyph horiz-adv-x="1085" d="M115 717q0 118 7 209.5t24.5 179t48.5 149.5t77.5 110t114.5 71.5t156 23.5t156 -23.5t114.5 -71.5t77.5 -110t48.5 -149.5t24.5 -179t7 -209.5q0 -142 -10 -248t-38 -203.5t-74.5 -159t-123.5 -97.5t-182 -36t-182 36t-123.5 97.5t-74.5 159t-38 203.5t-10 248zM135 717 q0 -114 6 -201.5t22 -173.5t45.5 -146.5t74 -107.5t110 -70.5t150.5 -23.5q73 0 132 18.5t101 50.5t73 82.5t50.5 108t31 135t15.5 154.5t4 174t-4 174t-15.5 154.5t-31 135t-50.5 108t-73 82.5t-101 50.5t-132 18.5q-85 0 -150.5 -23.5t-110 -70.5t-74 -107.5t-45.5 -146.5 t-22 -173.5t-6 -201.5z" />
<glyph horiz-adv-x="1085" d="M205 1274l354 160h21v-1414h301v-20h-662v20h340v1389l-344 -154z" />
<glyph horiz-adv-x="1085" d="M150 0v20q0 75 41 150.5t106 141.5t143.5 133.5t157.5 139t144 145.5t106 165.5t41 187.5q0 66 -21 128t-62.5 114t-112 83.5t-161.5 31.5q-77 0 -140 -24.5t-103.5 -65.5t-65.5 -88.5t-35 -100.5l-18 6q9 52 34.5 101.5t68 93.5t109.5 71t150 27q95 0 169.5 -32.5 t118.5 -87.5t66.5 -120.5t22.5 -136.5q0 -98 -41 -192t-106 -169.5t-143.5 -148t-157.5 -140t-144 -132t-106 -137.5t-41 -144h766v-20h-786z" />
<glyph horiz-adv-x="1085" d="M127 250l18 8q100 -264 400 -264q166 0 279.5 111t113.5 278q0 184 -118 288.5t-294 104.5h-100v21l469 616h-725v21h750v-21l-467 -616h73q88 0 165.5 -27t137 -77.5t94.5 -130.5t35 -179q0 -176 -119.5 -293t-293.5 -117q-91 0 -165 23t-122.5 64t-80 87.5t-50.5 102.5 z" />
<glyph horiz-adv-x="1085" d="M94 397v21l686 1016h21v-1016h190v-21h-190v-397h-21v397h-686zM119 418h661v979z" />
<glyph horiz-adv-x="1085" d="M135 248l17 8q103 -262 387 -262q179 0 284 120.5t105 301.5q0 191 -114 316.5t-290 125.5q-181 0 -307 -119l-16 6l32 689h637v-21h-616l-33 -645q125 111 303 111q189 0 306.5 -133t117.5 -330q0 -186 -112 -314.5t-297 -128.5q-86 0 -157 23.5t-118.5 64t-78.5 87 t-50 100.5z" />
<glyph horiz-adv-x="1085" d="M125 594q0 426 118 646t353 220q93 0 163.5 -30.5t137.5 -81.5l-12 -17q-66 50 -133.5 79.5t-155.5 29.5q-226 0 -338.5 -212t-112.5 -603q20 48 52 92.5t80.5 87.5t118.5 68.5t151 25.5q103 0 184.5 -37.5t130 -100.5t74 -140.5t25.5 -163.5q0 -232 -114 -358t-300 -126 q-75 0 -136 19.5t-104 52.5t-76 81.5t-53 101t-32 116.5t-16.5 123.5t-4.5 126.5zM145 584q0 -590 402 -590q172 0 282.5 120t110.5 343q0 82 -25 157t-72 134.5t-123.5 95t-172.5 35.5q-143 0 -243.5 -80.5t-158.5 -214.5z" />
<glyph horiz-adv-x="1085" d="M141 1413v21h801v-21l-549 -1413h-22l551 1413h-781z" />
<glyph horiz-adv-x="1085" d="M113 377q0 77 22 142t57.5 109.5t81.5 77t91.5 49.5t89.5 21q-110 22 -197.5 115.5t-87.5 222.5q0 160 108.5 253t264.5 93t264 -93t108 -253q0 -129 -87 -222.5t-197 -115.5q44 -4 89.5 -21t91.5 -49.5t81.5 -77t57.5 -109.5t22 -142q0 -174 -123.5 -289t-306.5 -115 t-306.5 115t-123.5 289zM133 377q0 -74 27.5 -142.5t78 -122t129.5 -86t175 -32.5t175 32.5t129 86.5t77.5 122t27.5 142q0 180 -117.5 283.5t-291.5 103.5t-292 -103.5t-118 -283.5zM190 1114q0 -129 103 -228.5t250 -99.5t249.5 99.5t102.5 228.5q0 137 -95 231.5 t-257 94.5q-163 0 -258 -94.5t-95 -231.5z" />
<glyph horiz-adv-x="1085" d="M125 977q0 232 114 357.5t300 125.5q87 0 155.5 -25t113.5 -71.5t76 -103.5t47.5 -130.5t23 -142t6.5 -147.5q0 -426 -118.5 -646.5t-353.5 -220.5q-92 0 -162.5 30.5t-138.5 82.5l13 16q66 -50 133 -79t155 -29q226 0 338.5 212t112.5 603q-20 -49 -52 -93t-80 -87 t-118 -68.5t-151 -25.5q-103 0 -184.5 37.5t-130 100.5t-74 140.5t-25.5 163.5zM145 977q0 -82 25 -157t72.5 -134.5t124 -95t172.5 -35.5q143 0 243 80t158 215q0 590 -401 590q-172 0 -283 -120t-111 -343z" />
</font>
</defs>
</svg>
